<svg width="1280" height="314" viewBox="0 0 1280 314" fill="none" xmlns="http://www.w3.org/2000/svg">
<rect width="1280" height="314" fill="#3A3A3A"/>
<path d="M552.36 114.288C549.629 114.288 547.069 113.627 544.68 112.304C542.333 110.939 540.456 109.061 539.048 106.672C537.683 104.24 537 101.488 537 98.416C537 95.8987 537.597 93.3813 538.792 90.864C539.987 88.3467 541.757 86.2773 544.104 84.656C546.451 82.992 549.267 82.16 552.552 82.16C554.813 82.16 556.776 82.5227 558.44 83.248C560.147 83.9307 561.427 84.8053 562.28 85.872C563.176 86.896 563.624 87.8773 563.624 88.816C563.624 89.5413 563.389 90.1813 562.92 90.736C562.451 91.248 561.853 91.504 561.128 91.504C560.317 91.504 559.635 91.2267 559.08 90.672C558.525 90.0747 557.907 89.1787 557.224 87.984C555.901 85.68 554.045 84.528 551.656 84.528C549.907 84.528 548.328 85.104 546.92 86.256C545.512 87.408 544.403 89.0293 543.592 91.12C542.781 93.2107 542.376 95.6213 542.376 98.352C542.376 101.339 542.888 103.813 543.912 105.776C544.979 107.696 546.323 109.104 547.944 110C549.565 110.896 551.251 111.344 553 111.344C556.669 111.344 559.741 109.616 562.216 106.16C562.429 105.904 562.643 105.776 562.856 105.776C563.069 105.776 563.24 105.819 563.368 105.904C563.667 106.075 563.816 106.288 563.816 106.544C563.816 106.715 563.773 106.885 563.688 107.056C562.579 109.275 561.043 111.045 559.08 112.368C557.117 113.648 554.877 114.288 552.36 114.288Z" fill="#FFFEF7"/>
<path d="M585.37 114.352C582.341 114.352 579.674 113.563 577.37 111.984C575.109 110.363 573.36 108.315 572.123 105.84C570.928 103.365 570.331 100.848 570.331 98.288C570.331 95.5573 570.928 92.9547 572.123 90.48C573.317 88.0053 575.045 86 577.306 84.464C579.61 82.928 582.298 82.16 585.37 82.16C588.442 82.16 591.131 82.928 593.435 84.464C595.739 86 597.488 88.0053 598.683 90.48C599.92 92.9547 600.539 95.5573 600.539 98.288C600.539 100.848 599.92 103.365 598.683 105.84C597.488 108.315 595.739 110.363 593.435 111.984C591.131 113.563 588.442 114.352 585.37 114.352ZM585.37 112.112C588.4 112.112 590.789 110.811 592.539 108.208C594.331 105.563 595.227 102.256 595.227 98.288C595.227 94.1067 594.352 90.7573 592.603 88.24C590.853 85.68 588.442 84.4 585.37 84.4C582.341 84.4 579.952 85.68 578.202 88.24C576.453 90.8 575.578 94.1493 575.578 98.288C575.578 100.848 575.962 103.195 576.73 105.328C577.541 107.419 578.672 109.083 580.123 110.32C581.616 111.515 583.365 112.112 585.37 112.112Z" fill="#FFFEF7"/>
<path d="M641.701 111.728C642.043 111.728 642.214 112.027 642.214 112.624C642.214 113.179 642.043 113.456 641.701 113.456H627.366C627.067 113.456 626.918 113.179 626.918 112.624C626.918 112.027 627.067 111.728 627.366 111.728H628.261C629.499 111.728 630.48 111.557 631.205 111.216C631.931 110.875 632.294 110.149 632.294 109.04L632.229 97.136L632.166 93.04C632.166 90.7787 631.654 88.9227 630.63 87.472C629.648 85.9787 627.963 85.232 625.574 85.232C623.824 85.232 622.139 85.7227 620.518 86.704C618.896 87.6427 617.531 89.0933 616.422 91.056L616.357 109.04C616.357 110.107 616.741 110.832 617.509 111.216C618.277 111.557 619.28 111.728 620.518 111.728H621.35C621.648 111.728 621.798 112.027 621.798 112.624C621.798 113.179 621.648 113.456 621.35 113.456H607.013C606.672 113.456 606.502 113.179 606.502 112.624C606.502 112.027 606.672 111.728 607.013 111.728H607.845C609.083 111.728 610.086 111.557 610.854 111.216C611.622 110.832 612.006 110.107 612.006 109.04L611.813 89.456C611.813 88.56 611.6 87.8987 611.174 87.472C610.789 87.0453 610.299 86.768 609.701 86.64C609.147 86.512 608.23 86.3627 606.95 86.192C606.694 86.1493 606.523 86.064 606.438 85.936C606.395 85.7653 606.373 85.5093 606.373 85.168C606.373 84.8693 606.48 84.6773 606.693 84.592C607.333 84.336 610.576 83.5253 616.422 82.16V87.856C619.238 84.0587 622.587 82.16 626.469 82.16C629.84 82.16 632.379 83.0987 634.086 84.976C635.835 86.8107 636.774 89.0933 636.902 91.824C636.944 92.592 636.965 94.128 636.965 96.432C636.965 99.9307 636.901 104.133 636.773 109.04C636.773 110.149 637.136 110.875 637.862 111.216C638.63 111.557 639.632 111.728 640.869 111.728H641.701Z" fill="#FFFEF7"/>
<path d="M657.562 114.352C655.215 114.352 653.401 113.755 652.121 112.56C650.884 111.323 650.266 109.445 650.266 106.928V85.104H645.081V82.736C646.703 82.224 648.004 81.5413 648.985 80.688C650.009 79.8347 650.884 78.576 651.609 76.912C652.335 75.248 652.954 72.944 653.465 70H654.873V82.736H663.257V85.104H654.81V100.784L654.873 106.544C654.916 107.995 655.322 109.168 656.09 110.064C656.858 110.917 657.839 111.344 659.034 111.344C660.015 111.344 660.804 111.195 661.401 110.896C662.041 110.597 662.66 110.107 663.257 109.424C663.471 109.168 663.684 109.04 663.897 109.04C664.111 109.04 664.303 109.147 664.474 109.36C664.687 109.573 664.794 109.787 664.794 110C664.794 110.171 664.751 110.32 664.665 110.448C662.959 113.051 660.591 114.352 657.562 114.352Z" fill="#FFFEF7"/>
<path d="M699.299 108.336C699.64 108.336 699.811 108.485 699.811 108.784L699.747 109.168C699.107 111.003 698.147 112.304 696.867 113.072C695.587 113.84 694.371 114.224 693.219 114.224C691.939 114.224 690.872 113.819 690.019 113.008C689.166 112.155 688.568 111.045 688.227 109.68C686.691 111.216 684.92 112.389 682.915 113.2C680.91 113.968 678.904 114.352 676.899 114.352C674.424 114.352 672.419 113.776 670.883 112.624C669.39 111.472 668.643 109.893 668.643 107.888C668.643 106.309 668.984 104.944 669.667 103.792C670.35 102.64 671.459 101.616 672.995 100.72C673.976 100.165 675.214 99.6533 676.707 99.184C678.2 98.7147 680.248 98.1387 682.851 97.456L688.099 95.984V93.232C688.099 91.184 687.992 89.6693 687.779 88.688C687.566 87.7067 687.139 86.832 686.499 86.064C685.56 84.912 683.96 84.336 681.699 84.336C680.12 84.336 678.926 84.72 678.115 85.488C677.304 86.256 676.622 87.4293 676.067 89.008C675.342 91.056 674.296 92.08 672.931 92.08C672.163 92.08 671.459 91.8453 670.819 91.376C670.222 90.864 669.923 90.2027 669.923 89.392C669.923 88.5813 670.2 87.6427 670.755 86.576C671.352 85.4667 672.526 84.464 674.275 83.568C676.067 82.6293 678.606 82.16 681.891 82.16C683.811 82.16 685.624 82.5013 687.331 83.184C689.08 83.824 690.318 84.6347 691.043 85.616C691.683 86.512 692.11 87.4507 692.323 88.432C692.579 89.3707 692.707 90.5013 692.707 91.824C692.707 93.8293 692.686 95.6 692.643 97.136L692.579 106.416C692.579 108.165 692.899 109.339 693.539 109.936C694.222 110.533 694.883 110.832 695.523 110.832C696.078 110.832 696.654 110.661 697.251 110.32C697.891 109.936 698.424 109.381 698.851 108.656C698.979 108.443 699.128 108.336 699.299 108.336ZM679.203 111.28C680.696 111.28 682.232 110.939 683.811 110.256C685.39 109.531 686.755 108.507 687.907 107.184V106.992L688.035 98.352C684.75 99.1627 682.104 99.9307 680.099 100.656C678.136 101.339 676.6 102.192 675.491 103.216C674.382 104.24 673.827 105.499 673.827 106.992C673.827 108.187 674.232 109.211 675.043 110.064C675.896 110.875 677.283 111.28 679.203 111.28Z" fill="#FFFEF7"/>
<path d="M718.423 114.288C715.692 114.288 713.132 113.627 710.743 112.304C708.396 110.939 706.519 109.061 705.111 106.672C703.745 104.24 703.062 101.488 703.062 98.416C703.062 95.8987 703.66 93.3813 704.855 90.864C706.049 88.3467 707.82 86.2773 710.167 84.656C712.513 82.992 715.329 82.16 718.615 82.16C720.876 82.16 722.839 82.5227 724.503 83.248C726.209 83.9307 727.489 84.8053 728.342 85.872C729.238 86.896 729.687 87.8773 729.687 88.816C729.687 89.5413 729.452 90.1813 728.982 90.736C728.513 91.248 727.916 91.504 727.191 91.504C726.38 91.504 725.697 91.2267 725.143 90.672C724.588 90.0747 723.969 89.1787 723.286 87.984C721.964 85.68 720.108 84.528 717.719 84.528C715.969 84.528 714.39 85.104 712.982 86.256C711.574 87.408 710.465 89.0293 709.654 91.12C708.844 93.2107 708.439 95.6213 708.439 98.352C708.439 101.339 708.951 103.813 709.975 105.776C711.041 107.696 712.385 109.104 714.007 110C715.628 110.896 717.313 111.344 719.062 111.344C722.732 111.344 725.804 109.616 728.279 106.16C728.492 105.904 728.705 105.776 728.919 105.776C729.132 105.776 729.302 105.819 729.43 105.904C729.729 106.075 729.878 106.288 729.878 106.544C729.878 106.715 729.836 106.885 729.751 107.056C728.641 109.275 727.105 111.045 725.143 112.368C723.18 113.648 720.94 114.288 718.423 114.288Z" fill="#FFFEF7"/>
<path d="M746.249 114.352C743.902 114.352 742.089 113.755 740.809 112.56C739.572 111.323 738.953 109.445 738.953 106.928V85.104H733.769V82.736C735.39 82.224 736.692 81.5413 737.673 80.688C738.697 79.8347 739.572 78.576 740.297 76.912C741.022 75.248 741.641 72.944 742.153 70H743.561V82.736H751.945V85.104H743.497V100.784L743.561 106.544C743.604 107.995 744.009 109.168 744.777 110.064C745.545 110.917 746.526 111.344 747.721 111.344C748.702 111.344 749.492 111.195 750.089 110.896C750.729 110.597 751.348 110.107 751.945 109.424C752.158 109.168 752.372 109.04 752.585 109.04C752.798 109.04 752.99 109.147 753.161 109.36C753.374 109.573 753.481 109.787 753.481 110C753.481 110.171 753.438 110.32 753.353 110.448C751.646 113.051 749.278 114.352 746.249 114.352Z" fill="#FFFEF7"/>
<path d="M341.234 239.391C339.359 239.365 338.253 238.18 337.914 235.836C337.68 236.409 337.328 236.943 336.859 237.438C335.609 238.74 334.034 239.391 332.133 239.391C331.352 239.391 330.622 239.26 329.945 239C328.148 238.297 327.25 236.917 327.25 234.859C327.25 234.521 327.276 234.208 327.328 233.922C327.875 230.953 331.391 229.456 337.875 229.43V226.969C337.849 224.312 336.677 222.958 334.359 222.906C333.37 222.906 332.628 223.245 332.133 223.922C332.055 224.052 331.833 224.625 331.469 225.641C331.156 226.474 330.648 226.891 329.945 226.891C329.789 226.891 329.62 226.878 329.438 226.852C328.656 226.669 328.266 226.161 328.266 225.328C328.266 224.885 328.422 224.443 328.734 224C329.724 222.62 331.729 221.93 334.75 221.93C338.995 221.956 341.143 223.948 341.195 227.906V236.148C341.221 237.424 341.56 238.089 342.211 238.141C343.018 238.115 343.513 237.164 343.695 235.289L344.711 235.328C344.685 235.771 344.646 236.188 344.594 236.578C344.229 238.453 343.109 239.391 341.234 239.391ZM333.578 237.789C334.047 237.789 334.542 237.685 335.062 237.477C336.495 236.799 337.432 235.562 337.875 233.766V230.523C336.052 230.549 334.633 230.68 333.617 230.914C331.69 231.383 330.727 232.49 330.727 234.234C330.727 234.521 330.74 234.794 330.766 235.055C331 236.878 331.938 237.789 333.578 237.789ZM366.148 236.031H374.977C375.549 236.031 375.992 236.005 376.305 235.953C377.008 235.797 377.516 235.25 377.828 234.312L378.453 232.281H379.234L379.156 239H364.078V238.141C364.078 237.281 364.247 236.474 364.586 235.719C365.133 234.495 366.357 233.245 368.258 231.969C370.289 230.615 371.435 229.833 371.695 229.625C373.857 227.906 374.938 225.81 374.938 223.336C374.938 222.867 374.898 222.424 374.82 222.008C374.404 219.898 373.102 218.844 370.914 218.844C370.081 218.844 369.443 219.039 369 219.43C368.505 219.872 368.193 220.784 368.062 222.164C368.01 222.711 367.958 223.115 367.906 223.375C367.672 224.469 367.021 225.016 365.953 225.016C365.745 225.016 365.536 224.977 365.328 224.898C364.521 224.612 364.117 223.922 364.117 222.828C364.117 221.656 364.573 220.628 365.484 219.742C366.891 218.466 368.818 217.828 371.266 217.828C372.62 217.828 373.844 218.036 374.938 218.453C377.411 219.365 378.648 221.031 378.648 223.453C378.648 224.99 377.997 226.448 376.695 227.828C375.628 228.948 373.648 230.341 370.758 232.008C369.924 232.503 369.326 232.867 368.961 233.102C367.086 234.247 366.148 235.224 366.148 236.031ZM417.703 229.312C417.703 232.073 417.273 234.456 416.414 236.461C414.799 240.237 411.948 242.125 407.859 242.125C406.401 242.125 405.099 241.852 403.953 241.305C402.26 240.497 401.414 239.365 401.414 237.906C401.414 237.698 401.44 237.503 401.492 237.32C401.727 236.383 402.365 235.914 403.406 235.914C403.901 235.914 404.305 236.018 404.617 236.227C405.034 236.513 405.307 237.19 405.438 238.258C405.516 238.753 405.581 239.104 405.633 239.312C405.945 240.51 406.844 241.109 408.328 241.109C408.901 241.109 409.435 241.018 409.93 240.836C412.404 239.898 413.706 236.37 413.836 230.25C412.352 231.448 410.581 232.06 408.523 232.086C406.961 232.086 405.568 231.747 404.344 231.07C402.156 229.82 401.062 227.828 401.062 225.094C401.062 223.479 401.505 222.047 402.391 220.797C403.875 218.818 406.102 217.828 409.07 217.828C410.919 217.828 412.521 218.336 413.875 219.352C416.427 221.279 417.703 224.599 417.703 229.312ZM404.734 224.547C404.76 228.714 406.193 230.823 409.031 230.875C409.474 230.875 409.904 230.823 410.32 230.719C412.612 230.172 413.758 228.258 413.758 224.977C413.758 224.117 413.667 223.323 413.484 222.594C412.885 220.094 411.427 218.844 409.109 218.844C406.245 218.87 404.786 220.771 404.734 224.547ZM446.797 238.023C446.927 238.023 447.057 238.036 447.188 238.062C447.578 238.115 447.773 238.427 447.773 239H438.711V238.023C439.492 238.023 440.078 237.971 440.469 237.867C441.25 237.633 441.641 236.917 441.641 235.719V214.586H438.711V213.609H444.961V230.641L452.812 223.336H449.883V222.359H456.523C456.523 222.49 456.51 222.62 456.484 222.75C456.432 223.141 456.12 223.336 455.547 223.336C455.286 223.336 455.052 223.362 454.844 223.414C454.375 223.518 453.685 224 452.773 224.859L449.219 228.18L455.508 238.023H456.797C456.953 238.023 457.096 238.036 457.227 238.062C457.565 238.141 457.734 238.453 457.734 239H452.305L446.914 230.367L444.961 232.203V238.023H446.797ZM485.891 217.828C487.609 217.828 489.12 218.258 490.422 219.117C493.104 220.888 494.445 224.052 494.445 228.609C494.445 231.474 493.794 233.87 492.492 235.797C490.878 238.193 488.612 239.391 485.695 239.391C483.846 239.391 482.219 238.87 480.812 237.828C478.286 235.927 477.023 232.802 477.023 228.453C477.023 225.615 477.688 223.245 479.016 221.344C480.656 219 482.948 217.828 485.891 217.828ZM485.812 238.375C486.385 238.375 486.906 238.284 487.375 238.102C489.51 237.242 490.578 234.026 490.578 228.453C490.578 225.875 490.357 223.844 489.914 222.359C489.237 220.016 487.857 218.844 485.773 218.844C485.174 218.844 484.641 218.935 484.172 219.117C481.984 219.977 480.891 223.141 480.891 228.609C480.891 230.953 481.073 232.867 481.438 234.352C482.141 237.034 483.599 238.375 485.812 238.375ZM522.836 218.219H525.141V237.633L529.008 237.945C529.112 237.945 529.216 237.958 529.32 237.984C529.815 238.089 530.062 238.427 530.062 239H516.352V237.984L521.625 237.633V220.758L515.609 224.547L514.906 223.414L522.836 218.219ZM559.195 217.828C560.914 217.828 562.424 218.258 563.727 219.117C566.409 220.888 567.75 224.052 567.75 228.609C567.75 231.474 567.099 233.87 565.797 235.797C564.182 238.193 561.917 239.391 559 239.391C557.151 239.391 555.523 238.87 554.117 237.828C551.591 235.927 550.328 232.802 550.328 228.453C550.328 225.615 550.992 223.245 552.32 221.344C553.961 219 556.253 217.828 559.195 217.828ZM559.117 238.375C559.69 238.375 560.211 238.284 560.68 238.102C562.815 237.242 563.883 234.026 563.883 228.453C563.883 225.875 563.661 223.844 563.219 222.359C562.542 220.016 561.161 218.844 559.078 218.844C558.479 218.844 557.945 218.935 557.477 219.117C555.289 219.977 554.195 223.141 554.195 228.609C554.195 230.953 554.378 232.867 554.742 234.352C555.445 237.034 556.904 238.375 559.117 238.375ZM613.602 243.609C610.893 244.99 608.055 245.68 605.086 245.68C600.997 245.68 597.495 244.456 594.578 242.008C591.401 239.326 589.812 235.823 589.812 231.5C589.812 227.62 590.906 224.312 593.094 221.578C595.958 218.01 600.047 216.227 605.359 216.227C608.823 216.227 611.831 217.138 614.383 218.961C617.924 221.565 619.695 225.393 619.695 230.445C619.695 232.633 619.122 234.469 617.977 235.953C616.622 237.724 614.799 238.609 612.508 238.609C612.039 238.609 611.57 238.57 611.102 238.492C609.122 238.128 607.99 237.125 607.703 235.484C607.521 235.875 607.286 236.253 607 236.617C605.906 237.919 604.461 238.57 602.664 238.57C602.065 238.57 601.492 238.492 600.945 238.336C599.096 237.763 598.172 236.474 598.172 234.469C598.172 233.688 598.328 232.997 598.641 232.398C599.682 230.523 602.703 229.56 607.703 229.508V227.281C607.677 224.885 606.661 223.661 604.656 223.609C604.214 223.609 603.836 223.688 603.523 223.844C603.055 224.052 602.716 224.599 602.508 225.484C602.43 225.719 602.378 225.888 602.352 225.992C602.091 226.826 601.518 227.242 600.633 227.242C600.477 227.242 600.307 227.216 600.125 227.164C599.474 226.982 599.148 226.526 599.148 225.797C599.148 225.406 599.266 225.029 599.5 224.664C600.385 223.362 602.234 222.711 605.047 222.711C608.953 222.737 610.932 224.56 610.984 228.18V235.328C611.01 236.812 611.648 237.581 612.898 237.633C613.497 237.633 614.057 237.438 614.578 237.047C616.115 235.979 616.883 233.948 616.883 230.953C616.883 226.734 615.711 223.375 613.367 220.875C611.154 218.505 608.367 217.32 605.008 217.32C601.622 217.32 598.862 218.401 596.727 220.562C594.331 223.01 593.133 226.331 593.133 230.523C593.133 234.56 594.422 237.893 597 240.523C599.5 243.023 602.586 244.273 606.258 244.273C608.576 244.273 610.867 243.727 613.133 242.633L613.602 243.609ZM603.953 237.086C604.344 237.086 604.734 237.008 605.125 236.852C606.401 236.279 607.26 235.12 607.703 233.375V230.523C606.818 230.549 606.023 230.615 605.32 230.719C602.846 231.083 601.609 232.138 601.609 233.883C601.609 234.299 601.648 234.703 601.727 235.094C602.039 236.422 602.781 237.086 603.953 237.086ZM649.453 238.023C649.583 238.023 649.714 238.036 649.844 238.062C650.234 238.115 650.43 238.427 650.43 239H641.367V238.023C642.148 238.023 642.734 237.971 643.125 237.867C643.906 237.633 644.297 236.917 644.297 235.719V214.586H641.367V213.609H647.617V230.641L655.469 223.336H652.539V222.359H659.18C659.18 222.49 659.167 222.62 659.141 222.75C659.089 223.141 658.776 223.336 658.203 223.336C657.943 223.336 657.708 223.362 657.5 223.414C657.031 223.518 656.341 224 655.43 224.859L651.875 228.18L658.164 238.023H659.453C659.609 238.023 659.753 238.036 659.883 238.062C660.221 238.141 660.391 238.453 660.391 239H654.961L649.57 230.367L647.617 232.203V238.023H649.453ZM698.156 238.023C698.312 238.023 698.456 238.036 698.586 238.062C698.924 238.141 699.094 238.453 699.094 239H693.312L693.039 235.172C692.779 235.823 692.44 236.422 692.023 236.969C690.773 238.583 689.159 239.391 687.18 239.391C683.482 239.365 681.62 237.151 681.594 232.75V223.336H678.742V222.359H684.953V233.336C684.953 233.674 684.979 234.013 685.031 234.352C685.318 236.539 686.477 237.633 688.508 237.633C689.211 237.633 689.888 237.424 690.539 237.008C692.128 235.992 692.935 234.339 692.961 232.047V223.336H690.031V222.359H696.32V238.023H698.156ZM725.57 238.336C727.367 238.336 728.539 237.776 729.086 236.656C729.268 236.292 729.359 235.914 729.359 235.523C729.359 234.378 728.552 233.401 726.938 232.594C726.599 232.411 726.039 232.151 725.258 231.812C723.174 230.927 721.781 230.094 721.078 229.312C720.349 228.479 719.984 227.503 719.984 226.383C719.984 224.534 721 223.219 723.031 222.438C723.995 222.099 725.036 221.93 726.156 221.93C727.927 221.93 729.424 222.294 730.648 223.023C730.648 222.268 730.831 221.839 731.195 221.734C731.326 221.708 731.495 221.695 731.703 221.695V226.578H730.648C730.596 224.182 729.268 222.971 726.664 222.945C724.789 222.945 723.617 223.518 723.148 224.664C723.044 224.977 722.992 225.289 722.992 225.602C722.992 226.721 723.786 227.672 725.375 228.453C725.74 228.635 726.299 228.883 727.055 229.195C729.164 230.055 730.57 230.862 731.273 231.617C732.029 232.477 732.406 233.492 732.406 234.664C732.406 236.826 731.273 238.258 729.008 238.961C728.122 239.247 727.159 239.391 726.117 239.391C724.164 239.365 722.471 238.909 721.039 238.023C721.039 238.701 720.87 239.091 720.531 239.195C720.375 239.221 720.193 239.234 719.984 239.234V233.297H721.117C721.169 236.63 722.654 238.31 725.57 238.336ZM767.125 239.391C765.25 239.365 764.143 238.18 763.805 235.836C763.57 236.409 763.219 236.943 762.75 237.438C761.5 238.74 759.924 239.391 758.023 239.391C757.242 239.391 756.513 239.26 755.836 239C754.039 238.297 753.141 236.917 753.141 234.859C753.141 234.521 753.167 234.208 753.219 233.922C753.766 230.953 757.281 229.456 763.766 229.43V226.969C763.74 224.312 762.568 222.958 760.25 222.906C759.26 222.906 758.518 223.245 758.023 223.922C757.945 224.052 757.724 224.625 757.359 225.641C757.047 226.474 756.539 226.891 755.836 226.891C755.68 226.891 755.51 226.878 755.328 226.852C754.547 226.669 754.156 226.161 754.156 225.328C754.156 224.885 754.312 224.443 754.625 224C755.615 222.62 757.62 221.93 760.641 221.93C764.885 221.956 767.034 223.948 767.086 227.906V236.148C767.112 237.424 767.451 238.089 768.102 238.141C768.909 238.115 769.404 237.164 769.586 235.289L770.602 235.328C770.576 235.771 770.536 236.188 770.484 236.578C770.12 238.453 769 239.391 767.125 239.391ZM759.469 237.789C759.938 237.789 760.432 237.685 760.953 237.477C762.385 236.799 763.323 235.562 763.766 233.766V230.523C761.943 230.549 760.523 230.68 759.508 230.914C757.581 231.383 756.617 232.49 756.617 234.234C756.617 234.521 756.63 234.794 756.656 235.055C756.891 236.878 757.828 237.789 759.469 237.789ZM794.852 237.047C794.852 237.359 794.786 237.659 794.656 237.945C794.266 238.779 793.615 239.195 792.703 239.195C792.391 239.195 792.091 239.13 791.805 239C790.971 238.609 790.555 237.958 790.555 237.047C790.555 236.734 790.633 236.409 790.789 236.07C791.18 235.263 791.818 234.859 792.703 234.859C793.016 234.859 793.328 234.938 793.641 235.094C794.448 235.484 794.852 236.135 794.852 237.047ZM829.844 239.391C827.969 239.365 826.862 238.18 826.523 235.836C826.289 236.409 825.938 236.943 825.469 237.438C824.219 238.74 822.643 239.391 820.742 239.391C819.961 239.391 819.232 239.26 818.555 239C816.758 238.297 815.859 236.917 815.859 234.859C815.859 234.521 815.885 234.208 815.938 233.922C816.484 230.953 820 229.456 826.484 229.43V226.969C826.458 224.312 825.286 222.958 822.969 222.906C821.979 222.906 821.237 223.245 820.742 223.922C820.664 224.052 820.443 224.625 820.078 225.641C819.766 226.474 819.258 226.891 818.555 226.891C818.398 226.891 818.229 226.878 818.047 226.852C817.266 226.669 816.875 226.161 816.875 225.328C816.875 224.885 817.031 224.443 817.344 224C818.333 222.62 820.339 221.93 823.359 221.93C827.604 221.956 829.753 223.948 829.805 227.906V236.148C829.831 237.424 830.169 238.089 830.82 238.141C831.628 238.115 832.122 237.164 832.305 235.289L833.32 235.328C833.294 235.771 833.255 236.188 833.203 236.578C832.839 238.453 831.719 239.391 829.844 239.391ZM822.188 237.789C822.656 237.789 823.151 237.685 823.672 237.477C825.104 236.799 826.042 235.562 826.484 233.766V230.523C824.661 230.549 823.242 230.68 822.227 230.914C820.299 231.383 819.336 232.49 819.336 234.234C819.336 234.521 819.349 234.794 819.375 235.055C819.609 236.878 820.547 237.789 822.188 237.789ZM853 230.797C853 228.896 853.43 227.203 854.289 225.719C855.773 223.193 858.156 221.93 861.438 221.93C862.948 221.93 864.328 222.255 865.578 222.906C867.193 223.766 868 224.833 868 226.109C868 226.266 867.974 226.435 867.922 226.617C867.688 227.451 867.076 227.854 866.086 227.828C865.695 227.802 865.37 227.711 865.109 227.555C864.667 227.294 864.367 226.617 864.211 225.523C864.159 225.081 864.107 224.768 864.055 224.586C863.768 223.466 862.948 222.906 861.594 222.906C861.021 222.906 860.474 223.01 859.953 223.219C857.792 224.078 856.711 226.526 856.711 230.562C856.711 232.438 857.023 234.026 857.648 235.328C858.612 237.307 860.057 238.297 861.984 238.297C862.323 238.297 862.661 238.271 863 238.219C865.057 237.88 866.542 236.76 867.453 234.859L868.469 235.172C868.26 235.667 867.987 236.135 867.648 236.578C866.268 238.453 864.211 239.391 861.477 239.391C859.654 239.391 858.039 238.948 856.633 238.062C854.211 236.526 853 234.104 853 230.797ZM892.719 237.047C892.719 237.359 892.654 237.659 892.523 237.945C892.133 238.779 891.482 239.195 890.57 239.195C890.258 239.195 889.958 239.13 889.672 239C888.839 238.609 888.422 237.958 888.422 237.047C888.422 236.734 888.5 236.409 888.656 236.07C889.047 235.263 889.685 234.859 890.57 234.859C890.883 234.859 891.195 234.938 891.508 235.094C892.315 235.484 892.719 236.135 892.719 237.047ZM920.484 216.773C920.484 217.112 920.406 217.451 920.25 217.789C919.833 218.648 919.156 219.078 918.219 219.078C917.88 219.078 917.555 219.013 917.242 218.883C916.357 218.466 915.914 217.763 915.914 216.773C915.914 216.435 915.992 216.096 916.148 215.758C916.565 214.898 917.255 214.469 918.219 214.469C918.557 214.469 918.896 214.547 919.234 214.703C920.068 215.146 920.484 215.836 920.484 216.773ZM913.805 222.359H920.133V239.117C920.133 240.966 919.807 242.503 919.156 243.727C918.167 245.549 916.669 246.461 914.664 246.461C914.013 246.461 913.388 246.344 912.789 246.109C911.669 245.615 911.109 244.885 911.109 243.922C911.109 243.792 911.122 243.648 911.148 243.492C911.357 242.789 911.865 242.438 912.672 242.438C913.089 242.438 913.427 242.568 913.688 242.828C913.844 243.01 914.039 243.544 914.273 244.43C914.482 245.133 914.833 245.484 915.328 245.484C916.266 245.458 916.773 244.312 916.852 242.047C916.852 241.734 916.839 241.214 916.812 240.484C916.786 239.599 916.773 238.935 916.773 238.492V223.336H913.805V222.359ZM948.133 245.445H950.711C950.867 245.445 950.997 245.458 951.102 245.484C951.492 245.536 951.688 245.849 951.688 246.422H942V245.445C942.781 245.445 943.367 245.38 943.758 245.25C944.435 245.016 944.773 244.312 944.773 243.141V223.336H942V222.359H947.859L948.055 226.5C948.289 225.823 948.615 225.198 949.031 224.625C950.307 222.828 952.117 221.93 954.461 221.93C956.049 221.93 957.417 222.438 958.562 223.453C960.255 224.99 961.102 227.255 961.102 230.25C961.102 232.854 960.372 235.003 958.914 236.695C957.352 238.492 955.385 239.391 953.016 239.391C951.115 239.286 949.487 238.622 948.133 237.398V245.445ZM953.055 223.57C952.169 223.57 951.349 223.857 950.594 224.43C948.927 225.732 948.094 228.062 948.094 231.422C948.094 232.906 948.276 234.182 948.641 235.25C949.396 237.359 950.724 238.414 952.625 238.414C953.224 238.414 953.784 238.297 954.305 238.062C956.362 237.125 957.391 234.664 957.391 230.68C957.391 229.872 957.339 229.104 957.234 228.375C956.766 225.172 955.372 223.57 953.055 223.57Z" fill="#FFFEF7"/>
</svg>
