<svg width="126" height="410" viewBox="0 0 126 410" fill="none" xmlns="http://www.w3.org/2000/svg">
<path d="M11.12 153.7L11.04 152.9C11.44 152.713 11.8667 152.553 12.32 152.42C12.7733 152.287 13.2267 152.22 13.68 152.22C14.16 152.22 14.6933 152.34 15.28 152.58C15.8933 152.793 16.4133 153.073 16.84 153.42C17.2933 153.74 17.52 154.047 17.52 154.34C17.52 154.793 17.4133 155.22 17.2 155.62C17.0133 155.993 16.8533 156.487 16.72 157.1C16.6133 157.58 16.5067 158.233 16.4 159.06C16.32 159.887 16.2533 160.82 16.2 161.86C16.1467 162.9 16.0933 163.993 16.04 165.14C16.0133 166.287 16 167.42 16 168.54C16 170.62 16.0267 172.327 16.08 173.66C16.1333 174.967 16.2 176.02 16.28 176.82C16.36 177.62 16.4267 178.273 16.48 178.78C16.56 179.287 16.6 179.753 16.6 180.18C16.6 180.74 16.4933 181.3 16.28 181.86C16.0933 182.393 15.8267 182.833 15.48 183.18C15.16 183.527 14.8133 183.7 14.44 183.7C14.1467 183.7 13.9067 183.58 13.72 183.34C13.56 183.127 13.3733 182.847 13.16 182.5C12.9733 182.127 12.68 181.753 12.28 181.38C11.9867 181.087 11.56 180.727 11 180.3C10.4667 179.873 9.90667 179.447 9.32 179.02C8.73333 178.593 8.18667 178.233 7.68 177.94L8.2 177.18C8.94667 177.58 9.8 178.033 10.76 178.54C11.72 179.02 12.5333 179.433 13.2 179.78C13.92 180.073 14.28 179.833 14.28 179.06C14.28 178.1 14.28 176.78 14.28 175.1C14.28 173.42 14.28 171.367 14.28 168.94C14.28 167.847 14.28 166.607 14.28 165.22C14.3067 163.807 14.32 162.42 14.32 161.06C14.32 159.673 14.32 158.447 14.32 157.38C14.32 156.313 14.3067 155.567 14.28 155.14C14.28 154.687 14.2267 154.393 14.12 154.26C14.0133 154.1 13.8133 153.98 13.52 153.9C13.2 153.82 12.84 153.767 12.44 153.74C12.0667 153.713 11.6267 153.7 11.12 153.7ZM5.84 159.98C6.48 160.62 7 161.113 7.4 161.46C7.82667 161.78 8.25333 161.993 8.68 162.1C9.10667 162.207 9.64 162.247 10.28 162.22C10.7333 162.193 11.2533 162.14 11.84 162.06C12.4267 161.98 13.04 161.86 13.68 161.7C14.32 161.54 14.9467 161.353 15.56 161.14C16.7067 160.74 17.6267 160.34 18.32 159.94C19.04 159.54 19.6267 159.193 20.08 158.9C20.5333 158.607 20.8933 158.46 21.16 158.46C21.3467 158.46 21.5333 158.473 21.72 158.5C21.9067 158.527 22.08 158.58 22.24 158.66C22.4267 158.74 22.5733 158.847 22.68 158.98C22.8133 159.113 22.88 159.273 22.88 159.46C22.88 159.78 22.7733 160.073 22.56 160.34C22.3733 160.58 22.08 160.807 21.68 161.02C20.9333 161.393 19.9733 161.793 18.8 162.22C17.6533 162.62 16.6133 162.98 15.68 163.3C15.2533 163.407 14.6933 163.553 14 163.74C13.3333 163.9 12.6533 164.047 11.96 164.18C11.2667 164.313 10.6667 164.38 10.16 164.38C9.54667 164.38 8.96 164.3 8.4 164.14C7.84 163.98 7.29333 163.633 6.76 163.1C6.22667 162.54 5.69333 161.673 5.16 160.5L5.84 159.98ZM7.48 175.86C7.96 175.54 8.6 175.087 9.4 174.5C10.2267 173.913 11.1067 173.287 12.04 172.62C12.9733 171.953 13.8667 171.38 14.72 170.9C16.48 169.913 18.32 169.06 20.24 168.34C22.1867 167.593 24.2267 167.22 26.36 167.22C27.8 167.22 29.08 167.513 30.2 168.1C31.32 168.687 32.1867 169.513 32.8 170.58C33.44 171.647 33.76 172.9 33.76 174.34C33.76 175.62 33.4533 176.82 32.84 177.94C32.2267 179.033 31.3467 179.913 30.2 180.58C29.08 181.247 27.72 181.58 26.12 181.58C25.24 181.58 24.3867 181.433 23.56 181.14C22.7333 180.847 21.9467 180.42 21.2 179.86C20.4533 179.273 19.7467 178.54 19.08 177.66L19.68 177.02C20.4267 177.633 21.28 178.18 22.24 178.66C23.2267 179.113 24.3467 179.34 25.6 179.34C27.4667 179.34 28.8933 178.807 29.88 177.74C30.8933 176.673 31.4 175.38 31.4 173.86C31.4 172.873 31.1867 171.993 30.76 171.22C30.36 170.42 29.72 169.807 28.84 169.38C27.9867 168.927 26.8933 168.7 25.56 168.7C24.4133 168.7 23.2133 168.9 21.96 169.3C20.7333 169.673 19.52 170.167 18.32 170.78C17.12 171.393 15.9867 172.033 14.92 172.7C14.2267 173.127 13.5067 173.647 12.76 174.26C12.0133 174.847 11.28 175.473 10.56 176.14C9.86667 176.78 9.21333 177.407 8.6 178.02C7.90667 178.66 7.38667 179.1 7.04 179.34C6.72 179.58 6.42667 179.7 6.16 179.7C5.94667 179.7 5.73333 179.647 5.52 179.54C5.33333 179.433 5.13333 179.273 4.92 179.06C4.70667 178.793 4.54667 178.527 4.44 178.26C4.33333 177.993 4.28 177.727 4.28 177.46C4.28 177.007 4.34667 176.7 4.48 176.54C4.61333 176.353 4.88 176.287 5.28 176.34C5.78667 176.42 6.2 176.42 6.52 176.34C6.84 176.233 7.16 176.073 7.48 175.86ZM25.68 158.02L25.6 157.06C26.5067 156.847 27.36 156.727 28.16 156.7C28.96 156.647 29.76 156.7 30.56 156.86C31.5467 157.047 32.4667 157.433 33.32 158.02C34.1733 158.58 34.8667 159.26 35.4 160.06C35.96 160.833 36.2533 161.62 36.28 162.42C36.3067 162.82 36.24 163.167 36.08 163.46C35.92 163.753 35.6667 163.913 35.32 163.94C35.0267 164.02 34.7733 163.993 34.56 163.86C34.3733 163.727 34.16 163.593 33.92 163.46C33.68 163.3 33.3467 163.26 32.92 163.34C32.6 163.393 32.1333 163.567 31.52 163.86C30.9333 164.127 30.44 164.353 30.04 164.54L29.6 163.82C29.8667 163.66 30.2 163.447 30.6 163.18C31.0267 162.913 31.4267 162.647 31.8 162.38C32.1733 162.113 32.44 161.9 32.6 161.74C32.8133 161.5 32.92 161.287 32.92 161.1C32.9467 160.887 32.8533 160.62 32.64 160.3C32.16 159.553 31.5333 159.02 30.76 158.7C30.0133 158.353 29.1867 158.14 28.28 158.06C27.4 157.98 26.5333 157.967 25.68 158.02ZM9.12 201.54V200.74C9.65333 200.66 10.12 200.593 10.52 200.54C10.92 200.46 11.28 200.433 11.6 200.46C12.0533 200.487 12.5333 200.62 13.04 200.86C13.5467 201.1 14.0267 201.38 14.48 201.7C14.9333 202.02 15.2933 202.367 15.56 202.74C15.8533 203.087 16 203.393 16 203.66C16 203.953 15.9333 204.207 15.8 204.42C15.6933 204.633 15.56 204.9 15.4 205.22C15.24 205.513 15.1067 205.98 15 206.62C14.7867 207.847 14.5733 209.353 14.36 211.14C14.1733 212.927 14.0133 214.793 13.88 216.74C13.7467 218.687 13.68 220.553 13.68 222.34C13.68 223.967 13.8533 225.287 14.2 226.3C14.5467 227.313 15.1333 228.047 15.96 228.5C16.8133 228.953 17.9333 229.18 19.32 229.18C21.4533 229.18 23.44 228.767 25.28 227.94C27.1467 227.113 28.7867 226.073 30.2 224.82C31.64 223.54 32.7733 222.207 33.6 220.82L34.44 221.42C33.7467 222.94 32.88 224.34 31.84 225.62C30.8267 226.9 29.6533 228.007 28.32 228.94C27.0133 229.847 25.6 230.553 24.08 231.06C22.56 231.567 20.96 231.82 19.28 231.82C17.5733 231.82 16.1467 231.513 15 230.9C13.8533 230.287 12.9867 229.313 12.4 227.98C11.84 226.62 11.56 224.807 11.56 222.54C11.56 221.34 11.5867 220.02 11.64 218.58C11.6933 217.14 11.76 215.7 11.84 214.26C11.9467 212.82 12.04 211.46 12.12 210.18C12.2267 208.873 12.3067 207.74 12.36 206.78C12.4133 205.82 12.44 205.113 12.44 204.66C12.44 203.94 12.3733 203.433 12.24 203.14C12.1333 202.847 11.9067 202.607 11.56 202.42C11.2933 202.233 10.9467 202.06 10.52 201.9C10.0933 201.74 9.62667 201.62 9.12 201.54ZM22.96 251.02L23.16 250.46C24.4667 250.46 25.5467 250.66 26.4 251.06C27.2533 251.433 27.88 251.86 28.28 252.34C28.5733 252.687 28.8 253.047 28.96 253.42C29.1467 253.767 29.24 254.14 29.24 254.54C29.24 254.913 29.1467 255.193 28.96 255.38C28.8 255.567 28.56 255.66 28.24 255.66C27.9733 255.66 27.68 255.607 27.36 255.5C27.0667 255.393 26.72 255.327 26.32 255.3C25.9467 255.247 25.44 255.207 24.8 255.18C24.1867 255.153 23.5333 255.14 22.84 255.14C22.1467 255.113 21.5067 255.14 20.92 255.22C20.5467 255.273 20.2533 255.353 20.04 255.46C19.8267 255.567 19.72 255.767 19.72 256.06C19.72 256.3 19.8667 256.66 20.16 257.14C20.48 257.62 20.84 258.14 21.24 258.7C21.6667 259.233 22.0267 259.74 22.32 260.22C23.0667 261.313 23.7333 262.447 24.32 263.62C24.9333 264.793 25.4933 265.927 26 267.02C26.5067 268.087 26.9333 269.087 27.28 270.02C27.5733 270.687 27.8267 271.42 28.04 272.22C28.28 272.993 28.4 273.647 28.4 274.18C28.4 274.66 28.28 275.06 28.04 275.38C27.8267 275.673 27.4933 275.82 27.04 275.82C26.4533 275.82 26.0267 275.38 25.76 274.5C25.6533 274.127 25.52 273.567 25.36 272.82C25.2267 272.047 25 271.18 24.68 270.22C24.3333 269.047 23.84 267.66 23.2 266.06C22.56 264.46 21.7467 262.887 20.76 261.34C20.3067 260.647 19.9067 260.06 19.56 259.58C19.24 259.1 18.9333 258.687 18.64 258.34C18.32 257.993 18.04 257.66 17.8 257.34C17.56 256.993 17.4933 256.527 17.6 255.94C17.7067 255.327 17.92 254.913 18.24 254.7C18.56 254.487 18.9067 254.367 19.28 254.34C19.68 254.313 20.04 254.287 20.36 254.26C21.48 254.18 22.5467 254.113 23.56 254.06C24.6 253.98 25.32 253.913 25.72 253.86C26.1733 253.807 26.28 253.553 26.04 253.1C25.88 252.753 25.5333 252.393 25 252.02C24.4933 251.62 23.8133 251.287 22.96 251.02ZM13.28 261.14C13.52 261.487 13.7867 261.807 14.08 262.1C14.3733 262.393 14.6933 262.54 15.04 262.54C15.36 262.54 15.7467 262.447 16.2 262.26C16.68 262.047 17.1867 261.807 17.72 261.54C19.6133 260.553 21.4667 259.633 23.28 258.78C25.0933 257.927 26.8267 257.233 28.48 256.7C30.16 256.14 31.72 255.86 33.16 255.86C34.44 255.86 35.5333 256.087 36.44 256.54C37.3733 256.993 38.0933 257.62 38.6 258.42C39.1067 259.193 39.36 260.087 39.36 261.1C39.36 262.14 39.08 263.047 38.52 263.82C37.96 264.567 37.2 265.153 36.24 265.58C35.3067 265.98 34.2267 266.18 33 266.18C31.8533 266.18 30.7067 265.873 29.56 265.26C28.4133 264.62 27.36 263.673 26.4 262.42L26.92 261.98C27.88 262.753 28.8133 263.313 29.72 263.66C30.6267 263.98 31.64 264.14 32.76 264.14C34.04 264.14 35.08 263.82 35.88 263.18C36.68 262.54 37.08 261.647 37.08 260.5C37.08 259.46 36.6933 258.607 35.92 257.94C35.1467 257.273 34.1867 256.94 33.04 256.94C32 256.94 30.88 257.153 29.68 257.58C28.5067 257.98 27.28 258.513 26 259.18C24.7467 259.847 23.4933 260.567 22.24 261.34C20.9867 262.113 19.7733 262.873 18.6 263.62C17.9067 264.073 17.4 264.447 17.08 264.74C16.7867 265.033 16.4 265.18 15.92 265.18C15.4933 265.18 14.9867 264.993 14.4 264.62C13.8133 264.247 13.3867 263.847 13.12 263.42C12.9333 263.153 12.8 262.873 12.72 262.58C12.6667 262.26 12.6533 261.873 12.68 261.42L13.28 261.14ZM13.08 311.5L13.16 309.34C14.0933 308.433 15.08 307.527 16.12 306.62C17.1867 305.687 18.2667 304.847 19.36 304.1C20.48 303.327 21.6 302.713 22.72 302.26C23.84 301.78 24.92 301.54 25.96 301.54C27.2667 301.54 28.2933 301.967 29.04 302.82C29.8133 303.673 30.2 305.02 30.2 306.86C30.2 307.633 30.12 308.54 29.96 309.58C29.8 310.593 29.6133 311.687 29.4 312.86C29.1867 314.007 29 315.153 28.84 316.3C28.68 317.447 28.6 318.527 28.6 319.54C28.6 320.607 28.8133 321.38 29.24 321.86C29.6933 322.313 30.3733 322.54 31.28 322.54C32.5333 322.54 33.6533 322.3 34.64 321.82C35.6533 321.313 36.7067 320.527 37.8 319.46L38.44 320.18C37.9067 321.007 37.2267 321.807 36.4 322.58C35.6 323.327 34.72 323.94 33.76 324.42C32.8 324.873 31.7867 325.1 30.72 325.1C29.36 325.1 28.2533 324.673 27.4 323.82C26.5733 322.94 26.16 321.633 26.16 319.9C26.16 318.433 26.2933 316.967 26.56 315.5C26.8267 314.033 27.0933 312.567 27.36 311.1C27.6267 309.633 27.76 308.193 27.76 306.78C27.76 305.553 27.56 304.62 27.16 303.98C26.7867 303.313 26.12 302.98 25.16 302.98C24.0133 302.98 22.7467 303.38 21.36 304.18C20 304.953 18.6133 305.993 17.2 307.3C15.7867 308.58 14.4133 309.98 13.08 311.5ZM13.08 308.22L13.04 311.62C12.5333 312.447 11.96 313.353 11.32 314.34C10.7067 315.327 10.0533 316.327 9.36 317.34C8.69333 318.353 8.02667 319.34 7.36 320.3C6.69333 321.233 6.09333 322.1 5.56 322.9C5.34667 323.247 5.13333 323.527 4.92 323.74C4.73333 323.953 4.49333 324.073 4.2 324.1C3.90667 324.1 3.66667 323.98 3.48 323.74C3.29333 323.473 3.2 323.14 3.2 322.74C3.2 322.367 3.25333 322.047 3.36 321.78C3.46667 321.487 3.69333 321.14 4.04 320.74C4.46667 320.26 5.05333 319.553 5.8 318.62C6.54667 317.66 7.36 316.58 8.24 315.38C9.14667 314.18 10.0267 312.967 10.88 311.74C11.76 310.487 12.4933 309.313 13.08 308.22ZM7.36 318.38L7.96 317.54C8.33333 318.073 8.74667 318.687 9.2 319.38C9.68 320.047 10.1333 320.673 10.56 321.26C11.0133 321.82 11.3467 322.247 11.56 322.54C11.9067 322.913 12.0933 322.82 12.12 322.26C12.12 321.487 12.0933 320.5 12.04 319.3C12.0133 318.073 12 316.74 12 315.3C12 313.833 12.0533 312.42 12.16 311.06C12.2667 309.7 12.3867 308.38 12.52 307.1C12.68 305.793 12.8267 304.58 12.96 303.46C13.0933 302.34 13.2133 301.353 13.32 300.5C13.4267 299.647 13.48 298.953 13.48 298.42C13.48 297.993 13.4133 297.713 13.28 297.58C13.1733 297.42 12.96 297.273 12.64 297.14C12.3733 297.033 12.0667 296.94 11.72 296.86C11.4 296.753 11.0267 296.66 10.6 296.58L10.56 295.74C10.9067 295.633 11.2667 295.54 11.64 295.46C12.04 295.38 12.4533 295.34 12.88 295.34C13.28 295.34 13.68 295.433 14.08 295.62C14.5067 295.807 14.88 296.06 15.2 296.38C15.5467 296.673 15.8267 296.98 16.04 297.3C16.28 297.62 16.4 297.913 16.4 298.18C16.4 298.607 16.3067 298.98 16.12 299.3C15.96 299.62 15.7733 300.167 15.56 300.94C15.4267 301.313 15.2667 301.833 15.08 302.5C14.92 303.14 14.7467 303.9 14.56 304.78C14.4 305.633 14.24 306.54 14.08 307.5C13.9467 308.46 13.84 309.42 13.76 310.38C13.68 311.9 13.64 313.433 13.64 314.98C13.6667 316.5 13.7333 317.913 13.84 319.22C13.9467 320.5 14.0267 321.567 14.08 322.42C14.16 322.9 14.2133 323.353 14.24 323.78C14.2667 324.207 14.28 324.647 14.28 325.1C14.28 325.527 14.2133 325.993 14.08 326.5C13.9733 327.007 13.8 327.42 13.56 327.74C13.3467 328.087 13.0667 328.26 12.72 328.26C12.3733 328.26 12.0933 328.153 11.88 327.94C11.6667 327.727 11.52 327.393 11.44 326.94C11.36 326.46 11.2667 326.033 11.16 325.66C11.08 325.287 10.96 324.887 10.8 324.46C10.6933 324.14 10.5067 323.727 10.24 323.22C10 322.713 9.70667 322.167 9.36 321.58C9.04 320.993 8.69333 320.42 8.32 319.86C7.97333 319.273 7.65333 318.78 7.36 318.38ZM9.04 308.42C8.8 308.58 8.57333 308.767 8.36 308.98C8.17333 309.193 8 309.393 7.84 309.58C7.68 309.74 7.49333 309.82 7.28 309.82C6.90667 309.82 6.49333 309.687 6.04 309.42C5.61333 309.127 5.21333 308.767 4.84 308.34C4.49333 307.887 4.26667 307.447 4.16 307.02C4.05333 306.727 3.98667 306.433 3.96 306.14C3.96 305.82 3.96 305.54 3.96 305.3L4.68 305.06C4.97333 305.673 5.26667 306.14 5.56 306.46C5.85333 306.753 6.17333 306.9 6.52 306.9C6.76 306.9 7.2 306.78 7.84 306.54C8.48 306.273 9.17333 305.967 9.92 305.62C10.6933 305.273 11.4 304.94 12.04 304.62C12.68 304.273 13.12 304.033 13.36 303.9C13.6 303.74 13.7867 303.647 13.92 303.62C14.08 303.567 14.2667 303.593 14.48 303.7C14.72 303.807 14.96 303.98 15.2 304.22C15.4667 304.433 15.6933 304.66 15.88 304.9C16.0667 305.113 16.16 305.3 16.16 305.46C16.16 305.673 16.0667 305.887 15.88 306.1C15.6933 306.287 15.48 306.54 15.24 306.86C14.9467 307.207 14.6267 307.62 14.28 308.1C13.96 308.58 13.6267 309.087 13.28 309.62L13.44 307.34C13.5467 307.127 13.6667 306.86 13.8 306.54C13.9333 306.22 14.04 305.9 14.12 305.58C13.56 305.847 12.9733 306.153 12.36 306.5C11.7733 306.82 11.1867 307.153 10.6 307.5C10.04 307.82 9.52 308.127 9.04 308.42ZM18.28 351.06C19.2667 350.473 20.28 350.007 21.32 349.66C22.3867 349.313 23.4267 349.06 24.44 348.9C25.4533 348.74 26.4 348.66 27.28 348.66C28.6133 348.66 29.68 348.727 30.48 348.86C31.28 348.993 31.9867 349.193 32.6 349.46C33 349.647 33.28 349.873 33.44 350.14C33.6267 350.38 33.72 350.62 33.72 350.86C33.72 351.1 33.64 351.3 33.48 351.46C33.3467 351.62 33.08 351.727 32.68 351.78C32.2 351.833 31.72 351.913 31.24 352.02C30.76 352.1 30.2 352.287 29.56 352.58C29.0267 352.847 28.3867 353.18 27.64 353.58C26.8933 353.98 26.1467 354.407 25.4 354.86C24.6533 355.313 23.9733 355.74 23.36 356.14L22.72 355.42C23.28 354.993 23.9067 354.513 24.6 353.98C25.32 353.447 25.9867 352.953 26.6 352.5C27.2133 352.02 27.64 351.673 27.88 351.46C28.04 351.3 28.1067 351.167 28.08 351.06C28.08 350.953 27.9067 350.873 27.56 350.82C27.24 350.767 26.6533 350.74 25.8 350.74C25.0533 350.74 24.0667 350.833 22.84 351.02C21.6133 351.18 20.2 351.513 18.6 352.02L18.28 351.06ZM17.84 363.34C17.9467 363.82 18.0933 364.393 18.28 365.06C18.4667 365.727 18.68 366.287 18.92 366.74C19.3733 367.54 19.92 368.22 20.56 368.78C21.2 369.34 22.0267 369.767 23.04 370.06C24.0533 370.353 25.3333 370.5 26.88 370.5C28.24 370.5 29.3333 370.433 30.16 370.3C30.9867 370.167 31.64 370.047 32.12 369.94C32.6267 369.833 33.0267 369.78 33.32 369.78C33.6667 369.78 33.9867 369.833 34.28 369.94C34.5733 370.02 34.8133 370.153 35 370.34C35.2133 370.5 35.32 370.727 35.32 371.02C35.32 371.553 34.9733 371.98 34.28 372.3C33.5867 372.593 32.6667 372.807 31.52 372.94C30.3733 373.047 29.1067 373.1 27.72 373.1C25.7467 373.1 24.0533 372.873 22.64 372.42C21.2533 371.967 20.1333 371.287 19.28 370.38C18.4267 369.473 17.8133 368.353 17.44 367.02C17.28 366.433 17.16 365.847 17.08 365.26C17 364.647 16.96 364.06 16.96 363.5L17.84 363.34ZM6.76 346.02C7.37333 346.713 7.88 347.407 8.28 348.1C8.68 348.767 8.86667 349.447 8.84 350.14C8.81333 350.78 8.70667 351.473 8.52 352.22C8.33333 352.94 8.13333 353.767 7.92 354.7C7.73333 355.473 7.49333 356.38 7.2 357.42C6.90667 358.433 6.65333 359.567 6.44 360.82C6.22667 362.073 6.12 363.5 6.12 365.1C6.12 366.3 6.22667 367.473 6.44 368.62C6.68 369.74 6.96 370.767 7.28 371.7C7.62667 372.607 7.96 373.34 8.28 373.9C8.54667 374.3 8.82667 374.633 9.12 374.9C9.44 375.193 9.76 375.34 10.08 375.34C10.8267 375.34 11.2 374.94 11.2 374.14C11.2 373.687 11.08 373.153 10.84 372.54C10.6 371.927 10.48 371.34 10.48 370.78C10.48 370.433 10.5333 370.033 10.64 369.58C10.7733 369.127 10.92 368.593 11.08 367.98C11.2133 367.607 11.4 367.087 11.64 366.42C11.88 365.727 12.1467 364.98 12.44 364.18C12.7333 363.38 13.0267 362.607 13.32 361.86C13.6133 361.113 13.8533 360.487 14.04 359.98L13.12 359.54C12.9067 360.02 12.6267 360.66 12.28 361.46C11.96 362.26 11.6 363.087 11.2 363.94C10.8267 364.767 10.4667 365.54 10.12 366.26C9.8 366.953 9.53333 367.46 9.32 367.78C9.02667 368.313 8.74667 368.313 8.48 367.78C8.34667 367.513 8.21333 367.14 8.08 366.66C7.97333 366.18 7.92 365.42 7.92 364.38C7.92 362.433 8.2 360.62 8.76 358.94C9.32 357.26 9.82667 355.873 10.28 354.78C10.76 353.607 11.12 352.767 11.36 352.26C11.6267 351.727 11.76 351.247 11.76 350.82C11.76 350.26 11.6 349.713 11.28 349.18C10.9867 348.62 10.64 348.113 10.24 347.66C9.86667 347.207 9.54667 346.887 9.28 346.7C8.96 346.433 8.65333 346.207 8.36 346.02C8.09333 345.833 7.76 345.673 7.36 345.54L6.76 346.02ZM31.2 401.38C30.2133 401.38 29.2933 401.14 28.44 400.66C27.5867 400.153 26.9067 399.487 26.4 398.66C25.92 397.807 25.68 396.86 25.68 395.82C25.68 394.807 25.92 393.887 26.4 393.06C26.9067 392.233 27.5867 391.58 28.44 391.1C29.2933 390.593 30.2133 390.34 31.2 390.34C32.2133 390.34 33.1333 390.593 33.96 391.1C34.8133 391.58 35.48 392.233 35.96 393.06C36.4667 393.887 36.72 394.807 36.72 395.82C36.72 396.86 36.4667 397.807 35.96 398.66C35.48 399.487 34.8133 400.153 33.96 400.66C33.1333 401.14 32.2133 401.38 31.2 401.38ZM31.2 400.06C32.3733 400.06 33.36 399.647 34.16 398.82C34.9867 397.967 35.4 396.967 35.4 395.82C35.4 394.7 34.9867 393.727 34.16 392.9C33.36 392.073 32.3733 391.66 31.2 391.66C30.0533 391.66 29.0667 392.073 28.24 392.9C27.4133 393.727 27 394.7 27 395.82C27 396.967 27.4133 397.967 28.24 398.82C29.0667 399.647 30.0533 400.06 31.2 400.06Z" fill="black"/>
<path d="M92.52 59.14L92.92 58.26C93.6133 58.4733 94.3733 58.7267 95.2 59.02C96.0533 59.2867 96.8933 59.6067 97.72 59.98C98.5733 60.4067 99.2667 60.8467 99.8 61.3C100.333 61.7267 100.733 62.1667 101 62.62C101.267 63.0467 101.4 63.5133 101.4 64.02C101.4 64.3667 101.293 64.66 101.08 64.9C100.893 65.14 100.627 65.26 100.28 65.26C99.9333 65.26 99.5867 65.1133 99.24 64.82C98.92 64.5 98.5467 64.1 98.12 63.62C97.6933 63.1133 97.1467 62.58 96.48 62.02C95.84 61.4333 95.1467 60.8867 94.4 60.38C93.68 59.8733 93.0533 59.46 92.52 59.14ZM115.36 64.54L116.28 65.14C115.213 67.1133 113.92 69.02 112.4 70.86C110.907 72.6733 109.253 74.4067 107.44 76.06C105.653 77.7133 103.747 79.26 101.72 80.7C99.72 82.1133 97.6667 83.42 95.56 84.62C95.2933 84.8067 95.0667 85.02 94.88 85.26C94.6933 85.5 94.48 85.7133 94.24 85.9C94.0267 86.0867 93.7467 86.18 93.4 86.18C93.0267 86.18 92.5467 86.02 91.96 85.7C91.3733 85.38 90.8 84.9933 90.24 84.54C89.68 84.0867 89.2667 83.66 89 83.26C88.76 82.9133 88.5733 82.46 88.44 81.9C88.3067 81.34 88.2133 80.9133 88.16 80.62L88.8 80.22C89.12 80.6467 89.4667 81.06 89.84 81.46C90.24 81.86 90.64 82.1933 91.04 82.46C91.4667 82.7 91.88 82.82 92.28 82.82C92.7067 82.82 93.4 82.5933 94.36 82.14C95.3467 81.6867 96.52 81.06 97.88 80.26C99.24 79.4333 100.693 78.46 102.24 77.34C103.787 76.22 105.347 74.98 106.92 73.62C108.52 72.26 110.04 70.82 111.48 69.3C112.947 67.7533 114.24 66.1667 115.36 64.54ZM87.44 66.74L87.8 65.86C88.76 66.1 89.6267 66.3533 90.4 66.62C91.2 66.86 92.0133 67.1667 92.84 67.54C93.6133 67.86 94.28 68.2333 94.84 68.66C95.4 69.06 95.8267 69.5 96.12 69.98C96.44 70.4333 96.6 70.9133 96.6 71.42C96.6 71.6067 96.56 71.7933 96.48 71.98C96.4 72.1667 96.28 72.3267 96.12 72.46C95.96 72.5667 95.7467 72.62 95.48 72.62C95.08 72.62 94.72 72.4867 94.4 72.22C94.08 71.9533 93.72 71.5933 93.32 71.14C92.92 70.66 92.4 70.18 91.76 69.7C91.04 69.0867 90.3333 68.54 89.64 68.06C88.9467 67.58 88.2133 67.14 87.44 66.74ZM89.84 107.46C90.9067 107.78 92 108.18 93.12 108.66C94.24 109.14 95.2667 109.687 96.2 110.3C97.16 110.887 97.9333 111.527 98.52 112.22C99.1067 112.913 99.4 113.647 99.4 114.42C99.4 114.847 99.2667 115.193 99 115.46C98.76 115.727 98.4533 115.86 98.08 115.86C97.76 115.86 97.44 115.74 97.12 115.5C96.8267 115.26 96.44 114.833 95.96 114.22C95.5067 113.66 95.0667 113.14 94.64 112.66C94.2133 112.18 93.7467 111.713 93.24 111.26C92.7333 110.807 92.16 110.353 91.52 109.9C90.9067 109.42 90.1867 108.887 89.36 108.3L89.84 107.46ZM115.32 111.14L116.2 111.74C113.907 115.927 111.053 119.647 107.64 122.9C104.227 126.153 100.453 129.153 96.32 131.9C96.0533 132.06 95.8133 132.26 95.6 132.5C95.4133 132.74 95.2133 132.953 95 133.14C94.8133 133.3 94.5733 133.38 94.28 133.38C93.8 133.38 93.2533 133.207 92.64 132.86C92.0267 132.513 91.4533 132.1 90.92 131.62C90.4133 131.14 90.0267 130.713 89.76 130.34C89.5733 129.993 89.4 129.553 89.24 129.02C89.08 128.487 88.9867 128.073 88.96 127.78L89.56 127.34C89.9333 127.793 90.32 128.22 90.72 128.62C91.12 128.993 91.52 129.313 91.92 129.58C92.32 129.82 92.7333 129.94 93.16 129.94C93.64 129.94 94.3867 129.673 95.4 129.14C96.44 128.607 97.64 127.873 99 126.94C100.36 126.007 101.8 124.927 103.32 123.7C104.84 122.447 106.347 121.127 107.84 119.74C109.333 118.327 110.733 116.887 112.04 115.42C113.347 113.953 114.44 112.527 115.32 111.14ZM111.36 153.98C111.36 152.833 111.747 151.86 112.52 151.06C113.32 150.26 114.267 149.86 115.36 149.86C116.48 149.86 117.427 150.26 118.2 151.06C118.973 151.86 119.36 152.833 119.36 153.98C119.36 155.153 118.973 156.14 118.2 156.94C117.427 157.74 116.48 158.14 115.36 158.14C114.267 158.14 113.32 157.74 112.52 156.94C111.747 156.14 111.36 155.153 111.36 153.98ZM112.64 153.98C112.64 154.78 112.907 155.46 113.44 156.02C113.973 156.58 114.613 156.86 115.36 156.86C116.133 156.86 116.787 156.58 117.32 156.02C117.853 155.46 118.12 154.78 118.12 153.98C118.12 153.207 117.853 152.54 117.32 151.98C116.787 151.42 116.133 151.14 115.36 151.14C114.613 151.14 113.973 151.42 113.44 151.98C112.907 152.54 112.64 153.207 112.64 153.98ZM91.2 159.06C91.5467 159.06 92.1333 159.033 92.96 158.98C93.8133 158.927 94.7867 158.847 95.88 158.74C97 158.607 98.1467 158.487 99.32 158.38C100.493 158.247 101.627 158.113 102.72 157.98C103.813 157.847 104.747 157.727 105.52 157.62C106.32 157.513 106.88 157.433 107.2 157.38C107.52 157.3 107.773 157.207 107.96 157.1C108.173 156.967 108.347 156.847 108.48 156.74C108.64 156.607 108.827 156.54 109.04 156.54C109.333 156.54 109.693 156.66 110.12 156.9C110.547 157.14 110.973 157.447 111.4 157.82C111.853 158.193 112.227 158.567 112.52 158.94C112.813 159.313 112.96 159.633 112.96 159.9C112.96 160.193 112.867 160.46 112.68 160.7C112.493 160.94 112.267 161.193 112 161.46C111.733 161.7 111.507 162.033 111.32 162.46C110.013 165.713 108.36 168.7 106.36 171.42C104.36 174.14 101.96 176.553 99.16 178.66C96.36 180.767 93.0933 182.553 89.36 184.02L88.8 183.18C91.52 181.767 93.9867 180.193 96.2 178.46C98.4133 176.727 100.373 174.873 102.08 172.9C103.787 170.9 105.213 168.807 106.36 166.62C107.507 164.433 108.387 162.193 109 159.9C109.053 159.607 109.027 159.433 108.92 159.38C108.84 159.3 108.707 159.26 108.52 159.26C108.173 159.26 107.52 159.313 106.56 159.42C105.627 159.527 104.533 159.673 103.28 159.86C102.053 160.02 100.8 160.193 99.52 160.38C98.2667 160.567 97.1333 160.753 96.12 160.94C95.1067 161.1 94.3867 161.233 93.96 161.34C93.4533 161.447 92.9867 161.633 92.56 161.9C92.1333 162.14 91.7333 162.26 91.36 162.26C90.9867 162.26 90.56 162.1 90.08 161.78C89.6267 161.433 89.2133 161.033 88.84 160.58C88.4667 160.127 88.2133 159.74 88.08 159.42C87.9733 159.127 87.88 158.82 87.8 158.5C87.7467 158.153 87.7067 157.727 87.68 157.22L88.4 156.9C88.6933 157.353 89.0533 157.833 89.48 158.34C89.9333 158.82 90.5067 159.06 91.2 159.06ZM98.16 203.98C98.64 203.793 99.0667 203.673 99.44 203.62C99.8133 203.54 100.213 203.5 100.64 203.5C101.013 203.5 101.427 203.58 101.88 203.74C102.333 203.9 102.773 204.1 103.2 204.34C103.627 204.58 103.973 204.833 104.24 205.1C104.507 205.367 104.64 205.62 104.64 205.86C104.64 206.127 104.573 206.34 104.44 206.5C104.307 206.66 104.173 206.847 104.04 207.06C103.907 207.247 103.8 207.54 103.72 207.94C103.693 208.287 103.653 208.953 103.6 209.94C103.573 210.9 103.533 212.02 103.48 213.3C103.453 214.58 103.427 215.887 103.4 217.22C103.373 218.553 103.347 219.767 103.32 220.86C103.293 221.953 103.28 222.793 103.28 223.38C103.28 223.887 103.48 224.047 103.88 223.86C105.72 223.06 107.493 222.087 109.2 220.94C110.933 219.793 112.56 218.567 114.08 217.26C115.627 215.953 116.987 214.633 118.16 213.3L118.92 213.94C117.827 215.567 116.52 217.14 115 218.66C113.507 220.18 111.893 221.607 110.16 222.94C108.453 224.247 106.733 225.407 105 226.42C104.707 226.607 104.44 226.833 104.2 227.1C103.987 227.34 103.773 227.567 103.56 227.78C103.347 227.967 103.107 228.06 102.84 228.06C102.627 228.06 102.387 227.967 102.12 227.78C101.853 227.567 101.587 227.313 101.32 227.02C101.08 226.727 100.88 226.433 100.72 226.14C100.587 225.847 100.52 225.62 100.52 225.46C100.52 225.193 100.547 224.98 100.6 224.82C100.68 224.633 100.76 224.407 100.84 224.14C100.947 223.847 101.013 223.433 101.04 222.9C101.067 222.473 101.093 221.753 101.12 220.74C101.147 219.7 101.173 218.527 101.2 217.22C101.253 215.887 101.28 214.527 101.28 213.14C101.307 211.753 101.307 210.46 101.28 209.26C101.28 208.06 101.253 207.087 101.2 206.34C101.173 205.833 100.907 205.473 100.4 205.26C99.92 205.047 99.1867 204.9 98.2 204.82L98.16 203.98ZM90.72 209.02V208.22C91.0133 208.113 91.3467 208.02 91.72 207.94C92.12 207.86 92.5067 207.847 92.88 207.9C93.2267 207.927 93.6267 208.033 94.08 208.22C94.5333 208.407 94.9733 208.647 95.4 208.94C95.8533 209.207 96.2267 209.5 96.52 209.82C96.8133 210.14 96.96 210.433 96.96 210.7C96.96 211.1 96.8267 211.42 96.56 211.66C96.32 211.9 96.1467 212.273 96.04 212.78C95.6133 214.78 94.92 216.78 93.96 218.78C93.0267 220.78 91.76 222.7 90.16 224.54C88.5867 226.38 86.64 228.047 84.32 229.54L83.72 228.74C85.2133 227.513 86.56 226.127 87.76 224.58C88.9867 223.007 90.0267 221.407 90.88 219.78C91.76 218.127 92.4267 216.54 92.88 215.02C93.3333 213.473 93.56 212.113 93.56 210.94C93.56 210.513 93.3733 210.18 93 209.94C92.6533 209.7 92.2533 209.513 91.8 209.38C91.3733 209.22 91.0133 209.1 90.72 209.02ZM111 262.82C111.427 263.3 111.76 263.74 112 264.14C112.24 264.513 112.493 264.713 112.76 264.74C113.053 264.74 113.28 264.647 113.44 264.46C113.6 264.247 113.68 263.98 113.68 263.66C113.707 263.287 113.613 262.913 113.4 262.54C113.213 262.167 112.88 261.767 112.4 261.34C111.947 260.86 111.347 260.393 110.6 259.94C109.853 259.487 109.013 259.06 108.08 258.66L107.56 259.34C108.387 259.98 109.067 260.607 109.6 261.22C110.133 261.807 110.6 262.34 111 262.82ZM114.4 259.9C114.827 260.407 115.16 260.86 115.4 261.26C115.64 261.633 115.92 261.82 116.24 261.82C116.507 261.82 116.72 261.74 116.88 261.58C117.04 261.393 117.12 261.127 117.12 260.78C117.12 260.353 117.013 259.94 116.8 259.54C116.587 259.14 116.213 258.74 115.68 258.34C115.253 257.967 114.667 257.593 113.92 257.22C113.2 256.82 112.36 256.433 111.4 256.06L110.92 256.78C111.773 257.367 112.453 257.913 112.96 258.42C113.493 258.9 113.973 259.393 114.4 259.9ZM84.72 253.94C84.9867 254.447 85.3467 254.9 85.8 255.3C86.28 255.7 86.72 255.9 87.12 255.9C87.6267 255.9 88.4133 255.78 89.48 255.54C90.5733 255.273 91.84 254.953 93.28 254.58C94.7467 254.207 96.28 253.793 97.88 253.34C99.5067 252.887 101.107 252.487 102.68 252.14C104.12 251.767 105.4 251.473 106.52 251.26C107.667 251.02 108.627 250.847 109.4 250.74C110.2 250.607 110.827 250.54 111.28 250.54C111.76 250.54 112.24 250.567 112.72 250.62C113.227 250.673 113.627 250.793 113.92 250.98C114.373 251.167 114.68 251.367 114.84 251.58C115.027 251.793 115.12 252.047 115.12 252.34C115.12 252.607 115 252.847 114.76 253.06C114.52 253.247 114.2 253.34 113.8 253.34C113.427 253.34 112.96 253.327 112.4 253.3C111.867 253.247 111.253 253.22 110.56 253.22C109.627 253.22 108.56 253.313 107.36 253.5C106.187 253.687 105.133 254.087 104.2 254.7C103.747 254.967 103.213 255.407 102.6 256.02C101.987 256.633 101.373 257.447 100.76 258.46C100.173 259.447 99.68 260.673 99.28 262.14C98.88 263.58 98.68 265.287 98.68 267.26C98.68 268.673 98.84 269.847 99.16 270.78C99.48 271.687 99.8933 272.42 100.4 272.98C100.907 273.54 101.413 273.967 101.92 274.26C102.747 274.793 103.627 275.153 104.56 275.34C105.52 275.5 106.413 275.58 107.24 275.58C108.067 275.58 108.733 275.58 109.24 275.58C109.533 275.58 109.853 275.66 110.2 275.82C110.547 275.953 110.84 276.14 111.08 276.38C111.32 276.62 111.44 276.9 111.44 277.22C111.44 277.54 111.32 277.793 111.08 277.98C110.867 278.167 110.547 278.313 110.12 278.42C109.72 278.5 109.24 278.54 108.68 278.54C107.96 278.54 107.093 278.5 106.08 278.42C105.067 278.313 104.04 278.113 103 277.82C101.96 277.5 101.013 277.007 100.16 276.34C98.96 275.433 98.0533 274.327 97.44 273.02C96.8267 271.713 96.52 269.94 96.52 267.7C96.52 266.153 96.6933 264.58 97.04 262.98C97.3867 261.38 97.9733 259.847 98.8 258.38C99.6533 256.887 100.8 255.553 102.24 254.38C102.347 254.273 102.387 254.193 102.36 254.14C102.333 254.06 102.213 254.047 102 254.1C100.587 254.447 99.1067 254.86 97.56 255.34C96.0133 255.82 94.5733 256.3 93.24 256.78C91.9067 257.26 90.8533 257.7 90.08 258.1C89.7333 258.26 89.36 258.46 88.96 258.7C88.5867 258.94 88.2 259.06 87.8 259.06C87.4533 259.06 87.08 258.967 86.68 258.78C86.3067 258.593 85.9333 258.353 85.56 258.06C85.2133 257.74 84.9067 257.407 84.64 257.06C84.4 256.687 84.24 256.327 84.16 255.98C84.08 255.66 84.04 255.353 84.04 255.06C84.0667 254.767 84.0667 254.473 84.04 254.18L84.72 253.94ZM115.72 303.18C115.32 303.18 114.987 303.06 114.72 302.82C114.453 302.553 114.187 302.127 113.92 301.54C113.547 300.687 113.093 299.86 112.56 299.06C112.053 298.233 111.427 297.433 110.68 296.66C109.96 295.86 109.04 295.06 107.92 294.26L108.4 293.58C110.613 294.3 112.333 295.127 113.56 296.06C114.813 296.993 115.76 297.927 116.4 298.86C116.72 299.34 116.933 299.78 117.04 300.18C117.173 300.58 117.24 300.993 117.24 301.42C117.24 301.98 117.093 302.42 116.8 302.74C116.533 303.033 116.173 303.18 115.72 303.18Z" fill="black"/>
</svg>
