<svg width="187" height="56" viewBox="0 0 187 56" fill="none" xmlns="http://www.w3.org/2000/svg">
<path d="M12.248 43.256C7.34133 44.3227 4.88799 46.072 4.88799 48.504C4.88799 49.9547 5.80533 51.064 7.63999 51.832C9.55999 52.5573 12.248 52.92 15.704 52.92C16.8133 52.92 17.8373 52.856 18.776 52.728C19.7573 52.6427 20.6533 52.472 21.464 52.216C21.72 52.1307 21.976 52.024 22.232 51.896C22.488 51.8107 22.7227 51.7253 22.936 51.64C24.856 50.872 25.816 49.8907 25.816 48.696C25.816 47.8427 25.3893 47.1387 24.536 46.584C23.6827 46.0293 22.0827 45.4533 19.736 44.856C18.7973 44.6427 17.688 44.408 16.408 44.152C15.1707 43.896 13.784 43.5973 12.248 43.256ZM31.32 17.784C31.32 19.4053 30.616 20.216 29.208 20.216C28.6107 20.216 28.0347 20.0027 27.48 19.576C27.1813 19.4053 26.904 19.2773 26.648 19.192C26.392 19.064 26.136 19 25.88 19C25.6667 19 25.5387 19.0213 25.496 19.064C25.1547 19.1067 24.8133 19.3413 24.472 19.768C25.7093 21.3893 26.328 23.416 26.328 25.848C26.328 28.7067 25.2613 31.096 23.128 33.016C20.952 34.936 18.136 35.896 14.68 35.896C13.6987 35.896 12.824 35.8533 12.056 35.768C11.288 35.6827 10.6053 35.576 10.008 35.448C8.17333 35.832 7.25599 36.4293 7.25599 37.24C7.25599 38.0507 8.00266 38.6267 9.49599 38.968C9.92266 39.0533 10.3493 39.1387 10.776 39.224C11.2027 39.2667 11.608 39.3307 11.992 39.416C13.9547 39.8427 15.704 40.2267 17.24 40.568C18.776 40.9093 20.1413 41.2293 21.336 41.528C22.5307 41.8267 23.576 42.1467 24.472 42.488C25.4107 42.7867 26.2 43.1493 26.84 43.576C28.7173 44.6853 29.656 46.0933 29.656 47.8C29.656 52.7067 24.6853 55.16 14.744 55.16C5.44266 55.16 0.791992 52.984 0.791992 48.632C0.791992 47.352 1.64533 46.072 3.35199 44.792C4.11999 44.1947 4.95199 43.704 5.84799 43.32C6.74399 42.936 7.70399 42.6373 8.72799 42.424C5.01599 41.4853 3.15999 40.12 3.15999 38.328C3.15999 36.5787 4.61066 35.2133 7.51199 34.232C4.52533 32.312 3.03199 29.4747 3.03199 25.72C3.03199 22.8613 4.14133 20.472 6.35999 18.552C8.57866 16.5893 11.352 15.608 14.68 15.608C18.2213 15.608 20.9733 16.3973 22.936 17.976C24.344 16.312 26.0293 15.48 27.992 15.48C30.2107 15.48 31.32 16.248 31.32 17.784ZM22.36 25.848C22.36 24.696 22.168 23.6507 21.784 22.712C21.4 21.7307 20.8667 20.8987 20.184 20.216C19.5013 19.4907 18.6907 18.936 17.752 18.552C16.8133 18.1253 15.8107 17.912 14.744 17.912C12.44 17.912 10.584 18.6373 9.17599 20.088C7.81066 21.5387 7.12799 23.416 7.12799 25.72C7.12799 27.9813 7.83199 29.816 9.23999 31.224C10.6907 32.8027 12.5253 33.592 14.744 33.592C16.8773 33.592 18.6693 32.8667 20.12 31.416C21.6133 29.9227 22.36 28.0667 22.36 25.848Z" fill="black"/>
<path d="M39.1635 17.464C41.7235 16.2693 44.6675 15.672 47.9955 15.672C50.6835 15.672 52.8595 16.376 54.5235 17.784C56.3155 19.4053 57.2115 21.6667 57.2115 24.568V41.144C57.2115 41.3573 57.2115 41.6133 57.2115 41.912C57.2542 42.2107 57.2968 42.5093 57.3395 42.808C57.4248 43.1067 57.5315 43.3627 57.6595 43.576C57.8302 43.7893 58.0222 43.896 58.2355 43.896C58.8755 43.896 59.7928 43.4267 60.9875 42.488L61.7555 43.448C59.8782 45.7094 58.2142 46.84 56.7635 46.84C54.8862 46.84 53.7555 45.6453 53.3715 43.256C50.7262 45.6453 47.3555 46.84 43.2595 46.84C41.8515 46.84 40.5715 46.6907 39.4195 46.392C38.3102 46.0933 37.3715 45.624 36.6035 44.984C35.0248 43.6613 34.2355 41.8053 34.2355 39.416C34.2355 37.624 34.8328 36.024 36.0275 34.616C37.2648 33.1653 38.8435 31.9707 40.7635 31.032C44.0488 29.3253 48.2302 28.152 53.3075 27.512V23.544C53.3075 21.88 52.7955 20.536 51.7715 19.512C51.1742 18.9147 50.4702 18.488 49.6595 18.232C48.8915 17.976 48.0595 17.848 47.1635 17.848C45.4568 17.848 44.0062 18.1893 42.8115 18.872C42.0862 19.3413 41.5102 19.8107 41.0835 20.28C40.6568 20.7067 40.4435 21.1973 40.4435 21.752V22.072C40.4435 24.1627 39.5262 25.208 37.6915 25.208C36.0275 25.208 35.1955 24.248 35.1955 22.328C35.1955 20.3227 36.5182 18.7013 39.1635 17.464ZM53.3075 29.944C49.5528 30.328 46.0755 31.3947 42.8755 33.144C39.9742 34.7653 38.5235 36.8347 38.5235 39.352C38.5235 40.7173 39.0782 41.8267 40.1875 42.68C41.2968 43.4907 42.6835 43.896 44.3475 43.896C45.8835 43.896 47.4835 43.5973 49.1475 43C50.5128 42.5307 51.8995 41.72 53.3075 40.568V29.944Z" fill="black"/>
<path d="M77.0265 45.752H64.7385V43.704C66.4025 43.704 67.5332 43.4693 68.1305 43C68.6425 42.5733 68.8985 41.656 68.8985 40.248V6.90401C68.8985 6.17868 68.6425 5.66668 68.1305 5.36802C67.6185 5.02668 66.5305 4.85601 64.8665 4.85601L64.4825 3.32001C65.8478 2.80801 67.2345 2.31735 68.6425 1.84801C70.0505 1.33601 71.4372 0.824013 72.8025 0.312012V40.248C72.8025 41.5707 73.0372 42.4667 73.5065 42.936C73.8478 43.1493 74.2958 43.32 74.8505 43.448C75.4478 43.6187 76.1732 43.704 77.0265 43.704V45.752Z" fill="black"/>
<path d="M93.339 45.752H81.051V43.704C82.715 43.704 83.8457 43.4693 84.443 43C84.955 42.5733 85.211 41.656 85.211 40.248V6.90401C85.211 6.17868 84.955 5.66668 84.443 5.36802C83.931 5.02668 82.843 4.85601 81.179 4.85601L80.795 3.32001C82.1603 2.80801 83.547 2.31735 84.955 1.84801C86.363 1.33601 87.7497 0.824013 89.115 0.312012V40.248C89.115 41.5707 89.3497 42.4667 89.819 42.936C90.1603 43.1493 90.6083 43.32 91.163 43.448C91.7603 43.6187 92.4857 43.704 93.339 43.704V45.752Z" fill="black"/>
<path d="M123.667 38.072C123.881 38.2427 124.094 38.4133 124.307 38.584C124.563 38.7547 124.798 38.9253 125.011 39.096C123.987 40.632 122.857 41.912 121.619 42.936C120.382 43.96 119.059 44.8133 117.651 45.496C115.731 46.4347 113.662 46.904 111.443 46.904C107.219 46.904 103.763 45.56 101.075 42.872C98.2168 40.0134 96.7875 36.152 96.7875 31.288C96.7875 26.5947 98.1528 22.8187 100.883 19.96C103.571 17.016 106.985 15.544 111.123 15.544C115.262 15.544 118.526 16.7387 120.915 19.128C123.475 21.56 124.755 25.08 124.755 29.688C120.787 29.816 116.883 29.9653 113.043 30.136C109.203 30.264 105.278 30.392 101.267 30.52C101.267 30.6907 101.246 30.8613 101.203 31.032C101.203 31.16 101.203 31.3093 101.203 31.48C101.203 33.272 101.438 34.8934 101.907 36.344C102.419 37.7947 103.145 39.096 104.083 40.248C106.046 42.808 108.798 44.088 112.339 44.088C114.217 44.088 116.179 43.5973 118.227 42.616C119.166 42.0613 120.083 41.4213 120.979 40.696C121.918 39.928 122.814 39.0533 123.667 38.072ZM101.395 28.088C104.595 28.0027 107.753 27.896 110.867 27.768C113.982 27.64 117.139 27.5333 120.339 27.448C120.297 24.632 119.422 22.3707 117.715 20.664C115.966 18.7867 113.769 17.848 111.123 17.848C108.563 17.848 106.323 18.872 104.403 20.92C102.611 22.7973 101.609 25.1867 101.395 28.088Z" fill="black"/>
<path d="M152.097 18.424C152.097 20.6427 151.116 21.752 149.153 21.752C148.342 21.752 147.446 21.3893 146.465 20.664C145.74 20.0667 144.95 19.768 144.097 19.768C142.988 19.768 141.601 20.408 139.937 21.688C138.614 22.712 137.334 23.8853 136.097 25.208V40.696C136.097 41.8907 136.31 42.68 136.737 43.064C137.206 43.4907 138.38 43.704 140.257 43.704V45.752H128.097V43.704C129.206 43.704 130.06 43.6187 130.657 43.448C131.254 43.2774 131.66 43.0213 131.873 42.68C132.086 42.3387 132.193 41.8054 132.193 41.08V22.392C132.193 21.5387 132.044 20.9627 131.745 20.664C131.574 20.4933 131.212 20.3013 130.657 20.088C130.06 19.96 129.334 19.896 128.481 19.896C128.396 19.6827 128.332 19.4693 128.289 19.256C128.246 19.0427 128.182 18.8293 128.097 18.616C129.462 18.0613 130.806 17.528 132.129 17.016C133.452 16.4613 134.774 15.9067 136.097 15.352V21.944C137.121 20.9627 138.145 20.0667 139.169 19.256C140.193 18.4453 141.196 17.7627 142.177 17.208C144.31 15.9707 146.38 15.352 148.385 15.352C150.86 15.352 152.097 16.376 152.097 18.424Z" fill="black"/>
<path d="M168.803 43.512L157.987 20.28C157.561 19.4693 157.113 18.936 156.643 18.68C156.387 18.552 156.046 18.4453 155.619 18.36C155.193 18.2747 154.531 18.232 153.635 18.232V16.12H165.859V18.232C164.75 18.232 163.939 18.2533 163.427 18.296C162.915 18.3387 162.574 18.488 162.403 18.744C162.19 19.0427 162.169 19.4693 162.339 20.024C162.51 20.536 162.723 21.0693 162.979 21.624L170.787 38.328L177.699 22.328C178.169 21.2187 178.403 20.4293 178.403 19.96C178.403 19.4907 178.297 19.128 178.083 18.872C177.87 18.6587 177.571 18.5093 177.188 18.424C176.803 18.296 176.121 18.232 175.139 18.232V16.12H186.211V18.232C184.462 18.232 183.225 18.4667 182.499 18.936C181.603 19.4907 180.814 20.6 180.132 22.264L169.187 47.992C167.95 50.808 166.691 52.728 165.411 53.752C164.259 54.648 162.787 55.096 160.995 55.096C160.441 55.096 159.907 55.0107 159.395 54.84C158.883 54.712 158.393 54.4774 157.923 54.136C156.899 53.368 156.387 52.3867 156.387 51.192C156.387 49.1013 157.283 48.056 159.075 48.056C160.995 48.056 161.955 48.888 161.955 50.552C161.955 51.192 162.147 51.5973 162.531 51.768C162.787 51.896 163.043 51.96 163.299 51.96C163.641 51.96 163.982 51.832 164.323 51.576C165.219 50.8933 166.329 49.1013 167.651 46.2L168.803 43.512Z" fill="black"/>
</svg>
