<svg width="1280" height="134" viewBox="0 0 1280 134" fill="none" xmlns="http://www.w3.org/2000/svg">
<path d="M157.938 65.224C157.938 70.0027 156.573 73.8213 153.842 76.68C151.24 79.5387 147.912 80.968 143.858 80.968C139.762 80.968 136.413 79.5387 133.81 76.68C131.08 73.8213 129.714 70.0027 129.714 65.224C129.714 60.4453 131.08 56.6267 133.81 53.768C136.413 50.9093 139.762 49.48 143.858 49.48C147.912 49.48 151.24 50.9093 153.842 53.768C156.573 56.6267 157.938 60.4453 157.938 65.224ZM153.586 65.224C153.586 61.2987 152.648 58.0773 150.77 55.56C149.021 53.0427 146.717 51.784 143.858 51.784C141.042 51.784 138.696 53.0427 136.818 55.56C134.984 58.0773 134.066 61.2987 134.066 65.224C134.066 69.1067 134.962 72.328 136.754 74.888C138.589 77.3627 140.957 78.6 143.858 78.6C146.632 78.6 148.936 77.3627 150.77 74.888C152.648 72.3707 153.586 69.1493 153.586 65.224ZM192.378 52.168C190.671 52.168 189.498 52.3173 188.858 52.616C188.218 52.9147 187.748 53.4267 187.45 54.152V54.344L186.298 57.032C184.762 61.0427 183.204 64.9893 181.626 68.872C180.09 72.7547 178.554 76.68 177.018 80.648H175.546C173.754 76.296 171.962 71.9867 170.17 67.72C168.42 63.4533 166.65 59.1227 164.858 54.728V54.152C164.474 53.4267 163.962 52.9147 163.322 52.616C162.724 52.3173 161.722 52.168 160.314 52.168V50.12H173.178V52.168C170.746 52.168 169.338 52.4027 168.954 52.872C168.74 53.0853 168.634 53.3413 168.634 53.64C168.634 53.8107 168.698 54.024 168.826 54.28L177.018 74.248C178.17 71.304 179.3 68.3813 180.41 65.48C181.562 62.5787 182.714 59.656 183.866 56.712C184.079 56.2853 184.25 55.88 184.378 55.496C184.548 55.0693 184.74 54.6427 184.954 54.216C185.039 53.8747 185.082 53.6827 185.082 53.64C185.082 53.4693 185.06 53.3627 185.018 53.32C184.89 52.9787 184.655 52.7013 184.314 52.488C183.674 52.232 182.522 52.104 180.858 52.104V50.12H192.378V52.168ZM221.591 72.072C221.805 72.2427 222.018 72.4133 222.231 72.584C222.487 72.7547 222.722 72.9253 222.935 73.096C221.911 74.632 220.781 75.912 219.543 76.936C218.306 77.96 216.983 78.8133 215.575 79.496C213.655 80.4347 211.586 80.904 209.367 80.904C205.143 80.904 201.687 79.56 198.999 76.872C196.141 74.0133 194.711 70.152 194.711 65.288C194.711 60.5947 196.077 56.8187 198.807 53.96C201.495 51.016 204.909 49.544 209.047 49.544C213.186 49.544 216.45 50.7387 218.839 53.128C221.399 55.56 222.679 59.08 222.679 63.688C218.711 63.816 214.807 63.9653 210.967 64.136C207.127 64.264 203.202 64.392 199.191 64.52C199.191 64.6907 199.17 64.8613 199.127 65.032C199.127 65.16 199.127 65.3093 199.127 65.48C199.127 67.272 199.362 68.8933 199.831 70.344C200.343 71.7947 201.069 73.096 202.007 74.248C203.97 76.808 206.722 78.088 210.263 78.088C212.141 78.088 214.103 77.5973 216.151 76.616C217.09 76.0613 218.007 75.4213 218.903 74.696C219.842 73.928 220.738 73.0533 221.591 72.072ZM199.319 62.088C202.519 62.0027 205.677 61.896 208.791 61.768C211.906 61.64 215.063 61.5333 218.263 61.448C218.221 58.632 217.346 56.3707 215.639 54.664C213.89 52.7867 211.693 51.848 209.047 51.848C206.487 51.848 204.247 52.872 202.327 54.92C200.535 56.7973 199.533 59.1867 199.319 62.088ZM250.021 52.424C250.021 54.6427 249.039 55.752 247.077 55.752C246.266 55.752 245.37 55.3893 244.389 54.664C243.663 54.0667 242.874 53.768 242.021 53.768C240.911 53.768 239.525 54.408 237.861 55.688C236.538 56.712 235.258 57.8853 234.021 59.208V74.696C234.021 75.8907 234.234 76.68 234.661 77.064C235.13 77.4907 236.303 77.704 238.181 77.704V79.752H226.021V77.704C227.13 77.704 227.983 77.6187 228.581 77.448C229.178 77.2773 229.583 77.0213 229.797 76.68C230.01 76.3387 230.117 75.8053 230.117 75.08V56.392C230.117 55.5387 229.967 54.9627 229.669 54.664C229.498 54.4933 229.135 54.3013 228.581 54.088C227.983 53.96 227.258 53.896 226.405 53.896C226.319 53.6827 226.255 53.4693 226.213 53.256C226.17 53.0427 226.106 52.8293 226.021 52.616C227.386 52.0613 228.73 51.528 230.053 51.016C231.375 50.4613 232.698 49.9067 234.021 49.352V55.944C235.045 54.9627 236.069 54.0667 237.093 53.256C238.117 52.4453 239.119 51.7627 240.101 51.208C242.234 49.9707 244.303 49.352 246.309 49.352C248.783 49.352 250.021 50.376 250.021 52.424ZM283.815 52.168C282.109 52.168 280.935 52.3173 280.295 52.616C279.655 52.9147 279.186 53.4267 278.887 54.152V54.344L277.735 57.032C276.199 61.0427 274.642 64.9893 273.063 68.872C271.527 72.7547 269.991 76.68 268.455 80.648H266.983C265.191 76.296 263.399 71.9867 261.607 67.72C259.858 63.4533 258.087 59.1227 256.295 54.728V54.152C255.911 53.4267 255.399 52.9147 254.759 52.616C254.162 52.3173 253.159 52.168 251.751 52.168V50.12H264.615V52.168C262.183 52.168 260.775 52.4027 260.391 52.872C260.178 53.0853 260.071 53.3413 260.071 53.64C260.071 53.8107 260.135 54.024 260.263 54.28L268.455 74.248C269.607 71.304 270.738 68.3813 271.847 65.48C272.999 62.5787 274.151 59.656 275.303 56.712C275.517 56.2853 275.687 55.88 275.815 55.496C275.986 55.0693 276.178 54.6427 276.391 54.216C276.477 53.8747 276.519 53.6827 276.519 53.64C276.519 53.4693 276.498 53.3627 276.455 53.32C276.327 52.9787 276.093 52.7013 275.751 52.488C275.111 52.232 273.959 52.104 272.295 52.104V50.12H283.815V52.168ZM296.133 37.448C296.133 38.472 295.791 39.3253 295.109 40.008C294.426 40.6907 293.573 41.032 292.549 41.032C291.61 41.032 290.821 40.6907 290.181 40.008C289.583 39.3253 289.285 38.472 289.285 37.448C289.285 36.424 289.605 35.5707 290.245 34.888C290.885 34.2053 291.653 33.864 292.549 33.864C293.573 33.864 294.426 34.2053 295.109 34.888C295.791 35.5707 296.133 36.424 296.133 37.448ZM299.141 79.816H287.173V77.704C288.922 77.704 290.053 77.448 290.565 76.936C290.991 76.552 291.205 75.848 291.205 74.824V56.392C291.205 55.4533 291.013 54.8133 290.629 54.472C290.159 54.088 289.029 53.896 287.237 53.896L286.981 52.488L295.109 49.416V74.824C295.109 76.0187 295.301 76.7653 295.685 77.064C296.239 77.4907 297.391 77.704 299.141 77.704V79.816ZM329.154 72.072C329.367 72.2427 329.58 72.4133 329.794 72.584C330.05 72.7547 330.284 72.9253 330.498 73.096C329.474 74.632 328.343 75.912 327.106 76.936C325.868 77.96 324.546 78.8133 323.138 79.496C321.218 80.4347 319.148 80.904 316.93 80.904C312.706 80.904 309.25 79.56 306.562 76.872C303.703 74.0133 302.274 70.152 302.274 65.288C302.274 60.5947 303.639 56.8187 306.37 53.96C309.058 51.016 312.471 49.544 316.61 49.544C320.748 49.544 324.012 50.7387 326.402 53.128C328.962 55.56 330.242 59.08 330.242 63.688C326.274 63.816 322.37 63.9653 318.53 64.136C314.69 64.264 310.764 64.392 306.754 64.52C306.754 64.6907 306.732 64.8613 306.69 65.032C306.69 65.16 306.69 65.3093 306.69 65.48C306.69 67.272 306.924 68.8933 307.394 70.344C307.906 71.7947 308.631 73.096 309.57 74.248C311.532 76.808 314.284 78.088 317.826 78.088C319.703 78.088 321.666 77.5973 323.714 76.616C324.652 76.0613 325.57 75.4213 326.466 74.696C327.404 73.928 328.3 73.0533 329.154 72.072ZM306.882 62.088C310.082 62.0027 313.239 61.896 316.354 61.768C319.468 61.64 322.626 61.5333 325.826 61.448C325.783 58.632 324.908 56.3707 323.202 54.664C321.452 52.7867 319.255 51.848 316.61 51.848C314.05 51.848 311.81 52.872 309.89 54.92C308.098 56.7973 307.095 59.1867 306.882 62.088ZM363.791 80.648C362.511 77.448 361.21 74.2267 359.887 70.984C358.607 67.7413 357.327 64.4987 356.047 61.256C354.81 64.4987 353.573 67.7413 352.335 70.984C351.098 74.2267 349.861 77.448 348.623 80.648H347.215C345.509 76.2533 343.802 71.9227 342.095 67.656C340.431 63.3467 338.746 58.9947 337.039 54.6C336.741 53.6613 336.314 53.0427 335.759 52.744C335.034 52.36 333.967 52.168 332.559 52.168V50.12H345.231V52.168C343.525 52.168 342.373 52.2747 341.775 52.488C341.221 52.6587 340.943 52.9147 340.943 53.256C340.943 53.4267 341.007 53.64 341.135 53.896C341.349 54.3227 341.519 54.7493 341.647 55.176C341.818 55.56 342.01 55.9653 342.223 56.392C343.333 59.2507 344.421 62.088 345.487 64.904C346.554 67.6773 347.621 70.4933 348.687 73.352C349.711 70.664 350.714 68.0613 351.695 65.544C352.677 62.984 353.679 60.36 354.703 57.672C354.49 57.2027 354.277 56.7333 354.063 56.264C353.893 55.7947 353.701 55.3253 353.487 54.856C353.061 53.6613 352.57 52.9147 352.015 52.616C351.546 52.36 350.65 52.232 349.327 52.232V50.12H361.807V52.168C359.546 52.168 358.117 52.4027 357.519 52.872C357.306 53.0853 357.199 53.32 357.199 53.576C357.199 53.6187 357.242 53.8107 357.327 54.152L365.199 73.736C366.351 70.4933 367.482 67.2507 368.591 64.008C369.743 60.7653 370.895 57.5227 372.047 54.28C372.133 53.9387 372.175 53.7253 372.175 53.64C372.175 53.384 372.09 53.1493 371.919 52.936C371.45 52.424 370.17 52.168 368.079 52.168V50.12H379.151V52.168C377.445 52.168 376.271 52.36 375.631 52.744C375.162 53.0427 374.757 53.6187 374.415 54.472C372.922 58.8667 371.407 63.24 369.871 67.592C368.378 71.9013 366.885 76.2533 365.391 80.648H363.791Z" fill="black"/>
<line x1="443.986" y1="66.5" x2="1356.01" y2="66.5" stroke="black"/>
</svg>
