<svg width="1280" height="134" viewBox="0 0 1280 134" fill="none" xmlns="http://www.w3.org/2000/svg">
<path d="M158.898 64.968C158.898 69.7467 157.554 73.544 154.866 76.36C152.349 78.92 149.277 80.2 145.65 80.2C142.024 80.2 139.229 79.3467 137.266 77.64V84.04C137.266 85.1493 137.565 85.96 138.162 86.472C138.888 87.0267 139.954 87.304 141.362 87.304V89.416H129.202V87.304C130.909 87.304 132.061 87.0267 132.658 86.472C133.085 86.0453 133.298 85.2347 133.298 84.04V56.456C133.298 56.2427 133.256 55.9227 133.17 55.496C133.128 55.1547 133 54.8773 132.786 54.664C132.36 54.2373 131.25 54.024 129.458 54.024C129.416 53.8107 129.373 53.576 129.33 53.32C129.33 53.064 129.309 52.8293 129.266 52.616C130.632 52.1467 131.976 51.6773 133.298 51.208C134.621 50.696 135.944 50.2053 137.266 49.736V52.296C139.485 50.5893 142.344 49.736 145.842 49.736C149.64 49.736 152.733 51.0587 155.122 53.704C157.64 56.6053 158.898 60.36 158.898 64.968ZM154.61 65.032C154.61 61.32 153.65 58.312 151.73 56.008C149.853 53.6187 147.421 52.424 144.434 52.424C141.448 52.424 139.058 53.384 137.266 55.304V74.44C139.058 76.488 141.448 77.512 144.434 77.512C147.25 77.512 149.618 76.36 151.538 74.056C153.586 71.624 154.61 68.616 154.61 65.032ZM186.083 52.424C186.083 54.6427 185.102 55.752 183.139 55.752C182.329 55.752 181.433 55.3893 180.451 54.664C179.726 54.0667 178.937 53.768 178.083 53.768C176.974 53.768 175.587 54.408 173.923 55.688C172.601 56.712 171.321 57.8853 170.083 59.208V74.696C170.083 75.8907 170.297 76.68 170.723 77.064C171.193 77.4907 172.366 77.704 174.243 77.704V79.752H162.083V77.704C163.193 77.704 164.046 77.6187 164.643 77.448C165.241 77.2773 165.646 77.0213 165.859 76.68C166.073 76.3387 166.179 75.8053 166.179 75.08V56.392C166.179 55.5387 166.03 54.9627 165.731 54.664C165.561 54.4933 165.198 54.3013 164.643 54.088C164.046 53.96 163.321 53.896 162.467 53.896C162.382 53.6827 162.318 53.4693 162.275 53.256C162.233 53.0427 162.169 52.8293 162.083 52.616C163.449 52.0613 164.793 51.528 166.115 51.016C167.438 50.4613 168.761 49.9067 170.083 49.352V55.944C171.107 54.9627 172.131 54.0667 173.155 53.256C174.179 52.4453 175.182 51.7627 176.163 51.208C178.297 49.9707 180.366 49.352 182.371 49.352C184.846 49.352 186.083 50.376 186.083 52.424ZM217.126 65.224C217.126 70.0027 215.76 73.8213 213.03 76.68C210.427 79.5387 207.099 80.968 203.046 80.968C198.95 80.968 195.6 79.5387 192.998 76.68C190.267 73.8213 188.902 70.0027 188.902 65.224C188.902 60.4453 190.267 56.6267 192.998 53.768C195.6 50.9093 198.95 49.48 203.046 49.48C207.099 49.48 210.427 50.9093 213.03 53.768C215.76 56.6267 217.126 60.4453 217.126 65.224ZM212.774 65.224C212.774 61.2987 211.835 58.0773 209.958 55.56C208.208 53.0427 205.904 51.784 203.046 51.784C200.23 51.784 197.883 53.0427 196.006 55.56C194.171 58.0773 193.254 61.2987 193.254 65.224C193.254 69.1067 194.15 72.328 195.942 74.888C197.776 77.3627 200.144 78.6 203.046 78.6C205.819 78.6 208.123 77.3627 209.958 74.888C211.835 72.3707 212.774 69.1493 212.774 65.224ZM237.485 39.816C236.547 39.816 235.651 39.5173 234.797 38.92C234.2 38.4933 233.752 38.2587 233.453 38.216C233.155 38.1307 232.835 38.088 232.493 38.088C231.683 38.088 230.979 38.8987 230.381 40.52C230.168 41.0747 230.04 41.6507 229.997 42.248C229.955 42.8453 229.933 43.4853 229.933 44.168V50.632H236.909V53.064H229.933V74.312C229.933 75.976 230.595 77 231.917 77.384C232.771 77.5973 234.2 77.704 236.205 77.704V79.752H220.717V77.704C221.827 77.704 222.723 77.64 223.405 77.512C224.088 77.384 224.621 77.2133 225.005 77C225.389 76.7867 225.645 76.4667 225.773 76.04C225.901 75.5707 225.965 74.9947 225.965 74.312V53.064H220.781V50.632H225.965V46.664C225.965 43.336 226.84 40.4773 228.589 38.088C230.552 35.4 233.048 34.056 236.077 34.056C237.187 34.056 238.104 34.312 238.829 34.824C239.64 35.3787 240.045 36.1893 240.045 37.256C240.045 37.9813 239.768 38.6 239.213 39.112C238.659 39.5813 238.083 39.816 237.485 39.816ZM252.258 37.448C252.258 38.472 251.916 39.3253 251.234 40.008C250.551 40.6907 249.698 41.032 248.674 41.032C247.735 41.032 246.946 40.6907 246.306 40.008C245.708 39.3253 245.41 38.472 245.41 37.448C245.41 36.424 245.73 35.5707 246.37 34.888C247.01 34.2053 247.778 33.864 248.674 33.864C249.698 33.864 250.551 34.2053 251.234 34.888C251.916 35.5707 252.258 36.424 252.258 37.448ZM255.266 79.816H243.298V77.704C245.047 77.704 246.178 77.448 246.69 76.936C247.116 76.552 247.33 75.848 247.33 74.824V56.392C247.33 55.4533 247.138 54.8133 246.754 54.472C246.284 54.088 245.154 53.896 243.362 53.896L243.106 52.488L251.234 49.416V74.824C251.234 76.0187 251.426 76.7653 251.81 77.064C252.364 77.4907 253.516 77.704 255.266 77.704V79.816ZM271.263 79.752H258.975V77.704C260.639 77.704 261.769 77.4693 262.367 77C262.879 76.5733 263.135 75.656 263.135 74.248V40.904C263.135 40.1787 262.879 39.6667 262.367 39.368C261.855 39.0267 260.767 38.856 259.103 38.856L258.719 37.32C260.084 36.808 261.471 36.3173 262.879 35.848C264.287 35.336 265.673 34.824 267.039 34.312V74.248C267.039 75.5707 267.273 76.4667 267.743 76.936C268.084 77.1493 268.532 77.32 269.087 77.448C269.684 77.6187 270.409 77.704 271.263 77.704V79.752ZM301.591 72.072C301.805 72.2427 302.018 72.4133 302.231 72.584C302.487 72.7547 302.722 72.9253 302.935 73.096C301.911 74.632 300.781 75.912 299.543 76.936C298.306 77.96 296.983 78.8133 295.575 79.496C293.655 80.4347 291.586 80.904 289.367 80.904C285.143 80.904 281.687 79.56 278.999 76.872C276.141 74.0133 274.711 70.152 274.711 65.288C274.711 60.5947 276.077 56.8187 278.807 53.96C281.495 51.016 284.909 49.544 289.047 49.544C293.186 49.544 296.45 50.7387 298.839 53.128C301.399 55.56 302.679 59.08 302.679 63.688C298.711 63.816 294.807 63.9653 290.967 64.136C287.127 64.264 283.202 64.392 279.191 64.52C279.191 64.6907 279.17 64.8613 279.127 65.032C279.127 65.16 279.127 65.3093 279.127 65.48C279.127 67.272 279.362 68.8933 279.831 70.344C280.343 71.7947 281.069 73.096 282.007 74.248C283.97 76.808 286.722 78.088 290.263 78.088C292.141 78.088 294.103 77.5973 296.151 76.616C297.09 76.0613 298.007 75.4213 298.903 74.696C299.842 73.928 300.738 73.0533 301.591 72.072ZM279.319 62.088C282.519 62.0027 285.677 61.896 288.791 61.768C291.906 61.64 295.063 61.5333 298.263 61.448C298.221 58.632 297.346 56.3707 295.639 54.664C293.89 52.7867 291.693 51.848 289.047 51.848C286.487 51.848 284.247 52.872 282.327 54.92C280.535 56.7973 279.533 59.1867 279.319 62.088Z" fill="black"/>
<line x1="443.986" y1="66.5" x2="1356.01" y2="66.5" stroke="black"/>
</svg>
