<svg width="1280" height="134" viewBox="0 0 1280 134" fill="none" xmlns="http://www.w3.org/2000/svg">
<path d="M154.61 72.392C154.61 74.1413 154.12 75.6987 153.138 77.064C152.925 77.2773 152.712 77.4907 152.498 77.704C152.328 77.9173 152.136 78.1307 151.922 78.344C150.002 80.008 147.4 80.84 144.114 80.84C141.853 80.84 139.89 80.4773 138.226 79.752C138.013 79.6667 137.8 79.6027 137.586 79.56C137.416 79.56 137.224 79.56 137.01 79.56H136.37C135.901 79.7733 135.453 79.944 135.026 80.072C134.6 80.2427 134.152 80.4133 133.682 80.584C133.085 78.9627 132.466 77.384 131.826 75.848C131.186 74.2693 130.568 72.6693 129.97 71.048C130.141 70.92 130.29 70.792 130.418 70.664C130.589 70.536 130.781 70.4293 130.994 70.344C132.829 72.904 134.578 74.7813 136.242 75.976C138.888 77.6827 141.49 78.536 144.05 78.536C146.056 78.536 147.741 77.9173 149.106 76.68C150.216 75.5707 150.77 74.2267 150.77 72.648C150.77 71.624 150.365 70.7067 149.554 69.896C149.384 69.768 149.17 69.6187 148.914 69.448C148.658 69.2773 148.36 69.0853 148.018 68.872C147.464 68.5307 146.738 68.1893 145.842 67.848C144.946 67.464 143.858 67.0587 142.578 66.632C140.573 65.9493 138.909 65.3307 137.586 64.776C136.264 64.1787 135.261 63.6027 134.578 63.048C132.018 61.4693 130.738 59.3787 130.738 56.776C130.738 54.3867 131.869 52.488 134.13 51.08C135.837 50.0133 137.97 49.48 140.53 49.48C142.749 49.48 145.032 49.9067 147.378 50.76C147.72 50.6747 148.082 50.5253 148.466 50.312C148.85 50.056 149.277 49.7573 149.746 49.416C150.344 50.952 150.941 52.5093 151.538 54.088C152.136 55.624 152.733 57.1813 153.33 58.76C153.117 58.8453 152.904 58.952 152.69 59.08C152.52 59.208 152.328 59.3147 152.114 59.4C151.048 57.352 149.618 55.688 147.826 54.408C145.181 52.6587 142.749 51.784 140.53 51.784C138.909 51.784 137.629 52.0613 136.69 52.616C135.282 53.384 134.578 54.7067 134.578 56.584C134.578 57.7787 135.197 58.8027 136.434 59.656C136.605 59.7413 136.776 59.8267 136.946 59.912C137.117 59.9973 137.309 60.0827 137.522 60.168C138.12 60.5093 138.866 60.872 139.762 61.256C140.658 61.64 141.661 62.0027 142.77 62.344C145.074 63.0693 146.973 63.7947 148.466 64.52C150.002 65.2027 151.176 65.8427 151.986 66.44C153.736 67.848 154.61 69.832 154.61 72.392ZM190.402 79.752H176.578V77.704C178.54 77.704 179.82 77.4693 180.418 77C180.674 76.872 180.802 76.68 180.802 76.424C180.802 76.0827 180.652 75.7627 180.354 75.464C180.14 75.2507 179.927 75.0373 179.714 74.824C179.543 74.6107 179.372 74.3973 179.202 74.184C177.922 72.4773 176.663 70.7707 175.426 69.064C174.188 67.3147 172.951 65.5867 171.714 63.88C170.818 64.6053 169.9 65.3093 168.962 65.992C168.066 66.6747 167.148 67.3787 166.21 68.104V74.376C166.21 75.656 166.487 76.5093 167.042 76.936C167.426 77.1493 167.916 77.32 168.514 77.448C169.111 77.6187 169.815 77.704 170.626 77.704V79.752H158.146V77.704C158.914 77.704 159.575 77.6187 160.13 77.448C160.727 77.32 161.196 77.1493 161.538 76.936C162.05 76.552 162.306 75.6987 162.306 74.376V41.288C162.306 39.8373 161.666 39.0053 160.386 38.792C160.172 38.7493 159.916 38.728 159.618 38.728C159.319 38.6853 158.956 38.664 158.53 38.664C158.487 38.4507 158.444 38.2587 158.402 38.088C158.359 37.8747 158.316 37.6613 158.274 37.448C159.639 36.936 160.962 36.4453 162.242 35.976C163.564 35.464 164.887 34.952 166.21 34.44V65.032C168.386 63.24 170.54 61.4907 172.674 59.784C174.85 58.0347 177.026 56.264 179.202 54.472C179.628 54.1733 179.842 53.8747 179.842 53.576C179.842 53.3627 179.756 53.1707 179.586 53C179.116 52.4027 177.751 52.104 175.49 52.104V50.12H188.418V52.104C187.223 52.104 186.242 52.2533 185.474 52.552C185.132 52.7227 184.428 53.2773 183.362 54.216L181.634 55.368C180.439 56.3493 179.244 57.3307 178.05 58.312C176.898 59.2933 175.703 60.2747 174.466 61.256C176.172 63.56 177.858 65.8853 179.522 68.232C181.228 70.536 182.935 72.84 184.642 75.144C185.282 75.9973 185.986 76.5733 186.754 76.872C187.82 77.4267 189.036 77.704 190.402 77.704V79.752ZM203.008 37.448C203.008 38.472 202.666 39.3253 201.984 40.008C201.301 40.6907 200.448 41.032 199.424 41.032C198.485 41.032 197.696 40.6907 197.056 40.008C196.458 39.3253 196.16 38.472 196.16 37.448C196.16 36.424 196.48 35.5707 197.12 34.888C197.76 34.2053 198.528 33.864 199.424 33.864C200.448 33.864 201.301 34.2053 201.984 34.888C202.666 35.5707 203.008 36.424 203.008 37.448ZM206.016 79.816H194.048V77.704C195.797 77.704 196.928 77.448 197.44 76.936C197.866 76.552 198.08 75.848 198.08 74.824V56.392C198.08 55.4533 197.888 54.8133 197.504 54.472C197.034 54.088 195.904 53.896 194.112 53.896L193.856 52.488L201.984 49.416V74.824C201.984 76.0187 202.176 76.7653 202.56 77.064C203.114 77.4907 204.266 77.704 206.016 77.704V79.816ZM222.013 79.752H209.725V77.704C211.389 77.704 212.519 77.4693 213.117 77C213.629 76.5733 213.885 75.656 213.885 74.248V40.904C213.885 40.1787 213.629 39.6667 213.117 39.368C212.605 39.0267 211.517 38.856 209.853 38.856L209.469 37.32C210.834 36.808 212.221 36.3173 213.629 35.848C215.037 35.336 216.423 34.824 217.789 34.312V74.248C217.789 75.5707 218.023 76.4667 218.493 76.936C218.834 77.1493 219.282 77.32 219.837 77.448C220.434 77.6187 221.159 77.704 222.013 77.704V79.752ZM238.325 79.752H226.037V77.704C227.701 77.704 228.832 77.4693 229.429 77C229.941 76.5733 230.197 75.656 230.197 74.248V40.904C230.197 40.1787 229.941 39.6667 229.429 39.368C228.917 39.0267 227.829 38.856 226.165 38.856L225.781 37.32C227.147 36.808 228.533 36.3173 229.941 35.848C231.349 35.336 232.736 34.824 234.101 34.312V74.248C234.101 75.5707 234.336 76.4667 234.805 76.936C235.147 77.1493 235.595 77.32 236.149 77.448C236.747 77.6187 237.472 77.704 238.325 77.704V79.752ZM266.798 72.392C266.798 74.1413 266.307 75.6987 265.326 77.064C265.112 77.2773 264.899 77.4907 264.686 77.704C264.515 77.9173 264.323 78.1307 264.11 78.344C262.19 80.008 259.587 80.84 256.302 80.84C254.04 80.84 252.078 80.4773 250.414 79.752C250.2 79.6667 249.987 79.6027 249.774 79.56C249.603 79.56 249.411 79.56 249.198 79.56H248.558C248.088 79.7733 247.64 79.944 247.214 80.072C246.787 80.2427 246.339 80.4133 245.87 80.584C245.272 78.9627 244.654 77.384 244.014 75.848C243.374 74.2693 242.755 72.6693 242.158 71.048C242.328 70.92 242.478 70.792 242.606 70.664C242.776 70.536 242.968 70.4293 243.182 70.344C245.016 72.904 246.766 74.7813 248.43 75.976C251.075 77.6827 253.678 78.536 256.238 78.536C258.243 78.536 259.928 77.9173 261.294 76.68C262.403 75.5707 262.958 74.2267 262.958 72.648C262.958 71.624 262.552 70.7067 261.742 69.896C261.571 69.768 261.358 69.6187 261.102 69.448C260.846 69.2773 260.547 69.0853 260.206 68.872C259.651 68.5307 258.926 68.1893 258.03 67.848C257.134 67.464 256.046 67.0587 254.766 66.632C252.76 65.9493 251.096 65.3307 249.774 64.776C248.451 64.1787 247.448 63.6027 246.766 63.048C244.206 61.4693 242.926 59.3787 242.926 56.776C242.926 54.3867 244.056 52.488 246.318 51.08C248.024 50.0133 250.158 49.48 252.718 49.48C254.936 49.48 257.219 49.9067 259.566 50.76C259.907 50.6747 260.27 50.5253 260.654 50.312C261.038 50.056 261.464 49.7573 261.934 49.416C262.531 50.952 263.128 52.5093 263.726 54.088C264.323 55.624 264.92 57.1813 265.518 58.76C265.304 58.8453 265.091 58.952 264.878 59.08C264.707 59.208 264.515 59.3147 264.302 59.4C263.235 57.352 261.806 55.688 260.014 54.408C257.368 52.6587 254.936 51.784 252.718 51.784C251.096 51.784 249.816 52.0613 248.878 52.616C247.47 53.384 246.766 54.7067 246.766 56.584C246.766 57.7787 247.384 58.8027 248.622 59.656C248.792 59.7413 248.963 59.8267 249.134 59.912C249.304 59.9973 249.496 60.0827 249.71 60.168C250.307 60.5093 251.054 60.872 251.95 61.256C252.846 61.64 253.848 62.0027 254.958 62.344C257.262 63.0693 259.16 63.7947 260.654 64.52C262.19 65.2027 263.363 65.8427 264.174 66.44C265.923 67.848 266.798 69.832 266.798 72.392Z" fill="black"/>
<line x1="443.986" y1="66.5" x2="1356.01" y2="66.5" stroke="black"/>
</svg>
