<svg width="354" height="137" viewBox="0 0 354 137" fill="none" xmlns="http://www.w3.org/2000/svg">
<path d="M196.984 128C196.835 128 196.76 127.851 196.76 127.552C196.76 127.253 196.835 127.104 196.984 127.104H197.496C198.456 127.104 199.149 126.955 199.576 126.656C200.024 126.336 200.248 125.824 200.248 125.12V107.68C200.248 106.933 200.024 106.411 199.576 106.112C199.128 105.813 198.435 105.664 197.496 105.664H196.984C196.835 105.664 196.76 105.515 196.76 105.216C196.76 104.917 196.835 104.768 196.984 104.768H206.04C206.147 104.768 206.211 104.811 206.232 104.896C206.275 104.96 206.296 105.067 206.296 105.216C206.296 105.515 206.211 105.664 206.04 105.664H205.56C204.557 105.664 203.843 105.813 203.416 106.112C203.011 106.411 202.808 106.933 202.808 107.68V125.12C202.808 125.867 203.021 126.389 203.448 126.688C203.875 126.965 204.579 127.104 205.56 127.104H206.04C206.147 127.104 206.211 127.147 206.232 127.232C206.275 127.296 206.296 127.403 206.296 127.552C206.296 127.851 206.211 128 206.04 128H196.984ZM226.975 127.136C227.145 127.136 227.231 127.285 227.231 127.584C227.231 127.861 227.145 128 226.975 128H219.807C219.657 128 219.583 127.861 219.583 127.584C219.583 127.285 219.657 127.136 219.807 127.136H220.255C220.873 127.136 221.364 127.051 221.727 126.88C222.089 126.709 222.271 126.347 222.271 125.792L222.239 119.84L222.207 117.792C222.207 116.661 221.951 115.733 221.439 115.008C220.948 114.261 220.105 113.888 218.911 113.888C218.036 113.888 217.193 114.133 216.383 114.624C215.572 115.093 214.889 115.819 214.335 116.8L214.303 125.792C214.303 126.325 214.495 126.688 214.879 126.88C215.263 127.051 215.764 127.136 216.383 127.136H216.799C216.948 127.136 217.023 127.285 217.023 127.584C217.023 127.861 216.948 128 216.799 128H209.631C209.46 128 209.375 127.861 209.375 127.584C209.375 127.285 209.46 127.136 209.631 127.136H210.047C210.665 127.136 211.167 127.051 211.551 126.88C211.935 126.688 212.127 126.325 212.127 125.792L212.031 116C212.031 115.552 211.924 115.221 211.711 115.008C211.519 114.795 211.273 114.656 210.975 114.592C210.697 114.528 210.239 114.453 209.599 114.368C209.471 114.347 209.385 114.304 209.343 114.24C209.321 114.155 209.311 114.027 209.311 113.856C209.311 113.707 209.364 113.611 209.471 113.568C209.791 113.44 211.412 113.035 214.335 112.352V115.2C215.743 113.301 217.417 112.352 219.359 112.352C221.044 112.352 222.313 112.821 223.167 113.76C224.041 114.677 224.511 115.819 224.575 117.184C224.596 117.568 224.607 118.336 224.607 119.488C224.607 121.237 224.575 123.339 224.51 125.792C224.51 126.347 224.692 126.709 225.055 126.88C225.439 127.051 225.94 127.136 226.559 127.136H226.975ZM230.073 123.776L230.041 123.616C230.041 123.488 230.126 123.381 230.297 123.296C230.339 123.275 230.393 123.264 230.457 123.264C230.606 123.264 230.734 123.349 230.841 123.52C231.353 124.181 231.854 124.779 232.345 125.312C232.835 125.824 233.529 126.315 234.425 126.784C235.342 127.232 236.387 127.456 237.561 127.456C238.521 127.456 239.299 127.189 239.897 126.656C240.515 126.101 240.825 125.408 240.825 124.576C240.825 124.085 240.686 123.637 240.409 123.232C240.131 122.827 239.737 122.507 239.225 122.272C238.691 122.016 237.614 121.653 235.993 121.184C235.161 120.992 234.489 120.789 233.977 120.576C231.865 119.701 230.809 118.379 230.809 116.608C230.809 116.139 230.926 115.584 231.161 114.944C231.417 114.283 231.886 113.685 232.569 113.152C233.273 112.619 234.254 112.352 235.513 112.352C236.195 112.352 236.782 112.437 237.273 112.608C237.785 112.757 238.083 112.843 238.169 112.864C238.574 113.013 238.841 113.088 238.969 113.088C239.289 113.088 239.619 113.003 239.961 112.832C240.302 112.64 240.558 112.395 240.729 112.096L242.041 116.288L242.105 116.512C242.105 116.619 242.019 116.725 241.849 116.832C241.806 116.853 241.742 116.864 241.657 116.864C241.529 116.864 241.411 116.811 241.305 116.704C240.537 115.829 239.694 115.061 238.777 114.4C237.859 113.717 236.729 113.376 235.385 113.376C234.681 113.376 234.094 113.515 233.625 113.792C233.177 114.069 232.846 114.4 232.633 114.784C232.441 115.168 232.345 115.531 232.345 115.872C232.345 116.341 232.494 116.747 232.793 117.088C233.113 117.408 233.625 117.739 234.329 118.08C234.777 118.315 235.641 118.613 236.921 118.976C238.307 119.403 239.321 119.755 239.961 120.032C241.838 120.885 242.777 122.176 242.777 123.904C242.777 125.248 242.275 126.347 241.273 127.2C240.27 128.032 238.905 128.448 237.177 128.448C236.259 128.448 235.107 128.224 233.721 127.776C233.209 127.627 232.899 127.552 232.793 127.552C232.537 127.552 232.291 127.627 232.057 127.776C231.843 127.925 231.577 128.181 231.257 128.544L230.073 123.776ZM250.873 128.448C249.7 128.448 248.793 128.149 248.153 127.552C247.535 126.933 247.225 125.995 247.225 124.736V113.824H244.633V112.64C245.444 112.384 246.095 112.043 246.585 111.616C247.097 111.189 247.535 110.56 247.897 109.728C248.26 108.896 248.569 107.744 248.825 106.272H249.529V112.64H253.721V113.824H249.497V121.664L249.529 124.544C249.551 125.269 249.753 125.856 250.137 126.304C250.521 126.731 251.012 126.944 251.609 126.944C252.1 126.944 252.495 126.869 252.793 126.72C253.113 126.571 253.423 126.325 253.721 125.984C253.828 125.856 253.935 125.792 254.041 125.792C254.148 125.792 254.244 125.845 254.329 125.952C254.436 126.059 254.489 126.165 254.489 126.272C254.489 126.357 254.468 126.432 254.425 126.496C253.572 127.797 252.388 128.448 250.873 128.448ZM271.742 125.44C271.913 125.44 271.998 125.515 271.998 125.664L271.966 125.856C271.646 126.773 271.166 127.424 270.526 127.808C269.886 128.192 269.278 128.384 268.702 128.384C268.062 128.384 267.529 128.181 267.102 127.776C266.675 127.349 266.377 126.795 266.206 126.112C265.438 126.88 264.553 127.467 263.55 127.872C262.547 128.256 261.545 128.448 260.542 128.448C259.305 128.448 258.302 128.16 257.534 127.584C256.787 127.008 256.414 126.219 256.414 125.216C256.414 124.427 256.585 123.744 256.926 123.168C257.267 122.592 257.822 122.08 258.59 121.632C259.081 121.355 259.699 121.099 260.446 120.864C261.193 120.629 262.217 120.341 263.518 120L266.142 119.264V117.888C266.142 116.864 266.089 116.107 265.982 115.616C265.875 115.125 265.662 114.688 265.342 114.304C264.873 113.728 264.073 113.44 262.942 113.44C262.153 113.44 261.555 113.632 261.15 114.016C260.745 114.4 260.403 114.987 260.126 115.776C259.763 116.8 259.241 117.312 258.558 117.312C258.174 117.312 257.822 117.195 257.502 116.96C257.203 116.704 257.054 116.373 257.054 115.968C257.054 115.563 257.193 115.093 257.47 114.56C257.769 114.005 258.355 113.504 259.23 113.056C260.126 112.587 261.395 112.352 263.038 112.352C263.998 112.352 264.905 112.523 265.758 112.864C266.633 113.184 267.251 113.589 267.614 114.08C267.934 114.528 268.147 114.997 268.254 115.488C268.382 115.957 268.446 116.523 268.446 117.184C268.446 118.187 268.435 119.072 268.414 119.84L268.382 124.48C268.382 125.355 268.542 125.941 268.862 126.24C269.203 126.539 269.534 126.688 269.854 126.688C270.131 126.688 270.419 126.603 270.718 126.432C271.038 126.24 271.305 125.963 271.518 125.6C271.582 125.493 271.657 125.44 271.742 125.44ZM261.694 126.912C262.441 126.912 263.209 126.741 263.998 126.4C264.787 126.037 265.47 125.525 266.046 124.864V124.768L266.11 120.448C264.467 120.853 263.145 121.237 262.142 121.6C261.161 121.941 260.393 122.368 259.838 122.88C259.283 123.392 259.006 124.021 259.006 124.768C259.006 125.365 259.209 125.877 259.614 126.304C260.041 126.709 260.734 126.912 261.694 126.912ZM288.952 111.68C289.421 111.68 289.784 111.819 290.04 112.096C290.296 112.373 290.424 112.672 290.424 112.992C290.424 113.333 290.306 113.632 290.072 113.888C289.858 114.144 289.528 114.272 289.08 114.272C288.802 114.272 288.536 114.197 288.28 114.048C287.981 113.92 287.714 113.856 287.48 113.856C287.266 113.856 287.021 113.963 286.744 114.176C286.466 114.368 286.2 114.613 285.944 114.912C286.541 115.765 286.84 116.715 286.84 117.76C286.84 118.464 286.68 119.232 286.36 120.064C286.061 120.875 285.464 121.6 284.568 122.24C283.672 122.88 282.434 123.2 280.856 123.2C280.152 123.2 279.48 123.115 278.84 122.944C278.37 123.136 277.997 123.349 277.72 123.584C277.442 123.797 277.304 123.979 277.304 124.128C277.304 124.299 277.453 124.448 277.752 124.576C278.05 124.683 278.616 124.811 279.448 124.96C282.242 125.472 284.365 125.941 285.816 126.368C286.733 126.645 287.49 127.051 288.088 127.584C288.685 128.096 288.984 128.747 288.984 129.536C288.984 130.581 288.546 131.445 287.672 132.128C286.818 132.811 285.752 133.301 284.472 133.6C283.192 133.92 281.901 134.08 280.6 134.08C278.978 134.08 277.624 133.877 276.536 133.472C275.469 133.067 274.68 132.565 274.168 131.968C273.656 131.371 273.4 130.784 273.4 130.208C273.4 129.461 273.741 128.853 274.424 128.384C275.128 127.936 276.269 127.413 277.848 126.816C276.824 126.624 276.045 126.357 275.512 126.016C275 125.653 274.744 125.269 274.744 124.864C274.744 124.437 275 124.043 275.512 123.68C276.024 123.296 276.738 122.912 277.656 122.528C276.696 122.059 275.949 121.397 275.416 120.544C274.882 119.691 274.616 118.752 274.616 117.728C274.616 116.747 274.882 115.851 275.416 115.04C275.949 114.208 276.674 113.557 277.592 113.088C278.509 112.597 279.512 112.352 280.6 112.352C281.581 112.352 282.477 112.523 283.288 112.864C284.12 113.184 284.813 113.643 285.368 114.24C285.858 113.557 286.413 112.96 287.032 112.448C287.672 111.936 288.312 111.68 288.952 111.68ZM280.792 122.08C281.986 122.08 282.893 121.643 283.512 120.768C284.152 119.893 284.472 118.848 284.472 117.632C284.472 116.501 284.162 115.531 283.544 114.72C282.925 113.888 281.986 113.472 280.728 113.472C279.384 113.472 278.413 113.909 277.816 114.784C277.218 115.659 276.92 116.64 276.92 117.728C276.92 118.944 277.229 119.979 277.848 120.832C278.466 121.664 279.448 122.08 280.792 122.08ZM286.84 130.144C286.84 129.397 286.157 128.789 284.792 128.32C283.789 127.979 281.954 127.563 279.288 127.072C276.856 128.139 275.64 129.195 275.64 130.24C275.64 131.136 276.162 131.808 277.208 132.256C278.274 132.704 279.629 132.928 281.272 132.928C282.466 132.928 283.48 132.789 284.312 132.512C285.165 132.235 285.794 131.872 286.2 131.424C286.626 130.997 286.84 130.571 286.84 130.144ZM302.737 112.352C303.377 112.352 303.921 112.523 304.369 112.864C304.817 113.184 305.041 113.6 305.041 114.112C305.041 114.475 304.903 114.784 304.625 115.04C304.369 115.296 304.039 115.424 303.633 115.424C303.313 115.424 302.908 115.264 302.417 114.944C302.097 114.773 301.841 114.645 301.649 114.56C301.457 114.475 301.244 114.432 301.009 114.432C300.497 114.432 299.943 114.645 299.345 115.072C298.748 115.499 298.151 116.075 297.553 116.8L297.521 125.824C297.521 126.357 297.703 126.709 298.065 126.88C298.449 127.051 298.961 127.136 299.601 127.136H300.017C300.188 127.136 300.273 127.285 300.273 127.584C300.273 127.861 300.188 128 300.017 128H292.849C292.7 128 292.625 127.861 292.625 127.584C292.625 127.285 292.7 127.136 292.849 127.136H293.265C293.884 127.136 294.375 127.051 294.737 126.88C295.121 126.709 295.313 126.357 295.313 125.824L295.217 115.968C295.217 115.52 295.111 115.189 294.897 114.976C294.705 114.763 294.471 114.635 294.193 114.592C293.937 114.528 293.479 114.453 292.817 114.368C292.689 114.347 292.604 114.293 292.561 114.208C292.54 114.123 292.529 113.995 292.529 113.824C292.529 113.675 292.583 113.579 292.689 113.536C293.009 113.408 294.631 113.003 297.553 112.32V115.456C298.364 114.56 299.217 113.824 300.113 113.248C301.031 112.651 301.905 112.352 302.737 112.352ZM322.242 125.44C322.413 125.44 322.498 125.515 322.498 125.664L322.466 125.856C322.146 126.773 321.666 127.424 321.026 127.808C320.386 128.192 319.778 128.384 319.202 128.384C318.562 128.384 318.029 128.181 317.602 127.776C317.175 127.349 316.877 126.795 316.706 126.112C315.938 126.88 315.053 127.467 314.05 127.872C313.047 128.256 312.045 128.448 311.042 128.448C309.805 128.448 308.802 128.16 308.034 127.584C307.287 127.008 306.914 126.219 306.914 125.216C306.914 124.427 307.085 123.744 307.426 123.168C307.767 122.592 308.322 122.08 309.09 121.632C309.581 121.355 310.199 121.099 310.946 120.864C311.693 120.629 312.717 120.341 314.018 120L316.642 119.264V117.888C316.642 116.864 316.589 116.107 316.482 115.616C316.375 115.125 316.162 114.688 315.842 114.304C315.373 113.728 314.573 113.44 313.442 113.44C312.653 113.44 312.055 113.632 311.65 114.016C311.245 114.4 310.903 114.987 310.626 115.776C310.263 116.8 309.741 117.312 309.058 117.312C308.674 117.312 308.322 117.195 308.002 116.96C307.703 116.704 307.554 116.373 307.554 115.968C307.554 115.563 307.693 115.093 307.97 114.56C308.269 114.005 308.855 113.504 309.73 113.056C310.626 112.587 311.895 112.352 313.538 112.352C314.498 112.352 315.405 112.523 316.258 112.864C317.133 113.184 317.751 113.589 318.114 114.08C318.434 114.528 318.647 114.997 318.754 115.488C318.882 115.957 318.946 116.523 318.946 117.184C318.946 118.187 318.935 119.072 318.914 119.84L318.882 124.48C318.882 125.355 319.042 125.941 319.362 126.24C319.703 126.539 320.034 126.688 320.354 126.688C320.631 126.688 320.919 126.603 321.218 126.432C321.538 126.24 321.805 125.963 322.018 125.6C322.082 125.493 322.157 125.44 322.242 125.44ZM312.194 126.912C312.941 126.912 313.709 126.741 314.498 126.4C315.287 126.037 315.97 125.525 316.546 124.864V124.768L316.61 120.448C314.967 120.853 313.645 121.237 312.642 121.6C311.661 121.941 310.893 122.368 310.338 122.88C309.783 123.392 309.506 124.021 309.506 124.768C309.506 125.365 309.709 125.877 310.114 126.304C310.541 126.709 311.234 126.912 312.194 126.912ZM352.092 127.136C352.262 127.136 352.348 127.285 352.348 127.584C352.348 127.861 352.262 128 352.092 128H344.924C344.774 128 344.7 127.861 344.7 127.584C344.7 127.435 344.71 127.328 344.732 127.264C344.774 127.179 344.838 127.136 344.924 127.136H345.34C345.958 127.136 346.449 127.051 346.812 126.88C347.196 126.709 347.388 126.347 347.388 125.792V121.44C347.388 119.925 347.366 118.72 347.324 117.824C347.238 115.221 346.14 113.92 344.028 113.92C343.153 113.92 342.3 114.176 341.468 114.688C340.636 115.179 339.932 115.925 339.356 116.928C339.377 116.992 339.388 117.088 339.388 117.216C339.409 117.557 339.42 118.219 339.42 119.2C339.42 120.971 339.377 123.168 339.292 125.792C339.292 126.325 339.484 126.688 339.868 126.88C340.252 127.051 340.753 127.136 341.372 127.136H341.788C341.937 127.136 342.012 127.285 342.012 127.584C342.012 127.861 341.937 128 341.788 128H334.62C334.449 128 334.364 127.861 334.364 127.584C334.364 127.285 334.449 127.136 334.62 127.136H335.036C335.654 127.136 336.145 127.051 336.508 126.88C336.892 126.709 337.084 126.347 337.084 125.792V121.6C337.084 119.979 337.062 118.72 337.02 117.824C336.934 115.221 335.836 113.92 333.724 113.92C332.849 113.92 332.006 114.165 331.196 114.656C330.385 115.125 329.692 115.851 329.116 116.832L329.084 125.792C329.084 126.325 329.276 126.688 329.66 126.88C330.044 127.051 330.545 127.136 331.164 127.136H331.58C331.75 127.136 331.836 127.285 331.836 127.584C331.836 127.861 331.75 128 331.58 128H324.412C324.262 128 324.188 127.861 324.188 127.584C324.188 127.435 324.198 127.328 324.22 127.264C324.262 127.179 324.326 127.136 324.412 127.136H324.828C325.446 127.136 325.948 127.051 326.332 126.88C326.716 126.688 326.908 126.325 326.908 125.792L326.78 116.032C326.78 115.584 326.673 115.253 326.46 115.04C326.268 114.827 326.022 114.688 325.724 114.624C325.446 114.56 324.998 114.485 324.38 114.4C324.188 114.379 324.092 114.208 324.092 113.888C324.092 113.739 324.145 113.643 324.252 113.6C324.572 113.472 326.193 113.056 329.116 112.352V115.232C330.502 113.312 332.188 112.352 334.172 112.352C335.494 112.352 336.561 112.661 337.372 113.28C338.204 113.899 338.78 114.699 339.1 115.68C340.593 113.461 342.385 112.352 344.476 112.352C346.14 112.352 347.409 112.821 348.284 113.76C349.158 114.699 349.628 115.851 349.692 117.216C349.713 117.557 349.724 118.219 349.724 119.2C349.724 120.971 349.681 123.168 349.596 125.792C349.596 126.325 349.788 126.688 350.172 126.88C350.556 127.051 351.057 127.136 351.676 127.136H352.092Z" fill="black"/>
<path d="M41.296 127.104C41.3813 127.104 41.4347 127.147 41.456 127.232C41.4987 127.296 41.52 127.403 41.52 127.552C41.52 127.851 41.4453 128 41.296 128H31.92C31.792 128 31.728 127.851 31.728 127.552C31.728 127.253 31.792 127.104 31.92 127.104H32.432C33.0933 127.104 33.5947 126.997 33.936 126.784C34.2773 126.571 34.448 126.283 34.448 125.92C34.448 125.621 34.352 125.333 34.16 125.056L29.52 117.472C27.344 120.565 25.744 122.901 24.72 124.48C24.4213 124.949 24.272 125.344 24.272 125.664C24.272 126.112 24.4747 126.464 24.88 126.72C25.3067 126.976 25.808 127.104 26.384 127.104H26.928C27.0133 127.104 27.0667 127.147 27.088 127.232C27.1307 127.296 27.152 127.403 27.152 127.552C27.152 127.851 27.0773 128 26.928 128H18.672C18.544 128 18.48 127.851 18.48 127.552C18.48 127.253 18.544 127.104 18.672 127.104H19.184C19.7387 127.104 20.4213 126.848 21.232 126.336C22.064 125.803 22.7467 125.152 23.28 124.384L23.952 123.392C24.3573 122.816 25.9787 120.469 28.816 116.352L23.504 107.68C23.184 107.168 22.7253 106.752 22.128 106.432C21.552 106.091 20.9547 105.867 20.336 105.76C19.9733 105.696 19.6533 105.664 19.376 105.664C19.2267 105.664 19.152 105.515 19.152 105.216C19.152 104.917 19.2267 104.768 19.376 104.768H28.08C28.1867 104.768 28.2507 104.811 28.272 104.896C28.3147 104.96 28.336 105.067 28.336 105.216C28.336 105.515 28.2507 105.664 28.08 105.664H27.6C27.0667 105.664 26.6613 105.792 26.384 106.048C26.128 106.283 26 106.571 26 106.912C26 107.189 26.0747 107.445 26.224 107.68L30.32 114.208C32.6453 110.859 34 108.875 34.384 108.256C34.6187 107.893 34.736 107.541 34.736 107.2C34.736 106.837 34.608 106.539 34.352 106.304C34.096 106.048 33.7653 105.867 33.36 105.76C33.104 105.696 32.848 105.664 32.592 105.664C32.4427 105.664 32.368 105.515 32.368 105.216C32.368 104.917 32.4427 104.768 32.592 104.768H40.048C40.1547 104.768 40.2187 104.811 40.24 104.896C40.2827 104.96 40.304 105.067 40.304 105.216C40.304 105.515 40.2187 105.664 40.048 105.664H39.568C38.9707 105.664 38.3307 105.899 37.648 106.368C36.9653 106.837 36.368 107.467 35.856 108.256C35.4933 108.853 34.3947 110.453 32.56 113.056L31.024 115.296C34.7147 121.163 36.7947 124.427 37.264 125.088C37.7973 125.835 38.3413 126.357 38.896 126.656C39.4507 126.955 40.0907 127.104 40.816 127.104H41.296Z" fill="black"/>
<path d="M55.6919 55.1365L35.5893 25.9277L57.8763 0H52.7795L48.4154 5.05484L33.3162 22.6278L17.7456 0H0.0700115L23.5006 34.049L0 61.4002H5.09685L25.7736 37.3489L42.3291 61.4049H60L55.6919 55.1412V55.1365ZM44.4341 57.4049L7.67328 4H15.6406L52.3967 57.4049H44.4294H44.4341Z" fill="#040000"/>
<path d="M286.631 61H263.369C253.242 61 245 52.758 245 42.6308V19.3693C245 9.24202 253.242 1 263.369 1H286.631C296.758 1 305 9.24202 305 19.3693V42.6308C305 52.758 296.758 61 286.631 61ZM263.369 5.48715C255.719 5.48715 249.487 11.7115 249.487 19.3693V42.6308C249.487 50.2807 255.712 56.5129 263.369 56.5129H286.631C294.281 56.5129 300.513 50.2885 300.513 42.6308V19.3693C300.513 11.7193 294.288 5.48715 286.631 5.48715H263.369Z" fill="#0B040F"/>
<path d="M275 46.1753C266.633 46.1753 259.825 39.3667 259.825 31C259.825 22.6333 266.633 15.8247 275 15.8247C283.367 15.8247 290.175 22.6333 290.175 31C290.175 39.3667 283.367 46.1753 275 46.1753ZM275 20.4209C269.165 20.4209 264.421 25.1652 264.421 31C264.421 36.8349 269.165 41.5791 275 41.5791C280.835 41.5791 285.579 36.8349 285.579 31C285.579 25.1652 280.835 20.4209 275 20.4209Z" fill="#0B040F"/>
<path d="M295.784 14.1654C295.784 16.3467 294.016 18.115 291.835 18.115C289.653 18.115 287.885 16.3467 287.885 14.1654C287.885 11.9842 289.653 10.2158 291.835 10.2158C294.016 10.2158 295.784 11.9842 295.784 14.1654Z" fill="#0B040F"/>
</svg>
