<svg width="60" height="125" viewBox="0 0 60 125" fill="none" xmlns="http://www.w3.org/2000/svg">
<path d="M18.7969 93.0312C21.151 93.1146 23.0417 93.1562 24.4688 93.1562C26.1979 93.1562 27.849 93.1146 29.4219 93.0312C29.4635 93.1979 29.4844 93.3125 29.4844 93.375C29.4844 93.4896 29.4635 93.6198 29.4219 93.7656C28.2552 93.8177 27.4271 93.9271 26.9375 94.0938C26.4583 94.25 26.2188 94.5208 26.2188 94.9062C26.2188 95.0938 26.3594 95.4167 26.6406 95.875L30.4844 101.984L35.125 95.4844C35.2292 95.3073 35.2812 95.0938 35.2812 94.8438C35.2812 94.5208 35.0729 94.2865 34.6562 94.1406C34.25 93.9844 33.6354 93.8594 32.8125 93.7656C32.7708 93.5365 32.75 93.3958 32.75 93.3438C32.75 93.2604 32.7708 93.1562 32.8125 93.0312C34.1562 93.0938 35.375 93.125 36.4688 93.125C37.8646 93.125 39.1562 93.0938 40.3438 93.0312C40.3854 93.1562 40.4062 93.2604 40.4062 93.3438C40.4062 93.5104 40.3854 93.651 40.3438 93.7656C38.625 93.9219 37.4271 94.4948 36.75 95.4844L31.25 103.172L37.8125 113.625C38.5625 114.625 39.875 115.214 41.75 115.391C41.7917 115.557 41.8125 115.688 41.8125 115.781C41.8125 115.885 41.7917 116 41.75 116.125C39.3958 116.042 37.4531 116 35.9219 116C33.849 116 32.0365 116.042 30.4844 116.125C30.4427 115.958 30.4219 115.844 30.4219 115.781C30.4219 115.646 30.4427 115.516 30.4844 115.391C32.8906 115.286 34.0938 114.922 34.0938 114.297C34.0938 114.036 34.0417 113.812 33.9375 113.625L29.1719 106.047L23.6562 113.594C23.5104 113.823 23.4375 114.047 23.4375 114.266C23.4375 114.589 23.6615 114.828 24.1094 114.984C24.5677 115.141 25.2188 115.266 26.0625 115.359C26.1042 115.568 26.125 115.708 26.125 115.781C26.125 115.865 26.1042 115.969 26.0625 116.094C24.7188 116.031 23.4479 116 22.25 116C20.8542 116 19.5677 116.031 18.3906 116.094C18.3385 115.938 18.3125 115.833 18.3125 115.781C18.3125 115.604 18.3385 115.464 18.3906 115.359C20.0469 115.203 21.2396 114.625 21.9688 113.625L28.4375 104.859L22.4219 95.2656C22.1927 94.9635 21.9375 94.7188 21.6562 94.5312C21.3854 94.3333 21.0729 94.1875 20.7188 94.0938C20.3646 93.9896 20.0677 93.9219 19.8281 93.8906C19.5885 93.849 19.2448 93.8073 18.7969 93.7656C18.7552 93.5781 18.7344 93.4479 18.7344 93.375C18.7344 93.2708 18.7552 93.1562 18.7969 93.0312Z" fill="black"/>
<path d="M55.6919 53.875L35.5893 25.3345L57.8763 0H52.7795L48.4154 4.93919L33.3162 22.1101L17.7456 0H0.0700115L23.5006 33.27L0 59.9954H5.09685L25.7736 36.4944L42.3291 60H60L55.6919 53.8796V53.875ZM44.4341 56.0915L7.67328 3.90848H15.6406L52.3967 56.0915H44.4294H44.4341Z" fill="#040000"/>
</svg>
