<svg width="151" height="125" viewBox="0 0 151 125" fill="none" xmlns="http://www.w3.org/2000/svg">
<path d="M1.21875 93.0312C3.55208 93.1146 5.36458 93.1562 6.65625 93.1562C7.94792 93.1562 9.76042 93.1146 12.0938 93.0312C12.1354 93.1979 12.1562 93.3125 12.1562 93.375C12.1562 93.4896 12.1354 93.6198 12.0938 93.7656C11.6146 93.8073 11.224 93.8542 10.9219 93.9062C10.6302 93.9479 10.2656 94.0208 9.82812 94.125C9.40104 94.2292 9.07292 94.3802 8.84375 94.5781C8.61458 94.7656 8.49479 94.9948 8.48438 95.2656C8.34896 98.8073 8.28125 102.104 8.28125 105.156C8.28125 107.385 8.33854 110.286 8.45312 113.859C8.46354 114.13 8.58333 114.365 8.8125 114.562C9.04167 114.75 9.36979 114.896 9.79688 115C10.2344 115.104 10.599 115.182 10.8906 115.234C11.1927 115.276 11.5833 115.318 12.0625 115.359C12.1042 115.484 12.125 115.625 12.125 115.781C12.125 115.865 12.1042 115.969 12.0625 116.094C10.2917 116.031 8.47917 116 6.625 116C4.75 116 2.9375 116.031 1.1875 116.094C1.14583 115.969 1.125 115.865 1.125 115.781C1.125 115.604 1.14583 115.464 1.1875 115.359C1.5 115.328 1.75 115.302 1.9375 115.281C2.125 115.26 2.38021 115.224 2.70312 115.172C3.03646 115.12 3.30208 115.062 3.5 115C3.70833 114.927 3.92188 114.839 4.14062 114.734C4.35938 114.63 4.52083 114.505 4.625 114.359C4.73958 114.214 4.79688 114.047 4.79688 113.859C4.92188 110.599 4.98438 107.312 4.98438 104C4.98438 100.625 4.93229 97.7135 4.82812 95.2656C4.81771 94.9948 4.69792 94.7656 4.46875 94.5781C4.23958 94.3802 3.90625 94.2292 3.46875 94.125C3.04167 94.0208 2.67708 93.9479 2.375 93.9062C2.08333 93.8542 1.69792 93.8073 1.21875 93.7656C1.17708 93.5781 1.15625 93.4479 1.15625 93.375C1.15625 93.2708 1.17708 93.1562 1.21875 93.0312ZM22.75 115.359C22.8125 115.484 22.8438 115.615 22.8438 115.75C22.8438 115.854 22.8125 115.969 22.75 116.094C21.375 116.031 20.0417 116 18.75 116C17.4792 116 16.1562 116.031 14.7812 116.094C14.7396 115.927 14.7188 115.812 14.7188 115.75C14.7188 115.698 14.7396 115.568 14.7812 115.359C15.125 115.318 15.4062 115.276 15.625 115.234C15.8438 115.182 16.1146 115.104 16.4375 115C16.7604 114.896 17.0052 114.75 17.1719 114.562C17.3385 114.365 17.4271 114.13 17.4375 113.859C17.4792 112.828 17.5 111.578 17.5 110.109C17.5 109.62 17.4948 108.786 17.4844 107.609C17.474 106.432 17.4688 105.401 17.4688 104.516C16.875 104.151 15.875 103.938 14.4688 103.875C14.4271 103.708 14.4062 103.578 14.4062 103.484C14.4062 103.422 14.4271 103.307 14.4688 103.141C16.4896 102.932 18.25 102.505 19.75 101.859C20.0104 101.964 20.1927 102.099 20.2969 102.266V104.734C21.3073 103.849 22.276 103.141 23.2031 102.609C24.1302 102.068 25.0677 101.797 26.0156 101.797C27.2031 101.797 28.0417 102.13 28.5312 102.797C29.0312 103.464 29.2917 104.505 29.3125 105.922L29.4688 113.859C29.4792 114.13 29.5573 114.365 29.7031 114.562C29.8594 114.75 30.0781 114.896 30.3594 115C30.651 115.104 30.8906 115.182 31.0781 115.234C31.2656 115.276 31.5104 115.318 31.8125 115.359C31.8542 115.568 31.875 115.708 31.875 115.781C31.875 115.865 31.8542 115.969 31.8125 116.094C30.4688 116.031 29.2292 116 28.0938 116C26.9896 116 25.7656 116.031 24.4219 116.094C24.3802 115.927 24.3594 115.802 24.3594 115.719C24.3594 115.646 24.3802 115.526 24.4219 115.359C24.6927 115.318 24.9167 115.276 25.0938 115.234C25.2812 115.182 25.4896 115.104 25.7188 115C25.9583 114.896 26.1354 114.75 26.25 114.562C26.375 114.365 26.4375 114.13 26.4375 113.859L26.4688 106.438C26.4688 104.552 25.901 103.609 24.7656 103.609C23.7031 103.609 22.2135 104.318 20.2969 105.734C20.2969 108.766 20.3385 111.474 20.4219 113.859C20.4323 114.13 20.5104 114.365 20.6562 114.562C20.8125 114.75 21.0312 114.896 21.3125 115C21.5938 115.104 21.8281 115.182 22.0156 115.234C22.2031 115.276 22.4479 115.318 22.75 115.359ZM39.9219 116.453C39.4115 116.453 38.9479 116.411 38.5312 116.328C38.125 116.245 37.8073 116.156 37.5781 116.062C37.3594 115.969 37.0625 115.828 36.6875 115.641C36.2812 115.641 35.6823 115.792 34.8906 116.094C34.7552 116.01 34.6615 115.917 34.6094 115.812C34.6615 115.646 34.724 115.078 34.7969 114.109C34.8802 113.141 34.9219 112.276 34.9219 111.516C35.0573 111.453 35.3021 111.422 35.6562 111.422C35.8438 112.026 36.0365 112.542 36.2344 112.969C36.4427 113.396 36.7031 113.812 37.0156 114.219C37.3385 114.615 37.724 114.917 38.1719 115.125C38.6302 115.323 39.151 115.422 39.7344 115.422C40.6406 115.422 41.349 115.188 41.8594 114.719C42.3802 114.25 42.6406 113.719 42.6406 113.125C42.6406 112.677 42.5677 112.297 42.4219 111.984C42.276 111.672 41.9479 111.344 41.4375 111C40.9375 110.646 40.2188 110.297 39.2812 109.953C38.6979 109.745 38.2031 109.552 37.7969 109.375C37.3906 109.198 36.9688 108.979 36.5312 108.719C36.1042 108.458 35.7604 108.193 35.5 107.922C35.2396 107.641 35.026 107.307 34.8594 106.922C34.6927 106.536 34.6094 106.115 34.6094 105.656C34.6094 105.323 34.6458 104.995 34.7188 104.672C34.8021 104.339 34.9531 103.995 35.1719 103.641C35.401 103.286 35.6823 102.979 36.0156 102.719C36.3594 102.448 36.8125 102.229 37.375 102.062C37.9479 101.885 38.5938 101.797 39.3125 101.797C39.6042 101.797 39.8594 101.812 40.0781 101.844C40.3073 101.875 40.5781 101.932 40.8906 102.016C41.2135 102.089 41.3906 102.13 41.4219 102.141C41.651 102.089 41.8854 102.021 42.125 101.938C42.375 101.854 42.5156 101.807 42.5469 101.797H42.9531C43.2031 103.297 43.526 104.573 43.9219 105.625C43.7969 105.76 43.5938 105.828 43.3125 105.828C42.4479 104.786 41.7083 104.026 41.0938 103.547C40.4896 103.057 39.8021 102.812 39.0312 102.812C38.4271 102.812 37.8958 102.948 37.4375 103.219C36.9792 103.49 36.75 103.901 36.75 104.453C36.75 105.151 37.026 105.698 37.5781 106.094C38.1406 106.49 39.1771 106.995 40.6875 107.609C41.3854 107.891 41.9323 108.125 42.3281 108.312C42.7344 108.5 43.1406 108.724 43.5469 108.984C43.9531 109.245 44.25 109.516 44.4375 109.797C44.6354 110.068 44.7969 110.396 44.9219 110.781C45.0469 111.167 45.1094 111.615 45.1094 112.125C45.1094 113.229 44.599 114.229 43.5781 115.125C42.5677 116.01 41.349 116.453 39.9219 116.453ZM52.3438 99.1406C52.4479 99.099 52.5677 99.0781 52.7031 99.0781C52.8385 99.0781 52.9792 99.099 53.125 99.1406V102.562H57.8594C57.9219 102.719 57.9531 102.911 57.9531 103.141C57.9531 103.339 57.9219 103.521 57.8594 103.688H53.125V112.031C53.125 113.677 53.8802 114.5 55.3906 114.5C55.9635 114.5 56.4531 114.391 56.8594 114.172C57.276 113.953 57.7344 113.625 58.2344 113.188C58.4948 113.219 58.6667 113.344 58.75 113.562C58.2917 114.385 57.6146 115.073 56.7188 115.625C55.8229 116.177 54.8385 116.453 53.7656 116.453C51.2448 116.453 49.9844 114.927 49.9844 111.875V103.688H48.0625C48.0208 103.5 48 103.38 48 103.328C48 103.318 48.0208 103.198 48.0625 102.969C48.5625 102.719 48.9427 102.516 49.2031 102.359C49.474 102.193 49.8125 101.958 50.2188 101.656C50.6354 101.354 51.0104 101 51.3438 100.594C51.6875 100.177 52.0208 99.6927 52.3438 99.1406ZM61.9062 105.734C61.9062 104.589 62.4271 103.646 63.4688 102.906C64.5208 102.167 65.7604 101.797 67.1875 101.797C68.9375 101.797 70.1667 102.146 70.875 102.844C71.5938 103.542 71.9531 104.719 71.9531 106.375V112.859C71.9531 113.443 72.1667 113.734 72.5938 113.734C72.9375 113.734 73.375 113.318 73.9062 112.484C74.2812 112.516 74.5365 112.682 74.6719 112.984C74.599 113.089 74.474 113.276 74.2969 113.547C74.1198 113.818 73.9896 114.01 73.9062 114.125C73.8229 114.24 73.6927 114.417 73.5156 114.656C73.3385 114.885 73.1927 115.057 73.0781 115.172C72.974 115.286 72.8281 115.422 72.6406 115.578C72.4635 115.734 72.2969 115.854 72.1406 115.938C71.9948 116.01 71.8229 116.073 71.625 116.125C71.4271 116.188 71.2292 116.219 71.0312 116.219C70.5104 116.219 70.0781 116.031 69.7344 115.656C69.401 115.281 69.2031 114.703 69.1406 113.922C69.1302 113.932 68.9688 114.083 68.6562 114.375C68.3438 114.667 68.125 114.865 68 114.969C67.8854 115.062 67.6615 115.234 67.3281 115.484C67.0052 115.724 66.7292 115.896 66.5 116C66.2708 116.104 65.9844 116.203 65.6406 116.297C65.2969 116.401 64.9583 116.453 64.625 116.453C64.0938 116.453 63.6198 116.38 63.2031 116.234C62.7969 116.089 62.4792 115.911 62.25 115.703C62.0208 115.495 61.8333 115.255 61.6875 114.984C61.5417 114.703 61.4427 114.448 61.3906 114.219C61.349 113.99 61.3281 113.76 61.3281 113.531C61.3281 112.833 61.4427 112.245 61.6719 111.766C61.9115 111.286 62.349 110.839 62.9844 110.422C63.6302 110.005 64.4219 109.635 65.3594 109.312C66.2969 108.99 67.5573 108.625 69.1406 108.219V106.047C69.1406 104.995 68.9062 104.208 68.4375 103.688C67.9792 103.167 67.3594 102.906 66.5781 102.906C65.8802 102.906 65.2917 103.047 64.8125 103.328C64.3438 103.599 64.0573 103.917 63.9531 104.281C64.974 104.438 65.4844 104.995 65.4844 105.953C65.4844 106.391 65.3281 106.776 65.0156 107.109C64.7031 107.443 64.2656 107.609 63.7031 107.609C63.2344 107.609 62.8177 107.448 62.4531 107.125C62.0885 106.792 61.9062 106.328 61.9062 105.734ZM69.1406 112.484V109.219C68.1823 109.438 67.3906 109.677 66.7656 109.938C66.1406 110.188 65.6615 110.464 65.3281 110.766C65.0052 111.068 64.7812 111.38 64.6562 111.703C64.5312 112.016 64.4688 112.38 64.4688 112.797C64.4688 113.318 64.6198 113.729 64.9219 114.031C65.2344 114.323 65.6146 114.469 66.0625 114.469C67.1042 114.469 68.1302 113.807 69.1406 112.484ZM88.6562 106.688C88.6562 108.333 88.125 109.651 87.0625 110.641C86 111.63 84.7083 112.125 83.1875 112.125C82.4688 112.125 81.7969 112.073 81.1719 111.969C80.5469 112.365 80.2344 112.854 80.2344 113.438C80.2344 113.906 80.526 114.25 81.1094 114.469C81.7031 114.677 82.7135 114.781 84.1406 114.781C84.3698 114.781 84.8021 114.771 85.4375 114.75C86.0729 114.729 86.5781 114.719 86.9531 114.719C89.8594 114.719 91.3125 115.911 91.3125 118.297C91.3125 118.974 91.1094 119.688 90.7031 120.438C90.3073 121.188 89.7604 121.885 89.0625 122.531C88.375 123.188 87.5052 123.729 86.4531 124.156C85.4115 124.583 84.3125 124.797 83.1562 124.797C81.3333 124.797 79.9531 124.458 79.0156 123.781C78.0781 123.115 77.6094 122.281 77.6094 121.281C77.6094 120.583 77.8646 119.885 78.375 119.188C78.8958 118.49 79.6667 117.865 80.6875 117.312C78.6771 117.021 77.6719 116.24 77.6719 114.969C77.6719 114.365 77.8958 113.797 78.3438 113.266C78.8021 112.724 79.4219 112.161 80.2031 111.578C79.1406 110.984 78.4062 110.302 78 109.531C77.5938 108.76 77.3906 107.885 77.3906 106.906C77.3906 106.302 77.5312 105.698 77.8125 105.094C78.1042 104.479 78.4948 103.932 78.9844 103.453C79.474 102.964 80.0729 102.568 80.7812 102.266C81.5 101.953 82.2552 101.797 83.0469 101.797C83.776 101.797 84.375 101.854 84.8438 101.969C85.3125 102.073 85.8958 102.26 86.5938 102.531C87.2917 102.802 87.9479 103.026 88.5625 103.203C88.6146 102.797 88.776 102.453 89.0469 102.172C89.3177 101.88 89.6667 101.734 90.0938 101.734C90.4792 101.734 90.8229 101.896 91.125 102.219C91.4375 102.542 91.5938 102.911 91.5938 103.328C91.5938 103.755 91.4583 104.125 91.1875 104.438C90.9271 104.74 90.5938 104.891 90.1875 104.891C89.9479 104.891 89.7083 104.849 89.4688 104.766C89.2292 104.682 89.0312 104.599 88.875 104.516C88.7292 104.422 88.5104 104.276 88.2188 104.078C87.9271 103.87 87.6979 103.714 87.5312 103.609L87.4688 103.688C87.8542 104.031 88.1458 104.474 88.3438 105.016C88.5521 105.547 88.6562 106.104 88.6562 106.688ZM80.5 120.156C80.5 120.573 80.5625 120.969 80.6875 121.344C80.8125 121.719 81.0104 122.073 81.2812 122.406C81.5521 122.74 81.9323 123 82.4219 123.188C82.9219 123.385 83.5052 123.484 84.1719 123.484C85.026 123.484 85.7812 123.349 86.4375 123.078C87.1042 122.818 87.6094 122.49 87.9531 122.094C88.2969 121.698 88.5521 121.312 88.7188 120.938C88.8854 120.573 88.9688 120.24 88.9688 119.938C88.9688 119.521 88.9323 119.167 88.8594 118.875C88.7865 118.594 88.6458 118.318 88.4375 118.047C88.2396 117.786 87.9271 117.589 87.5 117.453C87.0729 117.318 86.5312 117.25 85.875 117.25C85.5208 117.25 84.8594 117.271 83.8906 117.312C82.9219 117.354 82.3021 117.375 82.0312 117.375C81.5521 117.708 81.1771 118.12 80.9062 118.609C80.6354 119.099 80.5 119.615 80.5 120.156ZM80.5625 106.938C80.5625 109.719 81.3906 111.109 83.0469 111.109C83.8385 111.109 84.4427 110.766 84.8594 110.078C85.276 109.391 85.4844 108.25 85.4844 106.656C85.4844 105.927 85.401 105.297 85.2344 104.766C85.0677 104.224 84.849 103.823 84.5781 103.562C84.3177 103.292 84.0521 103.099 83.7812 102.984C83.5208 102.87 83.2552 102.812 82.9844 102.812C82.2865 102.812 81.7083 103.141 81.25 103.797C80.7917 104.453 80.5625 105.5 80.5625 106.938ZM93.125 103.141C95.1458 102.932 96.9062 102.505 98.4062 101.859C98.6667 101.964 98.849 102.099 98.9531 102.266V104.953C99.3385 104.224 99.9115 103.516 100.672 102.828C101.443 102.141 102.245 101.797 103.078 101.797C103.703 101.797 104.208 101.984 104.594 102.359C104.99 102.724 105.188 103.229 105.188 103.875C105.188 104.49 105.005 104.969 104.641 105.312C104.276 105.656 103.818 105.828 103.266 105.828C102.755 105.828 102.333 105.667 102 105.344C101.677 105.01 101.5 104.573 101.469 104.031C101.031 104.219 100.531 104.635 99.9688 105.281C99.4167 105.927 99.0781 106.568 98.9531 107.203C98.9531 109.526 98.9948 111.745 99.0781 113.859C99.0885 114.13 99.1875 114.365 99.375 114.562C99.5625 114.75 99.8385 114.896 100.203 115C100.568 115.104 100.87 115.182 101.109 115.234C101.349 115.276 101.661 115.318 102.047 115.359C102.109 115.484 102.141 115.615 102.141 115.75C102.141 115.854 102.109 115.969 102.047 116.094C100.484 116.031 98.9375 116 97.4062 116C96.1354 116 94.8125 116.031 93.4375 116.094C93.3958 115.927 93.375 115.812 93.375 115.75C93.375 115.698 93.3958 115.568 93.4375 115.359C93.7812 115.318 94.0625 115.276 94.2812 115.234C94.5 115.182 94.7708 115.104 95.0938 115C95.4167 114.896 95.6615 114.75 95.8281 114.562C95.9948 114.365 96.0833 114.13 96.0938 113.859C96.1354 112.828 96.1562 111.578 96.1562 110.109C96.1562 109.62 96.151 108.786 96.1406 107.609C96.1302 106.432 96.125 105.401 96.125 104.516C95.5312 104.151 94.5312 103.938 93.125 103.875C93.0833 103.708 93.0625 103.578 93.0625 103.484C93.0625 103.422 93.0833 103.307 93.125 103.141ZM108.656 105.734C108.656 104.589 109.177 103.646 110.219 102.906C111.271 102.167 112.51 101.797 113.938 101.797C115.688 101.797 116.917 102.146 117.625 102.844C118.344 103.542 118.703 104.719 118.703 106.375V112.859C118.703 113.443 118.917 113.734 119.344 113.734C119.688 113.734 120.125 113.318 120.656 112.484C121.031 112.516 121.286 112.682 121.422 112.984C121.349 113.089 121.224 113.276 121.047 113.547C120.87 113.818 120.74 114.01 120.656 114.125C120.573 114.24 120.443 114.417 120.266 114.656C120.089 114.885 119.943 115.057 119.828 115.172C119.724 115.286 119.578 115.422 119.391 115.578C119.214 115.734 119.047 115.854 118.891 115.938C118.745 116.01 118.573 116.073 118.375 116.125C118.177 116.188 117.979 116.219 117.781 116.219C117.26 116.219 116.828 116.031 116.484 115.656C116.151 115.281 115.953 114.703 115.891 113.922C115.88 113.932 115.719 114.083 115.406 114.375C115.094 114.667 114.875 114.865 114.75 114.969C114.635 115.062 114.411 115.234 114.078 115.484C113.755 115.724 113.479 115.896 113.25 116C113.021 116.104 112.734 116.203 112.391 116.297C112.047 116.401 111.708 116.453 111.375 116.453C110.844 116.453 110.37 116.38 109.953 116.234C109.547 116.089 109.229 115.911 109 115.703C108.771 115.495 108.583 115.255 108.438 114.984C108.292 114.703 108.193 114.448 108.141 114.219C108.099 113.99 108.078 113.76 108.078 113.531C108.078 112.833 108.193 112.245 108.422 111.766C108.661 111.286 109.099 110.839 109.734 110.422C110.38 110.005 111.172 109.635 112.109 109.312C113.047 108.99 114.307 108.625 115.891 108.219V106.047C115.891 104.995 115.656 104.208 115.188 103.688C114.729 103.167 114.109 102.906 113.328 102.906C112.63 102.906 112.042 103.047 111.562 103.328C111.094 103.599 110.807 103.917 110.703 104.281C111.724 104.438 112.234 104.995 112.234 105.953C112.234 106.391 112.078 106.776 111.766 107.109C111.453 107.443 111.016 107.609 110.453 107.609C109.984 107.609 109.568 107.448 109.203 107.125C108.839 106.792 108.656 106.328 108.656 105.734ZM115.891 112.484V109.219C114.932 109.438 114.141 109.677 113.516 109.938C112.891 110.188 112.411 110.464 112.078 110.766C111.755 111.068 111.531 111.38 111.406 111.703C111.281 112.016 111.219 112.38 111.219 112.797C111.219 113.318 111.37 113.729 111.672 114.031C111.984 114.323 112.365 114.469 112.812 114.469C113.854 114.469 114.88 113.807 115.891 112.484ZM141.938 115.359C142.198 115.318 142.411 115.276 142.578 115.234C142.755 115.182 142.948 115.104 143.156 115C143.365 114.896 143.521 114.75 143.625 114.562C143.729 114.365 143.781 114.13 143.781 113.859L143.812 106.438C143.812 104.552 143.25 103.609 142.125 103.609C141.562 103.609 140.953 103.786 140.297 104.141C139.641 104.495 138.854 105.026 137.938 105.734V105.922L138.062 113.859C138.073 114.13 138.151 114.365 138.297 114.562C138.453 114.75 138.672 114.896 138.953 115C139.234 115.104 139.469 115.182 139.656 115.234C139.844 115.276 140.089 115.318 140.391 115.359C140.432 115.568 140.453 115.708 140.453 115.781C140.453 115.865 140.432 115.969 140.391 116.094C139.047 116.031 137.823 116 136.719 116C135.708 116 134.531 116.031 133.188 116.094C133.146 115.927 133.125 115.802 133.125 115.719C133.125 115.646 133.146 115.526 133.188 115.359C133.448 115.318 133.667 115.276 133.844 115.234C134.021 115.182 134.214 115.104 134.422 115C134.63 114.896 134.786 114.75 134.891 114.562C134.995 114.365 135.047 114.13 135.047 113.859L135.078 106.438C135.078 104.552 134.516 103.609 133.391 103.609C132.828 103.609 132.229 103.781 131.594 104.125C130.969 104.469 130.182 104.995 129.234 105.703C129.234 108.755 129.276 111.474 129.359 113.859C129.37 114.13 129.443 114.365 129.578 114.562C129.714 114.75 129.906 114.896 130.156 115C130.417 115.104 130.641 115.182 130.828 115.234C131.016 115.276 131.25 115.318 131.531 115.359C131.594 115.484 131.625 115.615 131.625 115.75C131.625 115.854 131.594 115.969 131.531 116.094C130.156 116.031 128.875 116 127.688 116C126.417 116 125.094 116.031 123.719 116.094C123.677 115.927 123.656 115.812 123.656 115.75C123.656 115.698 123.677 115.568 123.719 115.359C124.062 115.318 124.344 115.276 124.562 115.234C124.781 115.182 125.052 115.104 125.375 115C125.698 114.896 125.943 114.75 126.109 114.562C126.276 114.365 126.365 114.13 126.375 113.859C126.417 112.828 126.438 111.578 126.438 110.109C126.438 109.62 126.432 108.786 126.422 107.609C126.411 106.432 126.406 105.401 126.406 104.516C125.812 104.151 124.812 103.938 123.406 103.875C123.365 103.708 123.344 103.578 123.344 103.484C123.344 103.422 123.365 103.307 123.406 103.141C125.427 102.932 127.188 102.505 128.688 101.859C128.948 101.964 129.13 102.099 129.234 102.266V104.734C129.724 104.286 130.135 103.927 130.469 103.656C130.802 103.375 131.208 103.073 131.688 102.75C132.177 102.427 132.661 102.188 133.141 102.031C133.63 101.875 134.13 101.797 134.641 101.797C135.661 101.797 136.422 102.042 136.922 102.531C137.422 103.01 137.734 103.766 137.859 104.797C138.391 104.318 138.812 103.948 139.125 103.688C139.448 103.427 139.865 103.125 140.375 102.781C140.885 102.438 141.385 102.188 141.875 102.031C142.365 101.875 142.865 101.797 143.375 101.797C144.552 101.797 145.391 102.13 145.891 102.797C146.391 103.464 146.651 104.505 146.672 105.922L146.828 113.859C146.839 114.13 146.917 114.365 147.062 114.562C147.219 114.75 147.438 114.896 147.719 115C148 115.104 148.234 115.182 148.422 115.234C148.609 115.276 148.854 115.318 149.156 115.359C149.208 115.62 149.234 115.76 149.234 115.781C149.234 115.833 149.208 115.938 149.156 116.094C147.812 116.031 146.578 116 145.453 116C144.453 116 143.281 116.031 141.938 116.094C141.885 115.885 141.859 115.76 141.859 115.719C141.859 115.688 141.885 115.568 141.938 115.359Z" fill="black"/>
<path d="M87.6307 60H64.3693C54.242 60 46 51.758 46 41.6308V18.3693C46 8.24202 54.242 0 64.3693 0H87.6307C97.758 0 106 8.24202 106 18.3693V41.6308C106 51.758 97.758 60 87.6307 60ZM64.3693 4.48715C56.7193 4.48715 50.4871 10.7115 50.4871 18.3693V41.6308C50.4871 49.2807 56.7115 55.5129 64.3693 55.5129H87.6307C95.2807 55.5129 101.513 49.2885 101.513 41.6308V18.3693C101.513 10.7193 95.2885 4.48715 87.6307 4.48715H64.3693Z" fill="#0B040F"/>
<path d="M76 45.1753C67.6333 45.1753 60.8247 38.3667 60.8247 30C60.8247 21.6333 67.6333 14.8247 76 14.8247C84.3667 14.8247 91.1753 21.6333 91.1753 30C91.1753 38.3667 84.3667 45.1753 76 45.1753ZM76 19.4209C70.1652 19.4209 65.4209 24.1652 65.4209 30C65.4209 35.8349 70.1652 40.5791 76 40.5791C81.8348 40.5791 86.5791 35.8349 86.5791 30C86.5791 24.1652 81.8348 19.4209 76 19.4209Z" fill="#0B040F"/>
<path d="M96.7842 13.1654C96.7842 15.3467 95.0158 17.115 92.8346 17.115C90.6533 17.115 88.885 15.3467 88.885 13.1654C88.885 10.9842 90.6533 9.21579 92.8346 9.21579C95.0158 9.21579 96.7842 10.9842 96.7842 13.1654Z" fill="#0B040F"/>
</svg>
