<svg width="1280" height="134" viewBox="0 0 1280 134" fill="none" xmlns="http://www.w3.org/2000/svg">
<path d="M154.61 72.392C154.61 74.1413 154.12 75.6987 153.138 77.064C152.925 77.2773 152.712 77.4907 152.498 77.704C152.328 77.9173 152.136 78.1307 151.922 78.344C150.002 80.008 147.4 80.84 144.114 80.84C141.853 80.84 139.89 80.4773 138.226 79.752C138.013 79.6667 137.8 79.6027 137.586 79.56C137.416 79.56 137.224 79.56 137.01 79.56H136.37C135.901 79.7733 135.453 79.944 135.026 80.072C134.6 80.2427 134.152 80.4133 133.682 80.584C133.085 78.9627 132.466 77.384 131.826 75.848C131.186 74.2693 130.568 72.6693 129.97 71.048C130.141 70.92 130.29 70.792 130.418 70.664C130.589 70.536 130.781 70.4293 130.994 70.344C132.829 72.904 134.578 74.7813 136.242 75.976C138.888 77.6827 141.49 78.536 144.05 78.536C146.056 78.536 147.741 77.9173 149.106 76.68C150.216 75.5707 150.77 74.2267 150.77 72.648C150.77 71.624 150.365 70.7067 149.554 69.896C149.384 69.768 149.17 69.6187 148.914 69.448C148.658 69.2773 148.36 69.0853 148.018 68.872C147.464 68.5307 146.738 68.1893 145.842 67.848C144.946 67.464 143.858 67.0587 142.578 66.632C140.573 65.9493 138.909 65.3307 137.586 64.776C136.264 64.1787 135.261 63.6027 134.578 63.048C132.018 61.4693 130.738 59.3787 130.738 56.776C130.738 54.3867 131.869 52.488 134.13 51.08C135.837 50.0133 137.97 49.48 140.53 49.48C142.749 49.48 145.032 49.9067 147.378 50.76C147.72 50.6747 148.082 50.5253 148.466 50.312C148.85 50.056 149.277 49.7573 149.746 49.416C150.344 50.952 150.941 52.5093 151.538 54.088C152.136 55.624 152.733 57.1813 153.33 58.76C153.117 58.8453 152.904 58.952 152.69 59.08C152.52 59.208 152.328 59.3147 152.114 59.4C151.048 57.352 149.618 55.688 147.826 54.408C145.181 52.6587 142.749 51.784 140.53 51.784C138.909 51.784 137.629 52.0613 136.69 52.616C135.282 53.384 134.578 54.7067 134.578 56.584C134.578 57.7787 135.197 58.8027 136.434 59.656C136.605 59.7413 136.776 59.8267 136.946 59.912C137.117 59.9973 137.309 60.0827 137.522 60.168C138.12 60.5093 138.866 60.872 139.762 61.256C140.658 61.64 141.661 62.0027 142.77 62.344C145.074 63.0693 146.973 63.7947 148.466 64.52C150.002 65.2027 151.176 65.8427 151.986 66.44C153.736 67.848 154.61 69.832 154.61 72.392ZM186.626 65.224C186.626 70.0027 185.26 73.8213 182.53 76.68C179.927 79.5387 176.599 80.968 172.546 80.968C168.45 80.968 165.1 79.5387 162.498 76.68C159.767 73.8213 158.402 70.0027 158.402 65.224C158.402 60.4453 159.767 56.6267 162.498 53.768C165.1 50.9093 168.45 49.48 172.546 49.48C176.599 49.48 179.927 50.9093 182.53 53.768C185.26 56.6267 186.626 60.4453 186.626 65.224ZM182.274 65.224C182.274 61.2987 181.335 58.0773 179.458 55.56C177.708 53.0427 175.404 51.784 172.546 51.784C169.73 51.784 167.383 53.0427 165.506 55.56C163.671 58.0773 162.754 61.2987 162.754 65.224C162.754 69.1067 163.65 72.328 165.442 74.888C167.276 77.3627 169.644 78.6 172.546 78.6C175.319 78.6 177.623 77.3627 179.458 74.888C181.335 72.3707 182.274 69.1493 182.274 65.224ZM206.985 39.816C206.047 39.816 205.151 39.5173 204.297 38.92C203.7 38.4933 203.252 38.2587 202.953 38.216C202.655 38.1307 202.335 38.088 201.993 38.088C201.183 38.088 200.479 38.8987 199.881 40.52C199.668 41.0747 199.54 41.6507 199.497 42.248C199.455 42.8453 199.433 43.4853 199.433 44.168V50.632H206.409V53.064H199.433V74.312C199.433 75.976 200.095 77 201.417 77.384C202.271 77.5973 203.7 77.704 205.705 77.704V79.752H190.217V77.704C191.327 77.704 192.223 77.64 192.905 77.512C193.588 77.384 194.121 77.2133 194.505 77C194.889 76.7867 195.145 76.4667 195.273 76.04C195.401 75.5707 195.465 74.9947 195.465 74.312V53.064H190.281V50.632H195.465V46.664C195.465 43.336 196.34 40.4773 198.089 38.088C200.052 35.4 202.548 34.056 205.577 34.056C206.687 34.056 207.604 34.312 208.329 34.824C209.14 35.3787 209.545 36.1893 209.545 37.256C209.545 37.9813 209.268 38.6 208.713 39.112C208.159 39.5813 207.583 39.816 206.985 39.816ZM229.694 73.48C229.907 73.6507 230.099 73.8 230.27 73.928C230.483 74.056 230.696 74.184 230.91 74.312C230.142 76.104 229.096 77.5973 227.774 78.792C226.28 80.2 224.659 80.904 222.91 80.904C220.606 80.904 218.856 80.072 217.662 78.408C217.32 77.8107 217.043 77.128 216.83 76.36C216.616 75.592 216.51 74.7387 216.51 73.8V52.616H211.518V50.568C213.822 50.568 215.528 49.6933 216.638 47.944C217.875 45.9387 218.494 43.08 218.494 39.368H220.414V50.12H228.798V52.616H220.414V74.248C220.414 76.5093 221.608 77.64 223.998 77.64C225.918 77.64 227.816 76.2533 229.694 73.48ZM263.791 80.648C262.511 77.448 261.21 74.2267 259.887 70.984C258.607 67.7413 257.327 64.4987 256.047 61.256C254.81 64.4987 253.573 67.7413 252.335 70.984C251.098 74.2267 249.861 77.448 248.623 80.648H247.215C245.509 76.2533 243.802 71.9227 242.095 67.656C240.431 63.3467 238.746 58.9947 237.039 54.6C236.741 53.6613 236.314 53.0427 235.759 52.744C235.034 52.36 233.967 52.168 232.559 52.168V50.12H245.231V52.168C243.525 52.168 242.373 52.2747 241.775 52.488C241.221 52.6587 240.943 52.9147 240.943 53.256C240.943 53.4267 241.007 53.64 241.135 53.896C241.349 54.3227 241.519 54.7493 241.647 55.176C241.818 55.56 242.01 55.9653 242.223 56.392C243.333 59.2507 244.421 62.088 245.487 64.904C246.554 67.6773 247.621 70.4933 248.687 73.352C249.711 70.664 250.714 68.0613 251.695 65.544C252.677 62.984 253.679 60.36 254.703 57.672C254.49 57.2027 254.277 56.7333 254.063 56.264C253.893 55.7947 253.701 55.3253 253.487 54.856C253.061 53.6613 252.57 52.9147 252.015 52.616C251.546 52.36 250.65 52.232 249.327 52.232V50.12H261.807V52.168C259.546 52.168 258.117 52.4027 257.519 52.872C257.306 53.0853 257.199 53.32 257.199 53.576C257.199 53.6187 257.242 53.8107 257.327 54.152L265.199 73.736C266.351 70.4933 267.482 67.2507 268.591 64.008C269.743 60.7653 270.895 57.5227 272.047 54.28C272.133 53.9387 272.175 53.7253 272.175 53.64C272.175 53.384 272.09 53.1493 271.919 52.936C271.45 52.424 270.17 52.168 268.079 52.168V50.12H279.151V52.168C277.445 52.168 276.271 52.36 275.631 52.744C275.162 53.0427 274.757 53.6187 274.415 54.472C272.922 58.8667 271.407 63.24 269.871 67.592C268.378 71.9013 266.885 76.2533 265.391 80.648H263.791ZM286.587 51.464C289.147 50.2693 292.091 49.672 295.419 49.672C298.107 49.672 300.283 50.376 301.947 51.784C303.739 53.4053 304.635 55.6667 304.635 58.568V75.144C304.635 75.3573 304.635 75.6133 304.635 75.912C304.678 76.2107 304.721 76.5093 304.763 76.808C304.849 77.1067 304.955 77.3627 305.083 77.576C305.254 77.7893 305.446 77.896 305.659 77.896C306.299 77.896 307.217 77.4267 308.411 76.488L309.179 77.448C307.302 79.7093 305.638 80.84 304.187 80.84C302.31 80.84 301.179 79.6453 300.795 77.256C298.15 79.6453 294.779 80.84 290.683 80.84C289.275 80.84 287.995 80.6907 286.843 80.392C285.734 80.0933 284.795 79.624 284.027 78.984C282.449 77.6613 281.659 75.8053 281.659 73.416C281.659 71.624 282.257 70.024 283.451 68.616C284.689 67.1653 286.267 65.9707 288.187 65.032C291.473 63.3253 295.654 62.152 300.731 61.512V57.544C300.731 55.88 300.219 54.536 299.195 53.512C298.598 52.9147 297.894 52.488 297.083 52.232C296.315 51.976 295.483 51.848 294.587 51.848C292.881 51.848 291.43 52.1893 290.235 52.872C289.51 53.3413 288.934 53.8107 288.507 54.28C288.081 54.7067 287.867 55.1973 287.867 55.752V56.072C287.867 58.1627 286.95 59.208 285.115 59.208C283.451 59.208 282.619 58.248 282.619 56.328C282.619 54.3227 283.942 52.7013 286.587 51.464ZM300.731 63.944C296.977 64.328 293.499 65.3947 290.299 67.144C287.398 68.7653 285.947 70.8347 285.947 73.352C285.947 74.7173 286.502 75.8267 287.611 76.68C288.721 77.4907 290.107 77.896 291.771 77.896C293.307 77.896 294.907 77.5973 296.571 77C297.937 76.5307 299.323 75.72 300.731 74.568V63.944ZM335.458 52.424C335.458 54.6427 334.477 55.752 332.514 55.752C331.704 55.752 330.808 55.3893 329.826 54.664C329.101 54.0667 328.312 53.768 327.458 53.768C326.349 53.768 324.962 54.408 323.298 55.688C321.976 56.712 320.696 57.8853 319.458 59.208V74.696C319.458 75.8907 319.672 76.68 320.098 77.064C320.568 77.4907 321.741 77.704 323.618 77.704V79.752H311.458V77.704C312.568 77.704 313.421 77.6187 314.018 77.448C314.616 77.2773 315.021 77.0213 315.234 76.68C315.448 76.3387 315.554 75.8053 315.554 75.08V56.392C315.554 55.5387 315.405 54.9627 315.106 54.664C314.936 54.4933 314.573 54.3013 314.018 54.088C313.421 53.96 312.696 53.896 311.842 53.896C311.757 53.6827 311.693 53.4693 311.65 53.256C311.608 53.0427 311.544 52.8293 311.458 52.616C312.824 52.0613 314.168 51.528 315.49 51.016C316.813 50.4613 318.136 49.9067 319.458 49.352V55.944C320.482 54.9627 321.506 54.0667 322.53 53.256C323.554 52.4453 324.557 51.7627 325.538 51.208C327.672 49.9707 329.741 49.352 331.746 49.352C334.221 49.352 335.458 50.376 335.458 52.424ZM365.029 72.072C365.242 72.2427 365.455 72.4133 365.669 72.584C365.925 72.7547 366.159 72.9253 366.373 73.096C365.349 74.632 364.218 75.912 362.981 76.936C361.743 77.96 360.421 78.8133 359.013 79.496C357.093 80.4347 355.023 80.904 352.805 80.904C348.581 80.904 345.125 79.56 342.437 76.872C339.578 74.0133 338.149 70.152 338.149 65.288C338.149 60.5947 339.514 56.8187 342.245 53.96C344.933 51.016 348.346 49.544 352.485 49.544C356.623 49.544 359.887 50.7387 362.277 53.128C364.837 55.56 366.117 59.08 366.117 63.688C362.149 63.816 358.245 63.9653 354.405 64.136C350.565 64.264 346.639 64.392 342.629 64.52C342.629 64.6907 342.607 64.8613 342.565 65.032C342.565 65.16 342.565 65.3093 342.565 65.48C342.565 67.272 342.799 68.8933 343.269 70.344C343.781 71.7947 344.506 73.096 345.445 74.248C347.407 76.808 350.159 78.088 353.701 78.088C355.578 78.088 357.541 77.5973 359.589 76.616C360.527 76.0613 361.445 75.4213 362.341 74.696C363.279 73.928 364.175 73.0533 365.029 72.072ZM342.757 62.088C345.957 62.0027 349.114 61.896 352.229 61.768C355.343 61.64 358.501 61.5333 361.701 61.448C361.658 58.632 360.783 56.3707 359.077 54.664C357.327 52.7867 355.13 51.848 352.485 51.848C349.925 51.848 347.685 52.872 345.765 54.92C343.973 56.7973 342.97 59.1867 342.757 62.088Z" fill="black"/>
<line x1="443.986" y1="66.5" x2="1356.01" y2="66.5" stroke="black"/>
</svg>
