<svg width="522" height="98" viewBox="0 0 522 98" fill="none" xmlns="http://www.w3.org/2000/svg">
<path d="M27.3358 94.9999C26.8238 94.9999 26.5678 94.3599 26.5678 93.0799C26.5678 91.9706 26.8238 91.4159 27.3358 91.4159H29.2558C33.0958 91.4159 35.9118 90.8186 37.7038 89.6239C39.4958 88.3439 40.3918 86.2533 40.3918 83.3519V13.7199C40.3918 10.4773 39.5384 8.34392 37.8318 7.31992C36.2104 6.21059 33.7784 5.65592 30.5358 5.65592C29.2558 5.65592 28.1891 5.69859 27.3358 5.78392C23.8371 5.95458 19.8264 7.40525 15.3038 10.1359C10.8664 12.7813 7.28244 15.9386 4.55177 19.6079C4.03977 20.2053 3.57044 20.5039 3.14377 20.5039C2.88777 20.5039 2.58911 20.4186 2.24777 20.2479C1.39444 19.9066 0.967773 19.5226 0.967773 19.0959L1.09577 18.4559C1.69311 16.8346 2.58911 14.3599 3.78377 11.0319C5.06377 7.61859 6.21577 4.63192 7.23977 2.07192H83.6558C84.6798 4.63192 85.7891 7.61859 86.9838 11.0319C88.2638 14.3599 89.2024 16.8346 89.7998 18.4559L89.9278 19.0959C89.9278 19.5226 89.5011 19.9066 88.6478 20.2479C88.3064 20.4186 88.0078 20.5039 87.7518 20.5039C87.3251 20.5039 86.8558 20.2053 86.3438 19.6079C83.6131 15.9386 79.9864 12.7813 75.4638 10.1359C71.0264 7.40525 67.0584 5.95458 63.5598 5.78392C62.7918 5.69859 61.7251 5.65592 60.3598 5.65592C57.0318 5.65592 54.5571 6.21059 52.9358 7.31992C51.3144 8.42925 50.5038 10.5626 50.5038 13.7199V83.3519C50.5038 86.3386 51.3998 88.4293 53.1918 89.6239C55.0691 90.8186 57.8851 91.4159 61.6398 91.4159H63.5598C64.1571 91.4159 64.4558 91.9706 64.4558 93.0799C64.4558 94.3599 64.1571 94.9999 63.5598 94.9999H27.3358Z" fill="black" fill-opacity="0.3"/>
<path d="M128.861 96.7919C122.802 96.7919 117.469 95.2133 112.861 92.0559C108.338 88.8133 104.839 84.7173 102.365 79.7679C99.9754 74.8186 98.7808 69.7839 98.7808 64.6639C98.7808 59.2026 99.9754 53.9973 102.365 49.0479C104.754 44.0986 108.21 40.0879 112.733 37.0159C117.341 33.9439 122.717 32.4079 128.861 32.4079C135.005 32.4079 140.381 33.9439 144.989 37.0159C149.597 40.0879 153.095 44.0986 155.485 49.0479C157.959 53.9973 159.197 59.2026 159.197 64.6639C159.197 69.7839 157.959 74.8186 155.485 79.7679C153.095 84.7173 149.597 88.8133 144.989 92.0559C140.381 95.2133 135.005 96.7919 128.861 96.7919ZM128.861 92.3119C134.919 92.3119 139.698 89.7093 143.197 84.5039C146.781 79.2133 148.573 72.5999 148.573 64.6639C148.573 56.3013 146.823 49.6026 143.325 44.5679C139.826 39.4479 135.005 36.8879 128.861 36.8879C122.802 36.8879 118.023 39.4479 114.525 44.5679C111.026 49.6879 109.277 56.3866 109.277 64.6639C109.277 69.7839 110.045 74.4773 111.581 78.7439C113.202 82.9253 115.463 86.2533 118.365 88.7279C121.351 91.1173 124.85 92.3119 128.861 92.3119Z" fill="black" fill-opacity="0.3"/>
<path d="M235.251 90.1359C236.36 90.1359 237.043 90.2639 237.299 90.5199C237.64 90.7759 237.811 91.1599 237.811 91.6719C237.811 92.5253 237.512 93.0373 236.915 93.2079L218.867 96.1519L218.739 84.6319C213.107 92.3119 206.323 96.1519 198.387 96.1519C191.048 96.1519 185.8 94.2746 182.643 90.5199C179.571 86.7653 178.035 82.1573 178.035 76.6959L177.907 46.8719C177.907 45.0799 177.48 43.7573 176.627 42.9039C175.859 42.0506 174.877 41.4959 173.683 41.2399C172.488 40.9839 170.696 40.7279 168.307 40.4719C167.709 40.3866 167.325 40.2159 167.155 39.9599C167.069 39.6186 167.027 39.2346 167.027 38.8079C167.027 37.8693 167.283 37.3146 167.795 37.1439C169.075 36.7173 175.475 35.0959 186.995 32.2799V51.3519C186.995 65.1759 187.037 73.1119 187.123 75.1599C187.293 79.0853 188.36 82.5413 190.323 85.5279C192.371 88.4293 195.741 89.8799 200.435 89.8799C203.848 89.8799 207.176 88.9413 210.419 87.0639C213.661 85.1866 216.392 82.3279 218.611 78.4879L218.099 46.9999C218.099 45.2079 217.672 43.8853 216.819 43.0319C216.051 42.1786 215.112 41.6239 214.003 41.3679C212.893 41.1119 211.059 40.8133 208.499 40.4719C207.731 40.3866 207.347 39.7039 207.347 38.4239C207.347 37.8266 207.603 37.4426 208.115 37.2719C209.395 36.8453 215.752 35.2239 227.187 32.4079L227.443 84.1199C227.443 87.2773 229.149 89.1973 232.563 89.8799C233.587 90.0506 234.483 90.1359 235.251 90.1359Z" fill="black" fill-opacity="0.3"/>
<path d="M288.949 32.4079C291.509 32.4079 293.685 33.0906 295.477 34.4559C297.269 35.7359 298.165 37.3999 298.165 39.4479C298.165 40.8986 297.61 42.1359 296.501 43.1599C295.477 44.1839 294.154 44.6959 292.533 44.6959C291.253 44.6959 289.631 44.0559 287.669 42.7759C286.389 42.0933 285.365 41.5813 284.597 41.2399C283.829 40.8986 282.975 40.7279 282.037 40.7279C279.989 40.7279 277.77 41.5813 275.381 43.2879C272.991 44.9946 270.602 47.2986 268.213 50.1999L268.085 86.2959C268.085 88.4293 268.81 89.8373 270.261 90.5199C271.797 91.2026 273.845 91.5439 276.405 91.5439H278.069C278.751 91.5439 279.093 92.1413 279.093 93.3359C279.093 94.4453 278.751 94.9999 278.069 94.9999H249.397C248.799 94.9999 248.501 94.4453 248.501 93.3359C248.501 92.1413 248.799 91.5439 249.397 91.5439H251.061C253.535 91.5439 255.498 91.2026 256.949 90.5199C258.485 89.8373 259.253 88.4293 259.253 86.2959L258.869 46.8719C258.869 45.0799 258.442 43.7573 257.589 42.9039C256.821 42.0506 255.882 41.5386 254.773 41.3679C253.749 41.1119 251.914 40.8133 249.269 40.4719C248.757 40.3866 248.415 40.1733 248.245 39.8319C248.159 39.4906 248.117 38.9786 248.117 38.2959C248.117 37.6986 248.33 37.3146 248.757 37.1439C250.037 36.6319 256.522 35.0106 268.213 32.2799V44.8239C271.455 41.2399 274.869 38.2959 278.453 35.9919C282.122 33.6026 285.621 32.4079 288.949 32.4079Z" fill="black" fill-opacity="0.3"/>
<path d="M318.84 16.0239C316.706 16.0239 314.914 15.2986 313.464 13.8479C312.013 12.3973 311.288 10.6053 311.288 8.47192C311.288 6.33858 312.013 4.54659 313.464 3.09592C314.914 1.64525 316.706 0.919922 318.84 0.919922C320.973 0.919922 322.765 1.64525 324.216 3.09592C325.666 4.54659 326.392 6.33858 326.392 8.47192C326.392 10.6053 325.666 12.3973 324.216 13.8479C322.765 15.2986 320.973 16.0239 318.84 16.0239ZM305.4 94.9999C304.717 94.9999 304.376 94.4026 304.376 93.2079C304.376 92.0133 304.717 91.4159 305.4 91.4159H307.064C309.538 91.4159 311.501 91.0746 312.952 90.3919C314.488 89.7093 315.256 88.2586 315.256 86.0399L314.872 46.9999C314.872 45.2079 314.445 43.8853 313.592 43.0319C312.824 42.1786 311.885 41.6666 310.776 41.4959C309.752 41.2399 307.917 40.9413 305.272 40.5999C304.76 40.5146 304.418 40.3866 304.248 40.2159C304.162 40.0453 304.12 39.6613 304.12 39.0639C304.12 38.6373 304.162 38.2533 304.248 37.9119C304.333 37.5706 304.504 37.3573 304.76 37.2719C306.04 36.7599 312.525 35.1386 324.216 32.4079L324.088 86.0399C324.088 88.2586 324.813 89.7093 326.264 90.3919C327.8 91.0746 329.848 91.4159 332.408 91.4159H334.072C334.669 91.4159 334.968 92.0133 334.968 93.2079C334.968 94.4026 334.669 94.9999 334.072 94.9999H305.4Z" fill="black" fill-opacity="0.3"/>
<path d="M346.665 78.1039L346.537 77.4639C346.537 76.9519 346.878 76.5253 347.561 76.1839C347.731 76.0986 347.945 76.0559 348.201 76.0559C348.798 76.0559 349.31 76.3973 349.737 77.0799C351.785 79.7253 353.79 82.1146 355.753 84.2479C357.715 86.2959 360.489 88.2586 364.073 90.1359C367.742 91.9279 371.923 92.8239 376.617 92.8239C380.457 92.8239 383.571 91.7573 385.961 89.6239C388.435 87.4053 389.673 84.6319 389.673 81.3039C389.673 79.3413 389.118 77.5493 388.009 75.9279C386.899 74.3066 385.321 73.0266 383.273 72.0879C381.139 71.0639 376.83 69.6133 370.345 67.7359C367.017 66.9679 364.329 66.1573 362.281 65.3039C353.833 61.8053 349.609 56.5146 349.609 49.4319C349.609 47.5546 350.078 45.3359 351.017 42.7759C352.041 40.1306 353.918 37.7413 356.649 35.6079C359.465 33.4746 363.39 32.4079 368.425 32.4079C371.155 32.4079 373.502 32.7493 375.465 33.4319C377.513 34.0293 378.707 34.3706 379.049 34.4559C380.67 35.0533 381.737 35.3519 382.249 35.3519C383.529 35.3519 384.851 35.0106 386.217 34.3279C387.582 33.5599 388.606 32.5786 389.289 31.3839L394.537 48.1519L394.793 49.0479C394.793 49.4746 394.451 49.9013 393.769 50.3279C393.598 50.4133 393.342 50.4559 393.001 50.4559C392.489 50.4559 392.019 50.2426 391.593 49.8159C388.521 46.3173 385.15 43.2453 381.481 40.5999C377.811 37.8693 373.289 36.5039 367.913 36.5039C365.097 36.5039 362.75 37.0586 360.873 38.1679C359.081 39.2773 357.758 40.5999 356.905 42.1359C356.137 43.6719 355.753 45.1226 355.753 46.4879C355.753 48.3653 356.35 49.9866 357.545 51.3519C358.825 52.6319 360.873 53.9546 363.689 55.3199C365.481 56.2586 368.937 57.4533 374.057 58.9039C379.603 60.6106 383.657 62.0186 386.217 63.1279C393.726 66.5413 397.481 71.7039 397.481 78.6159C397.481 83.9919 395.475 88.3866 391.465 91.7999C387.454 95.1279 381.993 96.7919 375.081 96.7919C371.411 96.7919 366.803 95.8959 361.257 94.1039C359.209 93.5066 357.971 93.2079 357.545 93.2079C356.521 93.2079 355.539 93.5066 354.601 94.1039C353.747 94.7013 352.681 95.7253 351.401 97.1759L346.665 78.1039Z" fill="black" fill-opacity="0.3"/>
<path d="M520.492 91.5439C521.174 91.5439 521.516 92.1413 521.516 93.3359C521.516 94.4453 521.174 94.9999 520.492 94.9999H491.82C491.222 94.9999 490.924 94.4453 490.924 93.3359C490.924 92.7386 490.966 92.3119 491.052 92.0559C491.222 91.7146 491.478 91.5439 491.82 91.5439H493.484C495.958 91.5439 497.921 91.2026 499.372 90.5199C500.908 89.8373 501.676 88.3866 501.676 86.1679V68.7599C501.676 62.7013 501.59 57.8799 501.42 54.2959C501.078 43.8853 496.684 38.6799 488.236 38.6799C484.737 38.6799 481.324 39.7039 477.996 41.7519C474.668 43.7146 471.852 46.7013 469.548 50.7119C469.633 50.9679 469.676 51.3519 469.676 51.8639C469.761 53.2293 469.804 55.8746 469.804 59.7999C469.804 66.8826 469.633 75.6719 469.292 86.1679C469.292 88.3013 470.06 89.7519 471.596 90.5199C473.132 91.2026 475.137 91.5439 477.612 91.5439H479.276C479.873 91.5439 480.172 92.1413 480.172 93.3359C480.172 94.4453 479.873 94.9999 479.276 94.9999H450.604C449.921 94.9999 449.58 94.4453 449.58 93.3359C449.58 92.1413 449.921 91.5439 450.604 91.5439H452.268C454.742 91.5439 456.705 91.2026 458.156 90.5199C459.692 89.8373 460.46 88.3866 460.46 86.1679V69.3999C460.46 62.9146 460.374 57.8799 460.204 54.2959C459.862 43.8853 455.468 38.6799 447.02 38.6799C443.521 38.6799 440.15 39.6613 436.908 41.6239C433.665 43.5013 430.892 46.4026 428.588 50.3279L428.46 86.1679C428.46 88.3013 429.228 89.7519 430.764 90.5199C432.3 91.2026 434.305 91.5439 436.78 91.5439H438.444C439.126 91.5439 439.468 92.1413 439.468 93.3359C439.468 94.4453 439.126 94.9999 438.444 94.9999H409.772C409.174 94.9999 408.876 94.4453 408.876 93.3359C408.876 92.7386 408.918 92.3119 409.004 92.0559C409.174 91.7146 409.43 91.5439 409.772 91.5439H411.436C413.91 91.5439 415.916 91.2026 417.452 90.5199C418.988 89.7519 419.756 88.3013 419.756 86.1679L419.244 47.1279C419.244 45.3359 418.817 44.0133 417.964 43.1599C417.196 42.3066 416.214 41.7519 415.02 41.4959C413.91 41.2399 412.118 40.9413 409.644 40.5999C408.876 40.5146 408.492 39.8319 408.492 38.5519C408.492 37.9546 408.705 37.5706 409.132 37.3999C410.412 36.8879 416.897 35.2239 428.588 32.4079V43.9279C434.134 36.2479 440.876 32.4079 448.812 32.4079C454.102 32.4079 458.369 33.6453 461.612 36.1199C464.94 38.5946 467.244 41.7946 468.524 45.7199C474.497 36.8453 481.665 32.4079 490.028 32.4079C496.684 32.4079 501.761 34.2853 505.26 38.0399C508.758 41.7946 510.636 46.4026 510.892 51.8639C510.977 53.2293 511.02 55.8746 511.02 59.7999C511.02 66.8826 510.849 75.6719 510.508 86.1679C510.508 88.3013 511.276 89.7519 512.812 90.5199C514.348 91.2026 516.353 91.5439 518.828 91.5439H520.492Z" fill="black" fill-opacity="0.3"/>
</svg>
