<svg width="1280" height="134" viewBox="0 0 1280 134" fill="none" xmlns="http://www.w3.org/2000/svg">
<path d="M134.962 51.464C137.522 50.2693 140.466 49.672 143.794 49.672C146.482 49.672 148.658 50.376 150.322 51.784C152.114 53.4053 153.01 55.6667 153.01 58.568V75.144C153.01 75.3573 153.01 75.6133 153.01 75.912C153.053 76.2107 153.096 76.5093 153.138 76.808C153.224 77.1067 153.33 77.3627 153.458 77.576C153.629 77.7893 153.821 77.896 154.034 77.896C154.674 77.896 155.592 77.4267 156.786 76.488L157.554 77.448C155.677 79.7093 154.013 80.84 152.562 80.84C150.685 80.84 149.554 79.6453 149.17 77.256C146.525 79.6453 143.154 80.84 139.058 80.84C137.65 80.84 136.37 80.6907 135.218 80.392C134.109 80.0933 133.17 79.624 132.402 78.984C130.824 77.6613 130.034 75.8053 130.034 73.416C130.034 71.624 130.632 70.024 131.826 68.616C133.064 67.1653 134.642 65.9707 136.562 65.032C139.848 63.3253 144.029 62.152 149.106 61.512V57.544C149.106 55.88 148.594 54.536 147.57 53.512C146.973 52.9147 146.269 52.488 145.458 52.232C144.69 51.976 143.858 51.848 142.962 51.848C141.256 51.848 139.805 52.1893 138.61 52.872C137.885 53.3413 137.309 53.8107 136.882 54.28C136.456 54.7067 136.242 55.1973 136.242 55.752V56.072C136.242 58.1627 135.325 59.208 133.49 59.208C131.826 59.208 130.994 58.248 130.994 56.328C130.994 54.3227 132.317 52.7013 134.962 51.464ZM149.106 63.944C145.352 64.328 141.874 65.3947 138.674 67.144C135.773 68.7653 134.322 70.8347 134.322 73.352C134.322 74.7173 134.877 75.8267 135.986 76.68C137.096 77.4907 138.482 77.896 140.146 77.896C141.682 77.896 143.282 77.5973 144.946 77C146.312 76.5307 147.698 75.72 149.106 74.568V63.944ZM183.833 52.424C183.833 54.6427 182.852 55.752 180.889 55.752C180.079 55.752 179.183 55.3893 178.201 54.664C177.476 54.0667 176.687 53.768 175.833 53.768C174.724 53.768 173.337 54.408 171.673 55.688C170.351 56.712 169.071 57.8853 167.833 59.208V74.696C167.833 75.8907 168.047 76.68 168.473 77.064C168.943 77.4907 170.116 77.704 171.993 77.704V79.752H159.833V77.704C160.943 77.704 161.796 77.6187 162.393 77.448C162.991 77.2773 163.396 77.0213 163.609 76.68C163.823 76.3387 163.929 75.8053 163.929 75.08V56.392C163.929 55.5387 163.78 54.9627 163.481 54.664C163.311 54.4933 162.948 54.3013 162.393 54.088C161.796 53.96 161.071 53.896 160.217 53.896C160.132 53.6827 160.068 53.4693 160.025 53.256C159.983 53.0427 159.919 52.8293 159.833 52.616C161.199 52.0613 162.543 51.528 163.865 51.016C165.188 50.4613 166.511 49.9067 167.833 49.352V55.944C168.857 54.9627 169.881 54.0667 170.905 53.256C171.929 52.4453 172.932 51.7627 173.913 51.208C176.047 49.9707 178.116 49.352 180.121 49.352C182.596 49.352 183.833 50.376 183.833 52.424ZM204.444 73.48C204.657 73.6507 204.849 73.8 205.02 73.928C205.233 74.056 205.446 74.184 205.66 74.312C204.892 76.104 203.846 77.5973 202.524 78.792C201.03 80.2 199.409 80.904 197.66 80.904C195.356 80.904 193.606 80.072 192.412 78.408C192.07 77.8107 191.793 77.128 191.58 76.36C191.366 75.592 191.26 74.7387 191.26 73.8V52.616H186.268V50.568C188.572 50.568 190.278 49.6933 191.388 47.944C192.625 45.9387 193.244 43.08 193.244 39.368H195.164V50.12H203.548V52.616H195.164V74.248C195.164 76.5093 196.358 77.64 198.748 77.64C200.668 77.64 202.566 76.2533 204.444 73.48ZM256.479 80.648C255.199 77.448 253.897 74.2267 252.575 70.984C251.295 67.7413 250.015 64.4987 248.735 61.256C247.497 64.4987 246.26 67.7413 245.023 70.984C243.785 74.2267 242.548 77.448 241.311 80.648H239.903C238.196 76.2533 236.489 71.9227 234.783 67.656C233.119 63.3467 231.433 58.9947 229.727 54.6C229.428 53.6613 229.001 53.0427 228.447 52.744C227.721 52.36 226.655 52.168 225.247 52.168V50.12H237.919V52.168C236.212 52.168 235.06 52.2747 234.463 52.488C233.908 52.6587 233.631 52.9147 233.631 53.256C233.631 53.4267 233.695 53.64 233.823 53.896C234.036 54.3227 234.207 54.7493 234.335 55.176C234.505 55.56 234.697 55.9653 234.911 56.392C236.02 59.2507 237.108 62.088 238.175 64.904C239.241 67.6773 240.308 70.4933 241.375 73.352C242.399 70.664 243.401 68.0613 244.383 65.544C245.364 62.984 246.367 60.36 247.391 57.672C247.177 57.2027 246.964 56.7333 246.751 56.264C246.58 55.7947 246.388 55.3253 246.175 54.856C245.748 53.6613 245.257 52.9147 244.703 52.616C244.233 52.36 243.337 52.232 242.015 52.232V50.12H254.495V52.168C252.233 52.168 250.804 52.4027 250.207 52.872C249.993 53.0853 249.887 53.32 249.887 53.576C249.887 53.6187 249.929 53.8107 250.015 54.152L257.887 73.736C259.039 70.4933 260.169 67.2507 261.279 64.008C262.431 60.7653 263.583 57.5227 264.735 54.28C264.82 53.9387 264.863 53.7253 264.863 53.64C264.863 53.384 264.777 53.1493 264.607 52.936C264.137 52.424 262.857 52.168 260.767 52.168V50.12H271.839V52.168C270.132 52.168 268.959 52.36 268.319 52.744C267.849 53.0427 267.444 53.6187 267.103 54.472C265.609 58.8667 264.095 63.24 262.559 67.592C261.065 71.9013 259.572 76.2533 258.079 80.648H256.479ZM302.251 65.224C302.251 70.0027 300.885 73.8213 298.155 76.68C295.552 79.5387 292.224 80.968 288.171 80.968C284.075 80.968 280.725 79.5387 278.123 76.68C275.392 73.8213 274.027 70.0027 274.027 65.224C274.027 60.4453 275.392 56.6267 278.123 53.768C280.725 50.9093 284.075 49.48 288.171 49.48C292.224 49.48 295.552 50.9093 298.155 53.768C300.885 56.6267 302.251 60.4453 302.251 65.224ZM297.899 65.224C297.899 61.2987 296.96 58.0773 295.083 55.56C293.333 53.0427 291.029 51.784 288.171 51.784C285.355 51.784 283.008 53.0427 281.131 55.56C279.296 58.0773 278.379 61.2987 278.379 65.224C278.379 69.1067 279.275 72.328 281.067 74.888C282.901 77.3627 285.269 78.6 288.171 78.6C290.944 78.6 293.248 77.3627 295.083 74.888C296.96 72.3707 297.899 69.1493 297.899 65.224ZM329.458 52.424C329.458 54.6427 328.477 55.752 326.514 55.752C325.704 55.752 324.808 55.3893 323.826 54.664C323.101 54.0667 322.312 53.768 321.458 53.768C320.349 53.768 318.962 54.408 317.298 55.688C315.976 56.712 314.696 57.8853 313.458 59.208V74.696C313.458 75.8907 313.672 76.68 314.098 77.064C314.568 77.4907 315.741 77.704 317.618 77.704V79.752H305.458V77.704C306.568 77.704 307.421 77.6187 308.018 77.448C308.616 77.2773 309.021 77.0213 309.234 76.68C309.448 76.3387 309.554 75.8053 309.554 75.08V56.392C309.554 55.5387 309.405 54.9627 309.106 54.664C308.936 54.4933 308.573 54.3013 308.018 54.088C307.421 53.96 306.696 53.896 305.842 53.896C305.757 53.6827 305.693 53.4693 305.65 53.256C305.608 53.0427 305.544 52.8293 305.458 52.616C306.824 52.0613 308.168 51.528 309.49 51.016C310.813 50.4613 312.136 49.9067 313.458 49.352V55.944C314.482 54.9627 315.506 54.0667 316.53 53.256C317.554 52.4453 318.557 51.7627 319.538 51.208C321.672 49.9707 323.741 49.352 325.746 49.352C328.221 49.352 329.458 50.376 329.458 52.424ZM364.277 79.752H350.453V77.704C352.415 77.704 353.695 77.4693 354.293 77C354.549 76.872 354.677 76.68 354.677 76.424C354.677 76.0827 354.527 75.7627 354.229 75.464C354.015 75.2507 353.802 75.0373 353.589 74.824C353.418 74.6107 353.247 74.3973 353.077 74.184C351.797 72.4773 350.538 70.7707 349.301 69.064C348.063 67.3147 346.826 65.5867 345.589 63.88C344.693 64.6053 343.775 65.3093 342.837 65.992C341.941 66.6747 341.023 67.3787 340.085 68.104V74.376C340.085 75.656 340.362 76.5093 340.917 76.936C341.301 77.1493 341.791 77.32 342.389 77.448C342.986 77.6187 343.69 77.704 344.501 77.704V79.752H332.021V77.704C332.789 77.704 333.45 77.6187 334.005 77.448C334.602 77.32 335.071 77.1493 335.413 76.936C335.925 76.552 336.181 75.6987 336.181 74.376V41.288C336.181 39.8373 335.541 39.0053 334.261 38.792C334.047 38.7493 333.791 38.728 333.493 38.728C333.194 38.6853 332.831 38.664 332.405 38.664C332.362 38.4507 332.319 38.2587 332.277 38.088C332.234 37.8747 332.191 37.6613 332.149 37.448C333.514 36.936 334.837 36.4453 336.117 35.976C337.439 35.464 338.762 34.952 340.085 34.44V65.032C342.261 63.24 344.415 61.4907 346.549 59.784C348.725 58.0347 350.901 56.264 353.077 54.472C353.503 54.1733 353.717 53.8747 353.717 53.576C353.717 53.3627 353.631 53.1707 353.461 53C352.991 52.4027 351.626 52.104 349.365 52.104V50.12H362.293V52.104C361.098 52.104 360.117 52.2533 359.349 52.552C359.007 52.7227 358.303 53.2773 357.237 54.216L355.509 55.368C354.314 56.3493 353.119 57.3307 351.925 58.312C350.773 59.2933 349.578 60.2747 348.341 61.256C350.047 63.56 351.733 65.8853 353.397 68.232C355.103 70.536 356.81 72.84 358.517 75.144C359.157 75.9973 359.861 76.5733 360.629 76.872C361.695 77.4267 362.911 77.704 364.277 77.704V79.752Z" fill="black"/>
<line x1="443.986" y1="66.5" x2="1356.01" y2="66.5" stroke="black"/>
</svg>
