<svg width="217" height="45" viewBox="0 0 217 45" fill="none" xmlns="http://www.w3.org/2000/svg">
<path d="M15.36 44.288C12.6293 44.288 10.0693 43.6267 7.68 42.304C5.33333 40.9387 3.456 39.0613 2.048 36.672C0.682667 34.24 0 31.488 0 28.416C0 25.8987 0.597333 23.3813 1.792 20.864C2.98667 18.3467 4.75733 16.2773 7.104 14.656C9.45067 12.992 12.2667 12.16 15.552 12.16C17.8133 12.16 19.776 12.5227 21.44 13.248C23.1467 13.9307 24.4267 14.8053 25.28 15.872C26.176 16.896 26.624 17.8773 26.624 18.816C26.624 19.5413 26.3893 20.1813 25.92 20.736C25.4507 21.248 24.8533 21.504 24.128 21.504C23.3173 21.504 22.6347 21.2267 22.08 20.672C21.5253 20.0747 20.9067 19.1787 20.224 17.984C18.9013 15.68 17.0453 14.528 14.656 14.528C12.9067 14.528 11.328 15.104 9.92 16.256C8.512 17.408 7.40267 19.0293 6.592 21.12C5.78133 23.2107 5.376 25.6213 5.376 28.352C5.376 31.3387 5.888 33.8133 6.912 35.776C7.97867 37.696 9.32267 39.104 10.944 40C12.5653 40.896 14.2507 41.344 16 41.344C19.6693 41.344 22.7413 39.616 25.216 36.16C25.4293 35.904 25.6427 35.776 25.856 35.776C26.0693 35.776 26.24 35.8187 26.368 35.904C26.6667 36.0747 26.816 36.288 26.816 36.544C26.816 36.7147 26.7733 36.8853 26.688 37.056C25.5787 39.2747 24.0427 41.0453 22.08 42.368C20.1173 43.648 17.8773 44.288 15.36 44.288Z" fill="#FFFEF7"/>
<path d="M48.3705 44.352C45.3412 44.352 42.6745 43.5627 40.3705 41.984C38.1092 40.3627 36.3598 38.3147 35.1225 35.84C33.9278 33.3653 33.3305 30.848 33.3305 28.288C33.3305 25.5573 33.9278 22.9547 35.1225 20.48C36.3172 18.0053 38.0452 16 40.3065 14.464C42.6105 12.928 45.2985 12.16 48.3705 12.16C51.4425 12.16 54.1305 12.928 56.4345 14.464C58.7385 16 60.4878 18.0053 61.6825 20.48C62.9198 22.9547 63.5385 25.5573 63.5385 28.288C63.5385 30.848 62.9198 33.3653 61.6825 35.84C60.4878 38.3147 58.7385 40.3627 56.4345 41.984C54.1305 43.5627 51.4425 44.352 48.3705 44.352ZM48.3705 42.112C51.3998 42.112 53.7892 40.8107 55.5385 38.208C57.3305 35.5627 58.2265 32.256 58.2265 28.288C58.2265 24.1067 57.3518 20.7573 55.6025 18.24C53.8532 15.68 51.4425 14.4 48.3705 14.4C45.3412 14.4 42.9518 15.68 41.2025 18.24C39.4532 20.8 38.5785 24.1493 38.5785 28.288C38.5785 30.848 38.9625 33.1947 39.7305 35.328C40.5412 37.4187 41.6718 39.0827 43.1225 40.32C44.6158 41.5147 46.3652 42.112 48.3705 42.112Z" fill="#FFFEF7"/>
<path d="M104.701 41.728C105.043 41.728 105.214 42.0267 105.214 42.624C105.214 43.1787 105.043 43.456 104.701 43.456H90.3655C90.0668 43.456 89.9175 43.1787 89.9175 42.624C89.9175 42.0267 90.0668 41.728 90.3655 41.728H91.2615C92.4988 41.728 93.4802 41.5573 94.2055 41.216C94.9308 40.8747 95.2935 40.1493 95.2935 39.04L95.2295 27.136L95.1655 23.04C95.1655 20.7787 94.6535 18.9227 93.6295 17.472C92.6482 15.9787 90.9628 15.232 88.5735 15.232C86.8242 15.232 85.1388 15.7227 83.5175 16.704C81.8962 17.6427 80.5308 19.0933 79.4215 21.056L79.3575 39.04C79.3575 40.1067 79.7415 40.832 80.5095 41.216C81.2775 41.5573 82.2802 41.728 83.5175 41.728H84.3495C84.6482 41.728 84.7975 42.0267 84.7975 42.624C84.7975 43.1787 84.6482 43.456 84.3495 43.456H70.0135C69.6722 43.456 69.5015 43.1787 69.5015 42.624C69.5015 42.0267 69.6722 41.728 70.0135 41.728H70.8455C72.0828 41.728 73.0855 41.5573 73.8535 41.216C74.6215 40.832 75.0055 40.1067 75.0055 39.04L74.8135 19.456C74.8135 18.56 74.6002 17.8987 74.1735 17.472C73.7895 17.0453 73.2988 16.768 72.7015 16.64C72.1468 16.512 71.2295 16.3627 69.9495 16.192C69.6935 16.1493 69.5228 16.064 69.4375 15.936C69.3948 15.7653 69.3735 15.5093 69.3735 15.168C69.3735 14.8693 69.4802 14.6773 69.6935 14.592C70.3335 14.336 73.5762 13.5253 79.4215 12.16V17.856C82.2375 14.0587 85.5868 12.16 89.4695 12.16C92.8402 12.16 95.3788 13.0987 97.0855 14.976C98.8348 16.8107 99.7735 19.0933 99.9015 21.824C99.9442 22.592 99.9655 24.128 99.9655 26.432C99.9655 29.9307 99.9015 34.1333 99.7735 39.04C99.7735 40.1493 100.136 40.8747 100.862 41.216C101.63 41.5573 102.632 41.728 103.869 41.728H104.701Z" fill="#FFFEF7"/>
<path d="M120.562 44.352C118.215 44.352 116.401 43.7547 115.121 42.56C113.884 41.3227 113.266 39.4453 113.266 36.928V15.104H108.081V12.736C109.703 12.224 111.004 11.5413 111.985 10.688C113.009 9.83467 113.884 8.576 114.609 6.912C115.335 5.248 115.954 2.944 116.465 0H117.873V12.736H126.257V15.104H117.81V30.784L117.873 36.544C117.916 37.9947 118.322 39.168 119.09 40.064C119.858 40.9173 120.839 41.344 122.034 41.344C123.015 41.344 123.804 41.1947 124.401 40.896C125.041 40.5973 125.66 40.1067 126.257 39.424C126.471 39.168 126.684 39.04 126.897 39.04C127.111 39.04 127.303 39.1467 127.474 39.36C127.687 39.5733 127.794 39.7867 127.794 40C127.794 40.1707 127.751 40.32 127.665 40.448C125.959 43.0507 123.591 44.352 120.562 44.352Z" fill="#FFFEF7"/>
<path d="M162.299 38.336C162.64 38.336 162.811 38.4853 162.811 38.784L162.747 39.168C162.107 41.0027 161.147 42.304 159.867 43.072C158.587 43.84 157.371 44.224 156.219 44.224C154.939 44.224 153.872 43.8187 153.019 43.008C152.166 42.1547 151.568 41.0453 151.227 39.68C149.691 41.216 147.92 42.3893 145.915 43.2C143.91 43.968 141.904 44.352 139.899 44.352C137.424 44.352 135.419 43.776 133.883 42.624C132.39 41.472 131.643 39.8933 131.643 37.888C131.643 36.3093 131.984 34.944 132.667 33.792C133.35 32.64 134.459 31.616 135.995 30.72C136.976 30.1653 138.214 29.6533 139.707 29.184C141.2 28.7147 143.248 28.1387 145.851 27.456L151.099 25.984V23.232C151.099 21.184 150.992 19.6693 150.779 18.688C150.566 17.7067 150.139 16.832 149.499 16.064C148.56 14.912 146.96 14.336 144.699 14.336C143.12 14.336 141.926 14.72 141.115 15.488C140.304 16.256 139.622 17.4293 139.067 19.008C138.342 21.056 137.296 22.08 135.931 22.08C135.163 22.08 134.459 21.8453 133.819 21.376C133.222 20.864 132.923 20.2027 132.923 19.392C132.923 18.5813 133.2 17.6427 133.755 16.576C134.352 15.4667 135.526 14.464 137.275 13.568C139.067 12.6293 141.606 12.16 144.891 12.16C146.811 12.16 148.624 12.5013 150.331 13.184C152.08 13.824 153.318 14.6347 154.043 15.616C154.683 16.512 155.11 17.4507 155.323 18.432C155.579 19.3707 155.707 20.5013 155.707 21.824C155.707 23.8293 155.686 25.6 155.643 27.136L155.579 36.416C155.579 38.1653 155.899 39.3387 156.539 39.936C157.222 40.5333 157.883 40.832 158.523 40.832C159.078 40.832 159.654 40.6613 160.251 40.32C160.891 39.936 161.424 39.3813 161.851 38.656C161.979 38.4427 162.128 38.336 162.299 38.336ZM142.203 41.28C143.696 41.28 145.232 40.9387 146.811 40.256C148.39 39.5307 149.755 38.5067 150.907 37.184V36.992L151.035 28.352C147.75 29.1627 145.104 29.9307 143.099 30.656C141.136 31.3387 139.6 32.192 138.491 33.216C137.382 34.24 136.827 35.4987 136.827 36.992C136.827 38.1867 137.232 39.2107 138.043 40.064C138.896 40.8747 140.283 41.28 142.203 41.28Z" fill="#FFFEF7"/>
<path d="M181.423 44.288C178.692 44.288 176.132 43.6267 173.743 42.304C171.396 40.9387 169.519 39.0613 168.111 36.672C166.745 34.24 166.062 31.488 166.062 28.416C166.062 25.8987 166.66 23.3813 167.855 20.864C169.049 18.3467 170.82 16.2773 173.167 14.656C175.513 12.992 178.329 12.16 181.615 12.16C183.876 12.16 185.839 12.5227 187.503 13.248C189.209 13.9307 190.489 14.8053 191.342 15.872C192.238 16.896 192.687 17.8773 192.687 18.816C192.687 19.5413 192.452 20.1813 191.982 20.736C191.513 21.248 190.916 21.504 190.191 21.504C189.38 21.504 188.697 21.2267 188.143 20.672C187.588 20.0747 186.969 19.1787 186.286 17.984C184.964 15.68 183.108 14.528 180.719 14.528C178.969 14.528 177.39 15.104 175.982 16.256C174.574 17.408 173.465 19.0293 172.654 21.12C171.844 23.2107 171.439 25.6213 171.439 28.352C171.439 31.3387 171.951 33.8133 172.975 35.776C174.041 37.696 175.385 39.104 177.007 40C178.628 40.896 180.313 41.344 182.062 41.344C185.732 41.344 188.804 39.616 191.279 36.16C191.492 35.904 191.705 35.776 191.919 35.776C192.132 35.776 192.302 35.8187 192.43 35.904C192.729 36.0747 192.878 36.288 192.878 36.544C192.878 36.7147 192.836 36.8853 192.751 37.056C191.641 39.2747 190.105 41.0453 188.143 42.368C186.18 43.648 183.94 44.288 181.423 44.288Z" fill="#FFFEF7"/>
<path d="M209.249 44.352C206.902 44.352 205.089 43.7547 203.809 42.56C202.572 41.3227 201.953 39.4453 201.953 36.928V15.104H196.769V12.736C198.39 12.224 199.692 11.5413 200.673 10.688C201.697 9.83467 202.572 8.576 203.297 6.912C204.022 5.248 204.641 2.944 205.153 0H206.561V12.736H214.945V15.104H206.497V30.784L206.561 36.544C206.604 37.9947 207.009 39.168 207.777 40.064C208.545 40.9173 209.526 41.344 210.721 41.344C211.702 41.344 212.492 41.1947 213.089 40.896C213.729 40.5973 214.348 40.1067 214.945 39.424C215.158 39.168 215.372 39.04 215.585 39.04C215.798 39.04 215.99 39.1467 216.161 39.36C216.374 39.5733 216.481 39.7867 216.481 40C216.481 40.1707 216.438 40.32 216.353 40.448C214.646 43.0507 212.278 44.352 209.249 44.352Z" fill="#FFFEF7"/>
</svg>
