<svg width="421" height="97" viewBox="0 0 421 97" fill="none" xmlns="http://www.w3.org/2000/svg">
<path d="M75.944 16.536C76.0294 16.7067 76.072 16.92 76.072 17.176C76.072 17.432 75.9867 17.688 75.816 17.944C75.6454 18.1147 75.3894 18.2853 75.048 18.456C74.792 18.6267 74.4507 18.712 74.024 18.712C73.512 18.712 73.0854 18.5413 72.744 18.2C68.9894 14.4453 64.424 11.4587 59.048 9.24C53.7574 6.936 47.9547 5.784 41.64 5.784H38.44C34.9414 5.784 32.2534 5.95466 30.376 6.296C28.4987 6.55199 27.0054 7.23466 25.896 8.34399C24.7867 9.45333 24.232 11.2453 24.232 13.72V44.696H35.752C40.9574 44.696 44.3707 44.6533 45.992 44.568C49.576 44.4827 52.3494 43.288 54.312 40.984C56.36 38.68 57.384 35.7787 57.384 32.28C57.384 31.6827 57.9387 31.384 59.048 31.384C59.6454 31.384 60.072 31.4693 60.328 31.64C60.6694 31.7253 60.84 31.9387 60.84 32.28V61.592C60.84 62.2747 60.2427 62.616 59.048 62.616C57.9387 62.616 57.384 62.2747 57.384 61.592C57.384 58.0933 56.36 55.192 54.312 52.888C52.3494 50.584 49.576 49.3893 45.992 49.304C44.3707 49.2187 40.9574 49.176 35.752 49.176H24.232V83.352C24.232 86.2533 25.0854 88.344 26.792 89.624C28.584 90.8187 31.4 91.416 35.24 91.416H37.288C37.8854 91.416 38.184 91.9707 38.184 93.08C38.184 94.36 37.8854 95 37.288 95H0.936039C0.338706 95 0.0400391 94.4027 0.0400391 93.208C0.0400391 92.0133 0.338706 91.416 0.936039 91.416H2.98404C6.82404 91.416 9.59737 90.8187 11.304 89.624C13.096 88.344 13.992 86.2533 13.992 83.352V13.72C13.992 10.7333 13.0534 8.64266 11.176 7.448C9.38404 6.25333 6.65337 5.656 2.98404 5.656H0.936039C0.338706 5.656 0.0400391 5.05866 0.0400391 3.864C0.0400391 2.66933 0.338706 2.072 0.936039 2.072H68.008L69.416 4.504C73.512 11.928 75.688 15.9387 75.944 16.536Z" fill="black" fill-opacity="0.3"/>
<path d="M87.278 94.872C86.5954 94.872 86.254 94.2747 86.254 93.08C86.254 91.9707 86.5954 91.416 87.278 91.416H88.942C91.4167 91.416 93.3794 91.0747 94.83 90.392C96.366 89.7093 97.134 88.2587 97.134 86.04L96.75 15.384C96.75 12.7387 95.8967 10.9893 94.19 10.136C92.5687 9.28266 90.222 8.856 87.15 8.856C86.5527 8.856 86.1687 8.68533 85.998 8.34399C85.9127 7.91733 85.87 7.40533 85.87 6.808C85.87 6.21066 86.126 5.82666 86.638 5.656C87.918 5.22933 94.4034 3.608 106.094 0.791992L105.966 86.04C105.966 88.1733 106.734 89.624 108.27 90.392C109.806 91.0747 111.811 91.416 114.286 91.416H115.95C116.547 91.416 116.846 91.9707 116.846 93.08C116.846 94.2747 116.547 94.872 115.95 94.872H87.278Z" fill="black" fill-opacity="0.3"/>
<path d="M158.236 96.792C152.177 96.792 146.844 95.2133 142.236 92.056C137.713 88.8133 134.215 84.7173 131.74 79.768C129.351 74.8187 128.156 69.784 128.156 64.664C128.156 59.2027 129.351 53.9973 131.74 49.048C134.129 44.0987 137.585 40.088 142.108 37.016C146.716 33.944 152.092 32.408 158.236 32.408C164.38 32.408 169.756 33.944 174.364 37.016C178.972 40.088 182.471 44.0987 184.86 49.048C187.335 53.9973 188.572 59.2027 188.572 64.664C188.572 69.784 187.335 74.8187 184.86 79.768C182.471 84.7173 178.972 88.8133 174.364 92.056C169.756 95.2133 164.38 96.792 158.236 96.792ZM158.236 92.312C164.295 92.312 169.073 89.7093 172.572 84.504C176.156 79.2133 177.948 72.6 177.948 64.664C177.948 56.3013 176.199 49.6027 172.7 44.568C169.201 39.448 164.38 36.888 158.236 36.888C152.177 36.888 147.399 39.448 143.9 44.568C140.401 49.688 138.652 56.3867 138.652 64.664C138.652 69.784 139.42 74.4773 140.956 78.744C142.577 82.9253 144.839 86.2533 147.74 88.728C150.727 91.1173 154.225 92.312 158.236 92.312Z" fill="black" fill-opacity="0.3"/>
<path d="M293.682 33.56C294.365 33.56 294.706 34.1147 294.706 35.224C294.706 36.4187 294.365 37.016 293.682 37.016C291.549 37.016 289.458 37.6133 287.41 38.808C285.447 39.9173 284.039 41.496 283.186 43.544C282.162 46.1893 275.975 63.9387 264.626 96.792H258.738L243.634 53.144L228.658 96.792H223.41L204.466 44.952C202.589 39.6613 199.005 37.016 193.714 37.016C193.031 37.016 192.69 36.4187 192.69 35.224C192.69 34.1147 193.031 33.56 193.714 33.56H222.13C222.727 33.56 223.026 34.1147 223.026 35.224C223.026 36.4187 222.727 37.016 222.13 37.016C216.157 37.3573 213.17 38.8507 213.17 41.496C213.17 41.8373 213.255 42.3493 213.426 43.032L227.89 84.76L241.202 45.848L239.922 42.264C239.325 40.472 238.045 39.1493 236.082 38.296C234.205 37.4427 232.071 37.016 229.682 37.016C228.999 37.016 228.658 36.4187 228.658 35.224C228.658 34.1147 228.999 33.56 229.682 33.56H258.098C258.695 33.56 258.994 34.1147 258.994 35.224C258.994 36.4187 258.695 37.016 258.098 37.016C255.965 37.016 253.959 37.3573 252.082 38.04C250.29 38.7227 249.394 39.7467 249.394 41.112C249.394 41.368 249.479 41.752 249.65 42.264L263.73 85.784C266.119 79.4693 268.935 71.5333 272.178 61.976C275.506 52.3333 277.511 46.36 278.194 44.056L278.45 42.52C278.45 40.472 277.383 39.064 275.25 38.296C273.117 37.4427 270.855 37.016 268.466 37.016C267.869 37.016 267.57 36.4187 267.57 35.224C267.57 34.1147 267.869 33.56 268.466 33.56H293.682Z" fill="black" fill-opacity="0.3"/>
<path d="M357.58 78.744C358.007 79 358.22 79.3413 358.22 79.768C358.22 80.1093 358.092 80.536 357.836 81.048C356.044 85.2293 353.057 88.8987 348.876 92.056C344.78 95.2133 339.532 96.792 333.132 96.792C327.415 96.792 322.167 95.5547 317.388 93.08C312.695 90.52 308.983 86.8933 306.252 82.2C303.521 77.5067 302.156 72.0453 302.156 65.816C302.156 60.3547 303.265 55.064 305.484 49.944C307.703 44.824 310.988 40.6 315.34 37.272C319.777 33.944 325.111 32.28 331.34 32.28C338.849 32.28 344.951 34.712 349.644 39.576C354.337 44.44 357.153 51.096 358.092 59.544L312.908 59.8C312.737 61.848 312.652 63.4267 312.652 64.536C312.652 70.424 313.676 75.3307 315.724 79.256C317.857 83.096 320.588 85.9547 323.916 87.832C327.329 89.624 331.041 90.52 335.052 90.52C343.244 90.52 349.985 86.68 355.276 79C355.617 78.488 356.001 78.232 356.428 78.232C356.684 78.232 357.068 78.4027 357.58 78.744ZM330.572 36.888C326.476 36.888 322.892 38.4667 319.82 41.624C316.833 44.7813 314.743 49.176 313.548 54.808L345.804 54.552V53.272C345.548 47.64 343.969 43.5013 341.068 40.856C338.252 38.2107 334.753 36.888 330.572 36.888Z" fill="black" fill-opacity="0.3"/>
<path d="M410.824 32.408C413.384 32.408 415.56 33.0907 417.352 34.456C419.144 35.736 420.04 37.4 420.04 39.448C420.04 40.8987 419.485 42.136 418.376 43.16C417.352 44.184 416.029 44.696 414.408 44.696C413.128 44.696 411.507 44.056 409.544 42.776C408.264 42.0933 407.24 41.5813 406.472 41.24C405.704 40.8987 404.851 40.728 403.912 40.728C401.864 40.728 399.645 41.5813 397.256 43.288C394.867 44.9947 392.477 47.2987 390.088 50.2L389.96 86.296C389.96 88.4293 390.685 89.8373 392.136 90.52C393.672 91.2027 395.72 91.544 398.28 91.544H399.944C400.627 91.544 400.968 92.1413 400.968 93.336C400.968 94.4453 400.627 95 399.944 95H371.272C370.675 95 370.376 94.4453 370.376 93.336C370.376 92.1413 370.675 91.544 371.272 91.544H372.936C375.411 91.544 377.373 91.2027 378.824 90.52C380.36 89.8373 381.128 88.4293 381.128 86.296L380.744 46.872C380.744 45.08 380.317 43.7573 379.464 42.904C378.696 42.0507 377.757 41.5387 376.648 41.368C375.624 41.112 373.789 40.8133 371.144 40.472C370.632 40.3867 370.291 40.1733 370.12 39.832C370.035 39.4907 369.992 38.9787 369.992 38.296C369.992 37.6987 370.205 37.3147 370.632 37.144C371.912 36.632 378.397 35.0107 390.088 32.28V44.824C393.331 41.24 396.744 38.296 400.328 35.992C403.997 33.6027 407.496 32.408 410.824 32.408Z" fill="black" fill-opacity="0.3"/>
</svg>
