<svg width="1280" height="134" viewBox="0 0 1280 134" fill="none" xmlns="http://www.w3.org/2000/svg">
<path d="M141.234 77.256C136.328 78.3227 133.874 80.072 133.874 82.504C133.874 83.9547 134.792 85.064 136.626 85.832C138.546 86.5573 141.234 86.92 144.69 86.92C145.8 86.92 146.824 86.856 147.762 86.728C148.744 86.6427 149.64 86.472 150.45 86.216C150.706 86.1307 150.962 86.024 151.218 85.896C151.474 85.8107 151.709 85.7253 151.922 85.64C153.842 84.872 154.802 83.8907 154.802 82.696C154.802 81.8427 154.376 81.1387 153.522 80.584C152.669 80.0293 151.069 79.4533 148.722 78.856C147.784 78.6427 146.674 78.408 145.394 78.152C144.157 77.896 142.77 77.5973 141.234 77.256ZM160.306 51.784C160.306 53.4053 159.602 54.216 158.194 54.216C157.597 54.216 157.021 54.0027 156.466 53.576C156.168 53.4053 155.89 53.2773 155.634 53.192C155.378 53.064 155.122 53 154.866 53C154.653 53 154.525 53.0213 154.482 53.064C154.141 53.1067 153.8 53.3413 153.458 53.768C154.696 55.3893 155.314 57.416 155.314 59.848C155.314 62.7067 154.248 65.096 152.114 67.016C149.938 68.936 147.122 69.896 143.666 69.896C142.685 69.896 141.81 69.8533 141.042 69.768C140.274 69.6827 139.592 69.576 138.994 69.448C137.16 69.832 136.242 70.4293 136.242 71.24C136.242 72.0507 136.989 72.6267 138.482 72.968C138.909 73.0533 139.336 73.1387 139.762 73.224C140.189 73.2667 140.594 73.3307 140.978 73.416C142.941 73.8427 144.69 74.2267 146.226 74.568C147.762 74.9093 149.128 75.2293 150.322 75.528C151.517 75.8267 152.562 76.1467 153.458 76.488C154.397 76.7867 155.186 77.1493 155.826 77.576C157.704 78.6853 158.642 80.0933 158.642 81.8C158.642 86.7067 153.672 89.16 143.73 89.16C134.429 89.16 129.778 86.984 129.778 82.632C129.778 81.352 130.632 80.072 132.338 78.792C133.106 78.1947 133.938 77.704 134.834 77.32C135.73 76.936 136.69 76.6373 137.714 76.424C134.002 75.4853 132.146 74.12 132.146 72.328C132.146 70.5787 133.597 69.2133 136.498 68.232C133.512 66.312 132.018 63.4747 132.018 59.72C132.018 56.8613 133.128 54.472 135.346 52.552C137.565 50.5893 140.338 49.608 143.666 49.608C147.208 49.608 149.96 50.3973 151.922 51.976C153.33 50.312 155.016 49.48 156.978 49.48C159.197 49.48 160.306 50.248 160.306 51.784ZM151.346 59.848C151.346 58.696 151.154 57.6507 150.77 56.712C150.386 55.7307 149.853 54.8987 149.17 54.216C148.488 53.4907 147.677 52.936 146.738 52.552C145.8 52.1253 144.797 51.912 143.73 51.912C141.426 51.912 139.57 52.6373 138.162 54.088C136.797 55.5387 136.114 57.416 136.114 59.72C136.114 61.9813 136.818 63.816 138.226 65.224C139.677 66.8027 141.512 67.592 143.73 67.592C145.864 67.592 147.656 66.8667 149.106 65.416C150.6 63.9227 151.346 62.0667 151.346 59.848ZM168.15 51.464C170.71 50.2693 173.654 49.672 176.982 49.672C179.67 49.672 181.846 50.376 183.51 51.784C185.302 53.4053 186.198 55.6667 186.198 58.568V75.144C186.198 75.3573 186.198 75.6133 186.198 75.912C186.24 76.2107 186.283 76.5093 186.326 76.808C186.411 77.1067 186.518 77.3627 186.646 77.576C186.816 77.7893 187.008 77.896 187.222 77.896C187.862 77.896 188.779 77.4267 189.974 76.488L190.742 77.448C188.864 79.7093 187.2 80.84 185.75 80.84C183.872 80.84 182.742 79.6453 182.358 77.256C179.712 79.6453 176.342 80.84 172.246 80.84C170.838 80.84 169.558 80.6907 168.406 80.392C167.296 80.0933 166.358 79.624 165.59 78.984C164.011 77.6613 163.222 75.8053 163.222 73.416C163.222 71.624 163.819 70.024 165.014 68.616C166.251 67.1653 167.83 65.9707 169.75 65.032C173.035 63.3253 177.216 62.152 182.294 61.512V57.544C182.294 55.88 181.782 54.536 180.758 53.512C180.16 52.9147 179.456 52.488 178.646 52.232C177.878 51.976 177.046 51.848 176.15 51.848C174.443 51.848 172.992 52.1893 171.798 52.872C171.072 53.3413 170.496 53.8107 170.07 54.28C169.643 54.7067 169.43 55.1973 169.43 55.752V56.072C169.43 58.1627 168.512 59.208 166.678 59.208C165.014 59.208 164.182 58.248 164.182 56.328C164.182 54.3227 165.504 52.7013 168.15 51.464ZM182.294 63.944C178.539 64.328 175.062 65.3947 171.862 67.144C168.96 68.7653 167.51 70.8347 167.51 73.352C167.51 74.7173 168.064 75.8267 169.174 76.68C170.283 77.4907 171.67 77.896 173.334 77.896C174.87 77.896 176.47 77.5973 178.134 77C179.499 76.5307 180.886 75.72 182.294 74.568V63.944ZM206.013 79.752H193.725V77.704C195.389 77.704 196.519 77.4693 197.117 77C197.629 76.5733 197.885 75.656 197.885 74.248V40.904C197.885 40.1787 197.629 39.6667 197.117 39.368C196.605 39.0267 195.517 38.856 193.853 38.856L193.469 37.32C194.834 36.808 196.221 36.3173 197.629 35.848C199.037 35.336 200.423 34.824 201.789 34.312V74.248C201.789 75.5707 202.023 76.4667 202.493 76.936C202.834 77.1493 203.282 77.32 203.837 77.448C204.434 77.6187 205.159 77.704 206.013 77.704V79.752ZM222.325 79.752H210.037V77.704C211.701 77.704 212.832 77.4693 213.429 77C213.941 76.5733 214.197 75.656 214.197 74.248V40.904C214.197 40.1787 213.941 39.6667 213.429 39.368C212.917 39.0267 211.829 38.856 210.165 38.856L209.781 37.32C211.147 36.808 212.533 36.3173 213.941 35.848C215.349 35.336 216.736 34.824 218.101 34.312V74.248C218.101 75.5707 218.336 76.4667 218.805 76.936C219.147 77.1493 219.595 77.32 220.149 77.448C220.747 77.6187 221.472 77.704 222.325 77.704V79.752ZM252.654 72.072C252.867 72.2427 253.08 72.4133 253.294 72.584C253.55 72.7547 253.784 72.9253 253.998 73.096C252.974 74.632 251.843 75.912 250.606 76.936C249.368 77.96 248.046 78.8133 246.638 79.496C244.718 80.4347 242.648 80.904 240.43 80.904C236.206 80.904 232.75 79.56 230.062 76.872C227.203 74.0133 225.774 70.152 225.774 65.288C225.774 60.5947 227.139 56.8187 229.87 53.96C232.558 51.016 235.971 49.544 240.11 49.544C244.248 49.544 247.512 50.7387 249.902 53.128C252.462 55.56 253.742 59.08 253.742 63.688C249.774 63.816 245.87 63.9653 242.03 64.136C238.19 64.264 234.264 64.392 230.254 64.52C230.254 64.6907 230.232 64.8613 230.19 65.032C230.19 65.16 230.19 65.3093 230.19 65.48C230.19 67.272 230.424 68.8933 230.894 70.344C231.406 71.7947 232.131 73.096 233.07 74.248C235.032 76.808 237.784 78.088 241.326 78.088C243.203 78.088 245.166 77.5973 247.214 76.616C248.152 76.0613 249.07 75.4213 249.966 74.696C250.904 73.928 251.8 73.0533 252.654 72.072ZM230.382 62.088C233.582 62.0027 236.739 61.896 239.854 61.768C242.968 61.64 246.126 61.5333 249.326 61.448C249.283 58.632 248.408 56.3707 246.702 54.664C244.952 52.7867 242.755 51.848 240.11 51.848C237.55 51.848 235.31 52.872 233.39 54.92C231.598 56.7973 230.595 59.1867 230.382 62.088ZM281.083 52.424C281.083 54.6427 280.102 55.752 278.139 55.752C277.329 55.752 276.433 55.3893 275.451 54.664C274.726 54.0667 273.937 53.768 273.083 53.768C271.974 53.768 270.587 54.408 268.923 55.688C267.601 56.712 266.321 57.8853 265.083 59.208V74.696C265.083 75.8907 265.297 76.68 265.723 77.064C266.193 77.4907 267.366 77.704 269.243 77.704V79.752H257.083V77.704C258.193 77.704 259.046 77.6187 259.643 77.448C260.241 77.2773 260.646 77.0213 260.859 76.68C261.073 76.3387 261.179 75.8053 261.179 75.08V56.392C261.179 55.5387 261.03 54.9627 260.731 54.664C260.561 54.4933 260.198 54.3013 259.643 54.088C259.046 53.96 258.321 53.896 257.467 53.896C257.382 53.6827 257.318 53.4693 257.275 53.256C257.233 53.0427 257.169 52.8293 257.083 52.616C258.449 52.0613 259.793 51.528 261.115 51.016C262.438 50.4613 263.761 49.9067 265.083 49.352V55.944C266.107 54.9627 267.131 54.0667 268.155 53.256C269.179 52.4453 270.182 51.7627 271.163 51.208C273.297 49.9707 275.366 49.352 277.371 49.352C279.846 49.352 281.083 50.376 281.083 52.424ZM297.79 77.512L286.974 54.28C286.547 53.4693 286.099 52.936 285.63 52.68C285.374 52.552 285.032 52.4453 284.606 52.36C284.179 52.2747 283.518 52.232 282.622 52.232V50.12H294.846V52.232C293.736 52.232 292.926 52.2533 292.414 52.296C291.902 52.3387 291.56 52.488 291.39 52.744C291.176 53.0427 291.155 53.4693 291.326 54.024C291.496 54.536 291.71 55.0693 291.966 55.624L299.774 72.328L306.686 56.328C307.155 55.2187 307.39 54.4293 307.39 53.96C307.39 53.4907 307.283 53.128 307.07 52.872C306.856 52.6587 306.558 52.5093 306.174 52.424C305.79 52.296 305.107 52.232 304.126 52.232V50.12H315.198V52.232C313.448 52.232 312.211 52.4667 311.486 52.936C310.59 53.4907 309.8 54.6 309.118 56.264L298.174 81.992C296.936 84.808 295.678 86.728 294.398 87.752C293.246 88.648 291.774 89.096 289.982 89.096C289.427 89.096 288.894 89.0107 288.382 88.84C287.87 88.712 287.379 88.4773 286.91 88.136C285.886 87.368 285.374 86.3867 285.374 85.192C285.374 83.1013 286.27 82.056 288.062 82.056C289.982 82.056 290.942 82.888 290.942 84.552C290.942 85.192 291.134 85.5973 291.518 85.768C291.774 85.896 292.03 85.96 292.286 85.96C292.627 85.96 292.968 85.832 293.31 85.576C294.206 84.8933 295.315 83.1013 296.638 80.2L297.79 77.512Z" fill="black"/>
<line x1="443.986" y1="66.5" x2="1356.01" y2="66.5" stroke="black"/>
</svg>
