<?xml version="1.0" encoding="UTF-8"?>
<svg id="_レイヤー_1" data-name="レイヤー 1" xmlns="http://www.w3.org/2000/svg" version="1.1" viewBox="0 0 91.46 89.29">
  <defs>
    <style>
      .cls-1 {
        fill: #0b040f;
        stroke-width: 0px;
      }
    </style>
  </defs>
  <path class="cls-1" d="M60.66,83.16h-29.86c-13,0-23.58-10.58-23.58-23.58v-29.86c0-13,10.58-23.58,23.58-23.58h29.86c13,0,23.58,10.58,23.58,23.58v29.86c0,13-10.58,23.58-23.58,23.58ZM30.8,11.9c-9.82,0-17.82,7.99-17.82,17.82v29.86c0,9.82,7.99,17.82,17.82,17.82h29.86c9.82,0,17.82-7.99,17.82-17.82v-29.86c0-9.82-7.99-17.82-17.82-17.82h-29.86Z"/>
  <path class="cls-1" d="M45.73,64.13c-10.74,0-19.48-8.74-19.48-19.48s8.74-19.48,19.48-19.48,19.48,8.74,19.48,19.48-8.74,19.48-19.48,19.48ZM45.73,31.07c-7.49,0-13.58,6.09-13.58,13.58s6.09,13.58,13.58,13.58,13.58-6.09,13.58-13.58-6.09-13.58-13.58-13.58Z"/>
  <path class="cls-1" d="M72.41,23.04c0,2.8-2.27,5.07-5.07,5.07s-5.07-2.27-5.07-5.07,2.27-5.07,5.07-5.07,5.07,2.27,5.07,5.07Z"/>
</svg>