<svg width="251" height="48" viewBox="0 0 251 48" fill="none" xmlns="http://www.w3.org/2000/svg">
<path d="M28.9515 32.224C28.9515 37.0027 27.5862 40.8213 24.8555 43.68C22.2529 46.5387 18.9249 47.968 14.8715 47.968C10.7755 47.968 7.42621 46.5387 4.82354 43.68C2.09287 40.8213 0.727539 37.0027 0.727539 32.224C0.727539 27.4453 2.09287 23.6267 4.82354 20.768C7.42621 17.9093 10.7755 16.48 14.8715 16.48C18.9249 16.48 22.2529 17.9093 24.8555 20.768C27.5862 23.6267 28.9515 27.4453 28.9515 32.224ZM24.5995 32.224C24.5995 28.2987 23.6609 25.0773 21.7835 22.56C20.0342 20.0427 17.7302 18.784 14.8715 18.784C12.0555 18.784 9.70887 20.0427 7.83154 22.56C5.99687 25.0773 5.07954 28.2987 5.07954 32.224C5.07954 36.1067 5.97554 39.328 7.76754 41.888C9.60221 44.3627 11.9702 45.6 14.8715 45.6C17.6449 45.6 19.9489 44.3627 21.7835 41.888C23.6609 39.3707 24.5995 36.1493 24.5995 32.224Z" fill="black"/>
<path d="M63.391 19.168C61.6844 19.168 60.511 19.3173 59.871 19.616C59.231 19.9147 58.7617 20.4267 58.463 21.152V21.344L57.311 24.032C55.775 28.0427 54.2177 31.9894 52.639 35.872C51.103 39.7547 49.567 43.68 48.031 47.648H46.559C44.767 43.296 42.975 38.9867 41.183 34.72C39.4337 30.4534 37.663 26.1227 35.871 21.728V21.152C35.487 20.4267 34.975 19.9147 34.335 19.616C33.7377 19.3173 32.735 19.168 31.327 19.168V17.12H44.191V19.168C41.759 19.168 40.351 19.4027 39.967 19.872C39.7537 20.0853 39.647 20.3413 39.647 20.64C39.647 20.8107 39.711 21.024 39.839 21.28L48.031 41.248C49.183 38.304 50.3137 35.3813 51.423 32.48C52.575 29.5787 53.727 26.656 54.879 23.712C55.0924 23.2853 55.263 22.88 55.391 22.496C55.5617 22.0693 55.7537 21.6427 55.967 21.216C56.0524 20.8747 56.095 20.6827 56.095 20.64C56.095 20.4693 56.0737 20.3627 56.031 20.32C55.903 19.9787 55.6684 19.7013 55.327 19.488C54.687 19.232 53.535 19.104 51.871 19.104V17.12H63.391V19.168Z" fill="black"/>
<path d="M92.6045 39.072C92.8179 39.2427 93.0312 39.4133 93.2445 39.584C93.5005 39.7547 93.7352 39.9253 93.9485 40.096C92.9245 41.632 91.7939 42.912 90.5565 43.936C89.3192 44.96 87.9965 45.8133 86.5885 46.496C84.6685 47.4347 82.5992 47.904 80.3805 47.904C76.1565 47.904 72.7005 46.56 70.0125 43.872C67.1539 41.0134 65.7245 37.152 65.7245 32.288C65.7245 27.5947 67.0899 23.8187 69.8205 20.96C72.5085 18.016 75.9219 16.544 80.0605 16.544C84.1992 16.544 87.4632 17.7387 89.8525 20.128C92.4125 22.56 93.6925 26.08 93.6925 30.688C89.7245 30.816 85.8205 30.9653 81.9805 31.136C78.1405 31.264 74.2152 31.392 70.2045 31.52C70.2045 31.6907 70.1832 31.8613 70.1405 32.032C70.1405 32.16 70.1405 32.3093 70.1405 32.48C70.1405 34.272 70.3752 35.8934 70.8445 37.344C71.3565 38.7947 72.0819 40.096 73.0205 41.248C74.9832 43.808 77.7352 45.088 81.2765 45.088C83.1539 45.088 85.1165 44.5973 87.1645 43.616C88.1032 43.0613 89.0205 42.4213 89.9165 41.696C90.8552 40.928 91.7512 40.0533 92.6045 39.072ZM70.3325 29.088C73.5325 29.0027 76.6899 28.896 79.8045 28.768C82.9192 28.64 86.0765 28.5333 89.2765 28.448C89.2339 25.632 88.3592 23.3707 86.6525 21.664C84.9032 19.7867 82.7059 18.848 80.0605 18.848C77.5005 18.848 75.2605 19.872 73.3405 21.92C71.5485 23.7973 70.5459 26.1867 70.3325 29.088Z" fill="black"/>
<path d="M121.034 19.424C121.034 21.6427 120.053 22.752 118.09 22.752C117.279 22.752 116.383 22.3893 115.402 21.664C114.677 21.0667 113.887 20.768 113.034 20.768C111.925 20.768 110.538 21.408 108.874 22.688C107.551 23.712 106.271 24.8853 105.034 26.208V41.696C105.034 42.8907 105.247 43.68 105.674 44.064C106.143 44.4907 107.317 44.704 109.194 44.704V46.752H97.034V44.704C98.1434 44.704 98.9967 44.6187 99.594 44.448C100.191 44.2774 100.597 44.0213 100.81 43.68C101.023 43.3387 101.13 42.8054 101.13 42.08V23.392C101.13 22.5387 100.981 21.9627 100.682 21.664C100.511 21.4933 100.149 21.3013 99.594 21.088C98.9967 20.96 98.2714 20.896 97.418 20.896C97.3327 20.6827 97.2687 20.4693 97.226 20.256C97.1834 20.0427 97.1194 19.8293 97.034 19.616C98.3994 19.0613 99.7434 18.528 101.066 18.016C102.389 17.4613 103.711 16.9067 105.034 16.352V22.944C106.058 21.9627 107.082 21.0667 108.106 20.256C109.13 19.4453 110.133 18.7627 111.114 18.208C113.247 16.9707 115.317 16.352 117.322 16.352C119.797 16.352 121.034 17.376 121.034 19.424Z" fill="black"/>
<path d="M154.829 19.168C153.122 19.168 151.949 19.3173 151.309 19.616C150.669 19.9147 150.199 20.4267 149.901 21.152V21.344L148.749 24.032C147.213 28.0427 145.655 31.9894 144.077 35.872C142.541 39.7547 141.005 43.68 139.469 47.648H137.997C136.205 43.296 134.413 38.9867 132.621 34.72C130.871 30.4534 129.101 26.1227 127.309 21.728V21.152C126.925 20.4267 126.413 19.9147 125.773 19.616C125.175 19.3173 124.173 19.168 122.765 19.168V17.12H135.629V19.168C133.197 19.168 131.789 19.4027 131.405 19.872C131.191 20.0853 131.085 20.3413 131.085 20.64C131.085 20.8107 131.149 21.024 131.277 21.28L139.469 41.248C140.621 38.304 141.751 35.3813 142.861 32.48C144.013 29.5787 145.165 26.656 146.317 23.712C146.53 23.2853 146.701 22.88 146.829 22.496C146.999 22.0693 147.191 21.6427 147.405 21.216C147.49 20.8747 147.533 20.6827 147.533 20.64C147.533 20.4693 147.511 20.3627 147.469 20.32C147.341 19.9787 147.106 19.7013 146.765 19.488C146.125 19.232 144.973 19.104 143.309 19.104V17.12H154.829V19.168Z" fill="black"/>
<path d="M167.146 4.44801C167.146 5.47201 166.805 6.32535 166.122 7.00801C165.439 7.69068 164.586 8.03201 163.562 8.03201C162.623 8.03201 161.834 7.69068 161.194 7.00801C160.597 6.32535 160.298 5.47201 160.298 4.44801C160.298 3.42401 160.618 2.57068 161.258 1.88801C161.898 1.20535 162.666 0.864014 163.562 0.864014C164.586 0.864014 165.439 1.20535 166.122 1.88801C166.805 2.57068 167.146 3.42401 167.146 4.44801ZM170.154 46.816H158.186V44.704C159.935 44.704 161.066 44.448 161.578 43.936C162.005 43.552 162.218 42.848 162.218 41.824V23.392C162.218 22.4533 162.026 21.8133 161.642 21.472C161.173 21.088 160.042 20.896 158.25 20.896L157.994 19.488L166.122 16.416V41.824C166.122 43.0187 166.314 43.7653 166.698 44.064C167.253 44.4907 168.405 44.704 170.154 44.704V46.816Z" fill="black"/>
<path d="M200.167 39.072C200.38 39.2427 200.594 39.4133 200.807 39.584C201.063 39.7547 201.298 39.9253 201.511 40.096C200.487 41.632 199.356 42.912 198.119 43.936C196.882 44.96 195.559 45.8133 194.151 46.496C192.231 47.4347 190.162 47.904 187.943 47.904C183.719 47.904 180.263 46.56 177.575 43.872C174.716 41.0134 173.287 37.152 173.287 32.288C173.287 27.5947 174.652 23.8187 177.383 20.96C180.071 18.016 183.484 16.544 187.623 16.544C191.762 16.544 195.026 17.7387 197.415 20.128C199.975 22.56 201.255 26.08 201.255 30.688C197.287 30.816 193.383 30.9653 189.543 31.136C185.703 31.264 181.778 31.392 177.767 31.52C177.767 31.6907 177.746 31.8613 177.703 32.032C177.703 32.16 177.703 32.3093 177.703 32.48C177.703 34.272 177.938 35.8934 178.407 37.344C178.919 38.7947 179.644 40.096 180.583 41.248C182.546 43.808 185.298 45.088 188.839 45.088C190.716 45.088 192.679 44.5973 194.727 43.616C195.666 43.0613 196.583 42.4213 197.479 41.696C198.418 40.928 199.314 40.0533 200.167 39.072ZM177.895 29.088C181.095 29.0027 184.252 28.896 187.367 28.768C190.482 28.64 193.639 28.5333 196.839 28.448C196.796 25.632 195.922 23.3707 194.215 21.664C192.466 19.7867 190.268 18.848 187.623 18.848C185.063 18.848 182.823 19.872 180.903 21.92C179.111 23.7973 178.108 26.1867 177.895 29.088Z" fill="black"/>
<path d="M234.805 47.648C233.525 44.448 232.223 41.2267 230.901 37.984C229.621 34.7413 228.341 31.4987 227.061 28.256C225.823 31.4987 224.586 34.7413 223.349 37.984C222.111 41.2267 220.874 44.448 219.637 47.648H218.229C216.522 43.2533 214.815 38.9227 213.109 34.656C211.445 30.3467 209.759 25.9947 208.053 21.6C207.754 20.6613 207.327 20.0427 206.773 19.744C206.047 19.36 204.981 19.168 203.573 19.168V17.12H216.245V19.168C214.538 19.168 213.386 19.2747 212.789 19.488C212.234 19.6587 211.957 19.9147 211.957 20.256C211.957 20.4267 212.021 20.64 212.149 20.896C212.362 21.3227 212.533 21.7493 212.661 22.176C212.831 22.56 213.023 22.9653 213.237 23.392C214.346 26.2507 215.434 29.088 216.501 31.904C217.567 34.6773 218.634 37.4933 219.701 40.352C220.725 37.664 221.727 35.0613 222.709 32.544C223.69 29.984 224.693 27.36 225.717 24.672C225.503 24.2027 225.29 23.7333 225.077 23.264C224.906 22.7947 224.714 22.3253 224.501 21.856C224.074 20.6613 223.583 19.9147 223.029 19.616C222.559 19.36 221.663 19.232 220.341 19.232V17.12H232.821V19.168C230.559 19.168 229.13 19.4027 228.533 19.872C228.319 20.0853 228.213 20.32 228.213 20.576C228.213 20.6187 228.255 20.8107 228.341 21.152L236.213 40.736C237.365 37.4933 238.495 34.2507 239.605 31.008C240.757 27.7653 241.909 24.5227 243.061 21.28C243.146 20.9387 243.189 20.7253 243.189 20.64C243.189 20.384 243.103 20.1493 242.933 19.936C242.463 19.424 241.183 19.168 239.093 19.168V17.12H250.165V19.168C248.458 19.168 247.285 19.36 246.645 19.744C246.175 20.0427 245.77 20.6187 245.429 21.472C243.935 25.8667 242.421 30.24 240.885 34.592C239.391 38.9013 237.898 43.2533 236.405 47.648H234.805Z" fill="black"/>
</svg>
