<svg width="381" height="96" viewBox="0 0 381 96" fill="none" xmlns="http://www.w3.org/2000/svg">
<path d="M41.64 0.0720215C47.016 0.157354 52.008 1.22402 56.616 3.27202C61.3094 5.23469 65.064 8.05068 67.88 11.72C70.7814 15.3894 72.232 19.6987 72.232 24.648C72.232 33.864 69.0747 40.264 62.76 43.848C56.5307 47.3467 48.552 49.4374 38.824 50.12C37.7147 50.2054 35.2827 50.248 31.528 50.248H24.232V81.352C24.232 84.3387 25.0854 86.4294 26.792 87.624C28.4987 88.8187 31.3147 89.416 35.24 89.416H37.288C37.8854 89.416 38.184 89.9707 38.184 91.08C38.184 92.36 37.8854 93 37.288 93H0.936039C0.338706 93 0.0400391 92.4027 0.0400391 91.208C0.0400391 90.0134 0.338706 89.416 0.936039 89.416H2.98404C6.65337 89.416 9.38404 88.8187 11.176 87.624C13.0534 86.4294 13.992 84.3387 13.992 81.352V11.72C13.992 8.81868 13.096 6.77069 11.304 5.57602C9.51204 4.29602 6.73871 3.65602 2.98404 3.65602H0.936039C0.338706 3.65602 0.0400391 3.05869 0.0400391 1.86402C0.0400391 0.669355 0.338706 0.0720215 0.936039 0.0720215H41.64ZM34.216 46.536C43.7734 46.4507 50.5147 44.4027 54.44 40.392C58.3654 36.3814 60.328 30.9627 60.328 24.136C60.328 15.432 57.4694 9.84268 51.752 7.36802C46.12 4.89335 40.4454 3.65602 34.728 3.65602C27.7307 3.65602 24.232 6.34402 24.232 11.72V46.536H34.216Z" fill="black"/>
<path d="M113.611 94.792C107.552 94.792 102.219 93.2134 97.611 90.056C93.0884 86.8134 89.5897 82.7174 87.115 77.768C84.7257 72.8187 83.531 67.784 83.531 62.664C83.531 57.2027 84.7257 51.9974 87.115 47.048C89.5044 42.0987 92.9604 38.088 97.483 35.016C102.091 31.944 107.467 30.408 113.611 30.408C119.755 30.408 125.131 31.944 129.739 35.016C134.347 38.088 137.846 42.0987 140.235 47.048C142.71 51.9974 143.947 57.2027 143.947 62.664C143.947 67.784 142.71 72.8187 140.235 77.768C137.846 82.7174 134.347 86.8134 129.739 90.056C125.131 93.2134 119.755 94.792 113.611 94.792ZM113.611 90.312C119.67 90.312 124.448 87.7094 127.947 82.504C131.531 77.2134 133.323 70.6 133.323 62.664C133.323 54.3014 131.574 47.6027 128.075 42.568C124.576 37.448 119.755 34.888 113.611 34.888C107.552 34.888 102.774 37.448 99.275 42.568C95.7764 47.688 94.027 54.3867 94.027 62.664C94.027 67.784 94.795 72.4774 96.331 76.744C97.9524 80.9254 100.214 84.2534 103.115 86.728C106.102 89.1174 109.6 90.312 113.611 90.312Z" fill="black"/>
<path d="M157.665 76.104L157.537 75.464C157.537 74.952 157.878 74.5254 158.561 74.184C158.732 74.0987 158.945 74.056 159.201 74.056C159.798 74.056 160.31 74.3974 160.737 75.08C162.785 77.7254 164.79 80.1147 166.753 82.248C168.716 84.296 171.489 86.2587 175.073 88.136C178.742 89.928 182.924 90.824 187.617 90.824C191.457 90.824 194.572 89.7574 196.961 87.624C199.436 85.4054 200.673 82.632 200.673 79.304C200.673 77.3414 200.118 75.5494 199.009 73.928C197.9 72.3067 196.321 71.0267 194.273 70.088C192.14 69.064 187.83 67.6134 181.345 65.736C178.017 64.968 175.329 64.1574 173.281 63.304C164.833 59.8054 160.609 54.5147 160.609 47.432C160.609 45.5547 161.078 43.336 162.017 40.776C163.041 38.1307 164.918 35.7414 167.649 33.608C170.465 31.4747 174.39 30.408 179.425 30.408C182.156 30.408 184.502 30.7494 186.465 31.432C188.513 32.0294 189.708 32.3707 190.049 32.456C191.67 33.0534 192.737 33.352 193.249 33.352C194.529 33.352 195.852 33.0107 197.217 32.328C198.582 31.56 199.606 30.5787 200.289 29.384L205.537 46.152L205.793 47.048C205.793 47.4747 205.452 47.9014 204.769 48.328C204.598 48.4134 204.342 48.456 204.001 48.456C203.489 48.456 203.02 48.2427 202.593 47.816C199.521 44.3174 196.15 41.2454 192.481 38.6C188.812 35.8694 184.289 34.504 178.913 34.504C176.097 34.504 173.75 35.0587 171.873 36.168C170.081 37.2774 168.758 38.6 167.905 40.136C167.137 41.672 166.753 43.1227 166.753 44.488C166.753 46.3654 167.35 47.9867 168.545 49.352C169.825 50.632 171.873 51.9547 174.689 53.32C176.481 54.2587 179.937 55.4534 185.057 56.904C190.604 58.6107 194.657 60.0187 197.217 61.128C204.726 64.5414 208.481 69.704 208.481 76.616C208.481 81.992 206.476 86.3867 202.465 89.8C198.454 93.128 192.993 94.792 186.081 94.792C182.412 94.792 177.804 93.896 172.257 92.104C170.209 91.5067 168.972 91.208 168.545 91.208C167.521 91.208 166.54 91.5067 165.601 92.104C164.748 92.7014 163.681 93.7254 162.401 95.176L157.665 76.104Z" fill="black"/>
<path d="M240.868 94.792C236.175 94.792 232.548 93.5974 229.988 91.208C227.513 88.7334 226.276 84.9787 226.276 79.944V36.296H215.908V31.56C219.151 30.536 221.753 29.1707 223.716 27.464C225.764 25.7574 227.513 23.24 228.964 19.912C230.415 16.584 231.652 11.976 232.676 6.08802H235.492V31.56H252.26V36.296H235.364V67.656L235.492 79.176C235.577 82.0774 236.388 84.424 237.924 86.216C239.46 87.9227 241.423 88.776 243.812 88.776C245.775 88.776 247.353 88.4774 248.548 87.88C249.828 87.2827 251.065 86.3014 252.26 84.936C252.687 84.424 253.113 84.168 253.54 84.168C253.967 84.168 254.351 84.3814 254.692 84.808C255.119 85.2347 255.332 85.6614 255.332 86.088C255.332 86.4294 255.247 86.728 255.076 86.984C251.663 92.1894 246.927 94.792 240.868 94.792Z" fill="black"/>
<path d="M318.455 76.744C318.882 77 319.095 77.3414 319.095 77.768C319.095 78.1094 318.967 78.536 318.711 79.048C316.919 83.2294 313.932 86.8987 309.751 90.056C305.655 93.2134 300.407 94.792 294.007 94.792C288.29 94.792 283.042 93.5547 278.263 91.08C273.57 88.52 269.858 84.8934 267.127 80.2C264.396 75.5067 263.031 70.0454 263.031 63.816C263.031 58.3547 264.14 53.064 266.359 47.944C268.578 42.824 271.863 38.6 276.215 35.272C280.652 31.944 285.986 30.28 292.215 30.28C299.724 30.28 305.826 32.712 310.519 37.576C315.212 42.44 318.028 49.096 318.967 57.544L273.783 57.8C273.612 59.848 273.527 61.4267 273.527 62.536C273.527 68.424 274.551 73.3307 276.599 77.256C278.732 81.096 281.463 83.9547 284.791 85.832C288.204 87.624 291.916 88.52 295.927 88.52C304.119 88.52 310.86 84.68 316.151 77C316.492 76.488 316.876 76.232 317.303 76.232C317.559 76.232 317.943 76.4027 318.455 76.744ZM291.447 34.888C287.351 34.888 283.767 36.4667 280.695 39.624C277.708 42.7814 275.618 47.176 274.423 52.808L306.679 52.552V51.272C306.423 45.64 304.844 41.5014 301.943 38.856C299.127 36.2107 295.628 34.888 291.447 34.888Z" fill="black"/>
<path d="M371.699 30.408C374.259 30.408 376.435 31.0907 378.227 32.456C380.019 33.736 380.915 35.4 380.915 37.448C380.915 38.8987 380.36 40.136 379.251 41.16C378.227 42.184 376.904 42.696 375.283 42.696C374.003 42.696 372.382 42.056 370.419 40.776C369.139 40.0934 368.115 39.5814 367.347 39.24C366.579 38.8987 365.726 38.728 364.787 38.728C362.739 38.728 360.52 39.5814 358.131 41.288C355.742 42.9947 353.352 45.2987 350.963 48.2L350.835 84.296C350.835 86.4294 351.56 87.8374 353.011 88.52C354.547 89.2027 356.595 89.544 359.155 89.544H360.819C361.502 89.544 361.843 90.1414 361.843 91.336C361.843 92.4454 361.502 93 360.819 93H332.147C331.55 93 331.251 92.4454 331.251 91.336C331.251 90.1414 331.55 89.544 332.147 89.544H333.811C336.286 89.544 338.248 89.2027 339.699 88.52C341.235 87.8374 342.003 86.4294 342.003 84.296L341.619 44.872C341.619 43.08 341.192 41.7574 340.339 40.904C339.571 40.0507 338.632 39.5387 337.523 39.368C336.499 39.112 334.664 38.8134 332.019 38.472C331.507 38.3867 331.166 38.1734 330.995 37.832C330.91 37.4907 330.867 36.9787 330.867 36.296C330.867 35.6987 331.08 35.3147 331.507 35.144C332.787 34.632 339.272 33.0107 350.963 30.28V42.824C354.206 39.24 357.619 36.296 361.203 33.992C364.872 31.6027 368.371 30.408 371.699 30.408Z" fill="black"/>
</svg>
