<svg width="870" height="120" viewBox="0 0 870 120" fill="none" xmlns="http://www.w3.org/2000/svg">
<path d="M27.3358 94.9999C26.8238 94.9999 26.5678 94.3599 26.5678 93.0799C26.5678 91.9706 26.8238 91.4159 27.3358 91.4159H29.2558C33.0958 91.4159 35.9118 90.8186 37.7038 89.6239C39.4958 88.3439 40.3918 86.2533 40.3918 83.3519V13.7199C40.3918 10.4773 39.5384 8.34392 37.8318 7.31992C36.2104 6.21059 33.7784 5.65592 30.5358 5.65592C29.2558 5.65592 28.1891 5.69859 27.3358 5.78392C23.8371 5.95458 19.8264 7.40525 15.3038 10.1359C10.8664 12.7813 7.28244 15.9386 4.55177 19.6079C4.03977 20.2053 3.57044 20.5039 3.14377 20.5039C2.88777 20.5039 2.58911 20.4186 2.24777 20.2479C1.39444 19.9066 0.967773 19.5226 0.967773 19.0959L1.09577 18.4559C1.69311 16.8346 2.58911 14.3599 3.78377 11.0319C5.06377 7.61859 6.21577 4.63192 7.23977 2.07192H83.6558C84.6798 4.63192 85.7891 7.61859 86.9838 11.0319C88.2638 14.3599 89.2024 16.8346 89.7998 18.4559L89.9278 19.0959C89.9278 19.5226 89.5011 19.9066 88.6478 20.2479C88.3064 20.4186 88.0078 20.5039 87.7518 20.5039C87.3251 20.5039 86.8558 20.2053 86.3438 19.6079C83.6131 15.9386 79.9864 12.7813 75.4638 10.1359C71.0264 7.40525 67.0584 5.95458 63.5598 5.78392C62.7918 5.69859 61.7251 5.65592 60.3598 5.65592C57.0318 5.65592 54.5571 6.21059 52.9358 7.31992C51.3144 8.42925 50.5038 10.5626 50.5038 13.7199V83.3519C50.5038 86.3386 51.3998 88.4293 53.1918 89.6239C55.0691 90.8186 57.8851 91.4159 61.6398 91.4159H63.5598C64.1571 91.4159 64.4558 91.9706 64.4558 93.0799C64.4558 94.3599 64.1571 94.9999 63.5598 94.9999H27.3358Z" fill="black"/>
<path d="M121.309 69.1439H97.6288V60.9519H121.309V69.1439Z" fill="black"/>
<path d="M133.915 78.1039L133.787 77.4639C133.787 76.9519 134.128 76.5253 134.811 76.1839C134.981 76.0986 135.195 76.0559 135.451 76.0559C136.048 76.0559 136.56 76.3973 136.987 77.0799C139.035 79.7253 141.04 82.1146 143.003 84.2479C144.965 86.2959 147.739 88.2586 151.323 90.1359C154.992 91.9279 159.173 92.8239 163.867 92.8239C167.707 92.8239 170.821 91.7573 173.211 89.6239C175.685 87.4053 176.923 84.6319 176.923 81.3039C176.923 79.3413 176.368 77.5493 175.259 75.9279C174.149 74.3066 172.571 73.0266 170.523 72.0879C168.389 71.0639 164.08 69.6133 157.595 67.7359C154.267 66.9679 151.579 66.1573 149.531 65.3039C141.083 61.8053 136.859 56.5146 136.859 49.4319C136.859 47.5546 137.328 45.3359 138.267 42.7759C139.291 40.1306 141.168 37.7413 143.899 35.6079C146.715 33.4746 150.64 32.4079 155.675 32.4079C158.405 32.4079 160.752 32.7493 162.715 33.4319C164.763 34.0293 165.957 34.3706 166.299 34.4559C167.92 35.0533 168.987 35.3519 169.499 35.3519C170.779 35.3519 172.101 35.0106 173.467 34.3279C174.832 33.5599 175.856 32.5786 176.539 31.3839L181.787 48.1519L182.043 49.0479C182.043 49.4746 181.701 49.9013 181.019 50.3279C180.848 50.4133 180.592 50.4559 180.251 50.4559C179.739 50.4559 179.269 50.2426 178.843 49.8159C175.771 46.3173 172.4 43.2453 168.731 40.5999C165.061 37.8693 160.539 36.5039 155.163 36.5039C152.347 36.5039 150 37.0586 148.123 38.1679C146.331 39.2773 145.008 40.5999 144.155 42.1359C143.387 43.6719 143.003 45.1226 143.003 46.4879C143.003 48.3653 143.6 49.9866 144.795 51.3519C146.075 52.6319 148.123 53.9546 150.939 55.3199C152.731 56.2586 156.187 57.4533 161.307 58.9039C166.853 60.6106 170.907 62.0186 173.467 63.1279C180.976 66.5413 184.731 71.7039 184.731 78.6159C184.731 83.9919 182.725 88.3866 178.715 91.7999C174.704 95.1279 169.243 96.7919 162.331 96.7919C158.661 96.7919 154.053 95.8959 148.507 94.1039C146.459 93.5066 145.221 93.2079 144.795 93.2079C143.771 93.2079 142.789 93.5066 141.851 94.1039C140.997 94.7013 139.931 95.7253 138.651 97.1759L133.915 78.1039Z" fill="black"/>
<path d="M265.886 91.5439C266.483 91.5439 266.782 92.1413 266.782 93.3359C266.782 94.4453 266.483 94.9999 265.886 94.9999H237.214C236.531 94.9999 236.19 94.4453 236.19 93.3359C236.19 92.1413 236.531 91.5439 237.214 91.5439H238.878C241.352 91.5439 243.315 91.2026 244.766 90.5199C246.302 89.8373 247.07 88.3866 247.07 86.1679L246.942 64.4079C246.942 60.3973 246.856 57.0266 246.686 54.2959C246.43 49.6879 245.363 45.9333 243.486 43.0319C241.608 40.1306 238.323 38.6799 233.63 38.6799C230.131 38.6799 226.76 39.6613 223.518 41.6239C220.275 43.5013 217.502 46.3599 215.198 50.1999V86.1679C215.198 88.3866 215.923 89.8373 217.374 90.5199C218.91 91.2026 220.958 91.5439 223.518 91.5439H225.054C225.822 91.5439 226.206 92.1413 226.206 93.3359C226.206 94.4453 225.822 94.9999 225.054 94.9999H196.51C195.827 94.9999 195.486 94.4453 195.486 93.3359C195.486 92.1413 195.827 91.5439 196.51 91.5439H198.046C200.606 91.5439 202.611 91.2026 204.062 90.5199C205.598 89.8373 206.366 88.3866 206.366 86.1679L205.982 15.5119C205.982 13.7199 205.555 12.3973 204.702 11.5439C203.934 10.6906 202.995 10.1359 201.886 9.87992C200.776 9.62392 198.942 9.32525 196.382 8.98392C195.528 8.89858 195.102 8.51458 195.102 7.83192V6.93592C195.102 6.33858 195.358 5.95458 195.87 5.78392C197.15 5.27192 203.635 3.65059 215.326 0.919922L215.198 43.9279C220.915 36.2479 227.656 32.4079 235.422 32.4079C242.078 32.4079 247.027 34.2853 250.27 38.0399C253.598 41.7093 255.39 46.3173 255.646 51.8639C255.731 53.2293 255.774 55.8746 255.774 59.7999L255.902 86.1679C255.902 88.3013 256.67 89.7519 258.206 90.5199C259.742 91.2026 261.747 91.5439 264.222 91.5439H265.886Z" fill="black"/>
<path d="M290.965 16.0239C288.831 16.0239 287.039 15.2986 285.589 13.8479C284.138 12.3973 283.413 10.6053 283.413 8.47192C283.413 6.33858 284.138 4.54659 285.589 3.09592C287.039 1.64525 288.831 0.919922 290.965 0.919922C293.098 0.919922 294.89 1.64525 296.341 3.09592C297.791 4.54659 298.517 6.33858 298.517 8.47192C298.517 10.6053 297.791 12.3973 296.341 13.8479C294.89 15.2986 293.098 16.0239 290.965 16.0239ZM277.525 94.9999C276.842 94.9999 276.501 94.4026 276.501 93.2079C276.501 92.0133 276.842 91.4159 277.525 91.4159H279.189C281.663 91.4159 283.626 91.0746 285.077 90.3919C286.613 89.7093 287.381 88.2586 287.381 86.0399L286.997 46.9999C286.997 45.2079 286.57 43.8853 285.717 43.0319C284.949 42.1786 284.01 41.6666 282.901 41.4959C281.877 41.2399 280.042 40.9413 277.397 40.5999C276.885 40.5146 276.543 40.3866 276.373 40.2159C276.287 40.0453 276.245 39.6613 276.245 39.0639C276.245 38.6373 276.287 38.2533 276.373 37.9119C276.458 37.5706 276.629 37.3573 276.885 37.2719C278.165 36.7599 284.65 35.1386 296.341 32.4079L296.213 86.0399C296.213 88.2586 296.938 89.7093 298.389 90.3919C299.925 91.0746 301.973 91.4159 304.533 91.4159H306.197C306.794 91.4159 307.093 92.0133 307.093 93.2079C307.093 94.4026 306.794 94.9999 306.197 94.9999H277.525Z" fill="black"/>
<path d="M357.574 32.4079C360.134 32.4079 362.31 33.0906 364.102 34.4559C365.894 35.7359 366.79 37.3999 366.79 39.4479C366.79 40.8986 366.235 42.1359 365.126 43.1599C364.102 44.1839 362.779 44.6959 361.158 44.6959C359.878 44.6959 358.256 44.0559 356.294 42.7759C355.014 42.0933 353.99 41.5813 353.222 41.2399C352.454 40.8986 351.6 40.7279 350.662 40.7279C348.614 40.7279 346.395 41.5813 344.006 43.2879C341.616 44.9946 339.227 47.2986 336.838 50.1999L336.71 86.2959C336.71 88.4293 337.435 89.8373 338.886 90.5199C340.422 91.2026 342.47 91.5439 345.03 91.5439H346.694C347.376 91.5439 347.718 92.1413 347.718 93.3359C347.718 94.4453 347.376 94.9999 346.694 94.9999H318.022C317.424 94.9999 317.126 94.4453 317.126 93.3359C317.126 92.1413 317.424 91.5439 318.022 91.5439H319.686C322.16 91.5439 324.123 91.2026 325.574 90.5199C327.11 89.8373 327.878 88.4293 327.878 86.2959L327.494 46.8719C327.494 45.0799 327.067 43.7573 326.214 42.9039C325.446 42.0506 324.507 41.5386 323.398 41.3679C322.374 41.1119 320.539 40.8133 317.894 40.4719C317.382 40.3866 317.04 40.1733 316.87 39.8319C316.784 39.4906 316.742 38.9786 316.742 38.2959C316.742 37.6986 316.955 37.3146 317.382 37.1439C318.662 36.6319 325.147 35.0106 336.838 32.2799V44.8239C340.08 41.2399 343.494 38.2959 347.078 35.9919C350.747 33.6026 354.246 32.4079 357.574 32.4079Z" fill="black"/>
<path d="M393.993 96.7919C389.299 96.7919 385.673 95.5973 383.113 93.2079C380.638 90.7333 379.401 86.9786 379.401 81.9439V38.2959H369.033V33.5599C372.275 32.5359 374.878 31.1706 376.841 29.4639C378.889 27.7573 380.638 25.2399 382.089 21.9119C383.539 18.5839 384.777 13.9759 385.801 8.08792H388.617V33.5599H405.385V38.2959H388.489V69.6559L388.617 81.1759C388.702 84.0773 389.513 86.4239 391.049 88.2159C392.585 89.9226 394.547 90.7759 396.937 90.7759C398.899 90.7759 400.478 90.4773 401.673 89.8799C402.953 89.2826 404.19 88.3013 405.385 86.9359C405.811 86.4239 406.238 86.1679 406.665 86.1679C407.091 86.1679 407.475 86.3813 407.817 86.8079C408.243 87.2346 408.457 87.6613 408.457 88.0879C408.457 88.4293 408.371 88.7279 408.201 88.9839C404.787 94.1893 400.051 96.7919 393.993 96.7919Z" fill="black"/>
<path d="M450.692 94.9999C450.009 94.9999 449.668 94.4026 449.668 93.2079C449.668 92.0133 450.009 91.4159 450.692 91.4159H452.74C456.58 91.4159 459.353 90.8613 461.06 89.7519C462.766 88.5573 463.62 86.4666 463.62 83.4799V13.7199C463.62 10.6479 462.766 8.55726 461.06 7.44792C459.353 6.25326 456.58 5.65592 452.74 5.65592H450.692C450.094 5.65592 449.796 5.05859 449.796 3.86392C449.796 2.66926 450.094 2.07192 450.692 2.07192L465.028 1.94392C474.244 1.94392 482.009 2.07192 488.324 2.32792C496.43 2.66925 503.94 4.41859 510.852 7.57592C517.849 10.7333 523.524 15.7253 527.876 22.5519C532.313 29.2933 534.532 37.9546 534.532 48.5359C534.532 59.0319 532.313 67.6933 527.876 74.5199C523.524 81.2613 517.849 86.2533 510.852 89.4959C503.94 92.6533 496.43 94.4026 488.324 94.7439C482.692 94.9999 475.652 95.1279 467.204 95.1279L450.692 94.9999ZM485.892 91.1599C490.841 91.1599 496.089 89.9653 501.636 87.5759C507.268 85.1866 512.174 80.8346 516.356 74.5199C520.622 68.1199 522.756 59.4586 522.756 48.5359C522.756 37.5279 520.622 28.8666 516.356 22.5519C512.174 16.1519 507.268 11.7999 501.636 9.49592C496.089 7.10659 490.841 5.91192 485.892 5.91192H484.868C480.942 5.91192 478.126 6.50925 476.42 7.70392C474.798 8.89858 473.988 10.9893 473.988 13.9759V83.2239C473.988 86.1253 474.798 88.1733 476.42 89.3679C478.126 90.5626 480.942 91.1599 484.868 91.1599H485.892Z" fill="black"/>
<path d="M604.705 78.7439C605.131 78.9999 605.345 79.3413 605.345 79.7679C605.345 80.1093 605.217 80.5359 604.961 81.0479C603.169 85.2293 600.182 88.8986 596.001 92.0559C591.905 95.2133 586.657 96.7919 580.257 96.7919C574.539 96.7919 569.291 95.5546 564.513 93.0799C559.819 90.5199 556.107 86.8933 553.377 82.1999C550.646 77.5066 549.281 72.0453 549.281 65.8159C549.281 60.3546 550.39 55.0639 552.609 49.9439C554.827 44.8239 558.113 40.5999 562.465 37.2719C566.902 33.9439 572.235 32.2799 578.465 32.2799C585.974 32.2799 592.075 34.7119 596.769 39.5759C601.462 44.4399 604.278 51.0959 605.217 59.5439L560.033 59.7999C559.862 61.8479 559.777 63.4266 559.777 64.5359C559.777 70.4239 560.801 75.3306 562.849 79.2559C564.982 83.0959 567.713 85.9546 571.041 87.8319C574.454 89.6239 578.166 90.5199 582.177 90.5199C590.369 90.5199 597.11 86.6799 602.401 78.9999C602.742 78.4879 603.126 78.2319 603.553 78.2319C603.809 78.2319 604.193 78.4026 604.705 78.7439ZM577.697 36.8879C573.601 36.8879 570.017 38.4666 566.945 41.6239C563.958 44.7813 561.867 49.1759 560.673 54.8079L592.929 54.5519V53.2719C592.673 47.6399 591.094 43.5013 588.193 40.8559C585.377 38.2106 581.878 36.8879 577.697 36.8879Z" fill="black"/>
<path d="M619.165 78.1039L619.037 77.4639C619.037 76.9519 619.378 76.5253 620.061 76.1839C620.231 76.0986 620.445 76.0559 620.701 76.0559C621.298 76.0559 621.81 76.3973 622.237 77.0799C624.285 79.7253 626.29 82.1146 628.253 84.2479C630.215 86.2959 632.989 88.2586 636.573 90.1359C640.242 91.9279 644.423 92.8239 649.117 92.8239C652.957 92.8239 656.071 91.7573 658.461 89.6239C660.935 87.4053 662.173 84.6319 662.173 81.3039C662.173 79.3413 661.618 77.5493 660.509 75.9279C659.399 74.3066 657.821 73.0266 655.773 72.0879C653.639 71.0639 649.33 69.6133 642.845 67.7359C639.517 66.9679 636.829 66.1573 634.781 65.3039C626.333 61.8053 622.109 56.5146 622.109 49.4319C622.109 47.5546 622.578 45.3359 623.517 42.7759C624.541 40.1306 626.418 37.7413 629.149 35.6079C631.965 33.4746 635.89 32.4079 640.925 32.4079C643.655 32.4079 646.002 32.7493 647.965 33.4319C650.013 34.0293 651.207 34.3706 651.549 34.4559C653.17 35.0533 654.237 35.3519 654.749 35.3519C656.029 35.3519 657.351 35.0106 658.717 34.3279C660.082 33.5599 661.106 32.5786 661.789 31.3839L667.037 48.1519L667.293 49.0479C667.293 49.4746 666.951 49.9013 666.269 50.3279C666.098 50.4133 665.842 50.4559 665.501 50.4559C664.989 50.4559 664.519 50.2426 664.093 49.8159C661.021 46.3173 657.65 43.2453 653.981 40.5999C650.311 37.8693 645.789 36.5039 640.413 36.5039C637.597 36.5039 635.25 37.0586 633.373 38.1679C631.581 39.2773 630.258 40.5999 629.405 42.1359C628.637 43.6719 628.253 45.1226 628.253 46.4879C628.253 48.3653 628.85 49.9866 630.045 51.3519C631.325 52.6319 633.373 53.9546 636.189 55.3199C637.981 56.2586 641.437 57.4533 646.557 58.9039C652.103 60.6106 656.157 62.0186 658.717 63.1279C666.226 66.5413 669.981 71.7039 669.981 78.6159C669.981 83.9919 667.975 88.3866 663.965 91.7999C659.954 95.1279 654.493 96.7919 647.581 96.7919C643.911 96.7919 639.303 95.8959 633.757 94.1039C631.709 93.5066 630.471 93.2079 630.045 93.2079C629.021 93.2079 628.039 93.5066 627.101 94.1039C626.247 94.7013 625.181 95.7253 623.901 97.1759L619.165 78.1039Z" fill="black"/>
<path d="M695.84 16.0239C693.706 16.0239 691.914 15.2986 690.464 13.8479C689.013 12.3973 688.288 10.6053 688.288 8.47192C688.288 6.33858 689.013 4.54659 690.464 3.09592C691.914 1.64525 693.706 0.919922 695.84 0.919922C697.973 0.919922 699.765 1.64525 701.216 3.09592C702.666 4.54659 703.392 6.33858 703.392 8.47192C703.392 10.6053 702.666 12.3973 701.216 13.8479C699.765 15.2986 697.973 16.0239 695.84 16.0239ZM682.4 94.9999C681.717 94.9999 681.376 94.4026 681.376 93.2079C681.376 92.0133 681.717 91.4159 682.4 91.4159H684.064C686.538 91.4159 688.501 91.0746 689.952 90.3919C691.488 89.7093 692.256 88.2586 692.256 86.0399L691.872 46.9999C691.872 45.2079 691.445 43.8853 690.592 43.0319C689.824 42.1786 688.885 41.6666 687.776 41.4959C686.752 41.2399 684.917 40.9413 682.272 40.5999C681.76 40.5146 681.418 40.3866 681.248 40.2159C681.162 40.0453 681.12 39.6613 681.12 39.0639C681.12 38.6373 681.162 38.2533 681.248 37.9119C681.333 37.5706 681.504 37.3573 681.76 37.2719C683.04 36.7599 689.525 35.1386 701.216 32.4079L701.088 86.0399C701.088 88.2586 701.813 89.7093 703.264 90.3919C704.8 91.0746 706.848 91.4159 709.408 91.4159H711.072C711.669 91.4159 711.968 92.0133 711.968 93.2079C711.968 94.4026 711.669 94.9999 711.072 94.9999H682.4Z" fill="black"/>
<path d="M783.057 29.7199C784.934 29.7199 786.385 30.2746 787.409 31.3839C788.433 32.4933 788.945 33.6879 788.945 34.9679C788.945 36.3333 788.475 37.5279 787.537 38.5519C786.683 39.5759 785.361 40.0879 783.569 40.0879C782.459 40.0879 781.393 39.7893 780.369 39.1919C779.174 38.6799 778.107 38.4239 777.169 38.4239C776.315 38.4239 775.334 38.8506 774.225 39.7039C773.115 40.4719 772.049 41.4533 771.025 42.6479C773.414 46.0613 774.609 49.8586 774.609 54.0399C774.609 56.8559 773.969 59.9279 772.689 63.2559C771.494 66.4986 769.105 69.3999 765.521 71.9599C761.937 74.5199 756.987 75.7999 750.673 75.7999C747.857 75.7999 745.169 75.4586 742.609 74.7759C740.731 75.5439 739.238 76.3973 738.129 77.3359C737.019 78.1893 736.465 78.9146 736.465 79.5119C736.465 80.1946 737.062 80.7919 738.257 81.3039C739.451 81.7306 741.713 82.2426 745.041 82.8399C756.219 84.8879 764.71 86.7653 770.513 88.4719C774.182 89.5813 777.211 91.2026 779.601 93.3359C781.99 95.3839 783.185 97.9866 783.185 101.144C783.185 105.325 781.435 108.781 777.937 111.512C774.523 114.243 770.257 116.205 765.137 117.4C760.017 118.68 754.854 119.32 749.649 119.32C743.163 119.32 737.745 118.509 733.393 116.888C729.126 115.267 725.969 113.261 723.921 110.872C721.873 108.483 720.849 106.136 720.849 103.832C720.849 100.845 722.214 98.4133 724.945 96.5359C727.761 94.7439 732.326 92.6533 738.641 90.2639C734.545 89.4959 731.43 88.4293 729.297 87.0639C727.249 85.6133 726.225 84.0773 726.225 82.4559C726.225 80.7493 727.249 79.1706 729.297 77.7199C731.345 76.1839 734.203 74.6479 737.873 73.1119C734.033 71.2346 731.046 68.5893 728.913 65.1759C726.779 61.7626 725.713 58.0079 725.713 53.9119C725.713 49.9866 726.779 46.4026 728.913 43.1599C731.046 39.8319 733.947 37.2293 737.617 35.3519C741.286 33.3893 745.297 32.4079 749.649 32.4079C753.574 32.4079 757.158 33.0906 760.401 34.4559C763.729 35.7359 766.502 37.5706 768.721 39.9599C770.683 37.2293 772.902 34.8399 775.377 32.7919C777.937 30.7439 780.497 29.7199 783.057 29.7199ZM750.417 71.3199C755.195 71.3199 758.822 69.5706 761.297 66.0719C763.857 62.5733 765.137 58.3919 765.137 53.5279C765.137 49.0053 763.899 45.1226 761.425 41.8799C758.95 38.5519 755.195 36.8879 750.161 36.8879C744.785 36.8879 740.902 38.6373 738.513 42.1359C736.123 45.6346 734.929 49.5599 734.929 53.9119C734.929 58.7759 736.166 62.9146 738.641 66.3279C741.115 69.6559 745.041 71.3199 750.417 71.3199ZM774.609 103.576C774.609 100.589 771.878 98.1573 766.417 96.2799C762.406 94.9146 755.067 93.2506 744.401 91.2879C734.673 95.5546 729.809 99.7786 729.809 103.96C729.809 107.544 731.899 110.232 736.081 112.024C740.347 113.816 745.766 114.712 752.337 114.712C757.115 114.712 761.169 114.157 764.497 113.048C767.91 111.939 770.427 110.488 772.049 108.696C773.755 106.989 774.609 105.283 774.609 103.576Z" fill="black"/>
<path d="M868.023 91.5439C868.705 91.5439 869.047 92.1413 869.047 93.3359C869.047 94.4453 868.705 94.9999 868.023 94.9999H839.351C838.753 94.9999 838.455 94.4453 838.455 93.3359C838.455 92.1413 838.753 91.5439 839.351 91.5439H841.143C843.617 91.5439 845.58 91.2026 847.031 90.5199C848.481 89.8373 849.207 88.3866 849.207 86.1679L849.079 62.3599L848.951 54.1679C848.951 49.6453 847.927 45.9333 845.879 43.0319C843.916 40.0453 840.545 38.5519 835.767 38.5519C832.268 38.5519 828.897 39.5333 825.655 41.4959C822.412 43.3733 819.681 46.2746 817.463 50.1999L817.335 86.1679C817.335 88.3013 818.103 89.7519 819.639 90.5199C821.175 91.2026 823.18 91.5439 825.655 91.5439H827.319C827.916 91.5439 828.215 92.1413 828.215 93.3359C828.215 94.4453 827.916 94.9999 827.319 94.9999H798.647C797.964 94.9999 797.623 94.4453 797.623 93.3359C797.623 92.1413 797.964 91.5439 798.647 91.5439H800.311C802.785 91.5439 804.791 91.2026 806.327 90.5199C807.863 89.7519 808.631 88.3013 808.631 86.1679L808.247 46.9999C808.247 45.2079 807.82 43.8853 806.967 43.0319C806.199 42.1786 805.217 41.6239 804.023 41.3679C802.913 41.1119 801.079 40.8133 798.519 40.4719C798.007 40.3866 797.665 40.2159 797.495 39.9599C797.409 39.6186 797.367 39.1066 797.367 38.4239C797.367 37.8266 797.58 37.4426 798.007 37.2719C799.287 36.7599 805.772 35.1386 817.463 32.4079V43.7999C823.095 36.2053 829.793 32.4079 837.559 32.4079C844.3 32.4079 849.377 34.2853 852.791 38.0399C856.289 41.7093 858.167 46.2746 858.423 51.7359C858.508 53.2719 858.551 56.3439 858.551 60.9519C858.551 67.9493 858.423 76.3546 858.167 86.1679C858.167 88.3866 858.892 89.8373 860.343 90.5199C861.879 91.2026 863.884 91.5439 866.359 91.5439H868.023Z" fill="black"/>
</svg>
